<?xml version="1.0" encoding="utf-8"?>
<!-- Generator: Adobe Illustrator 17.0.0, SVG Export Plug-In . SVG Version: 6.00 Build 0)  -->
<!DOCTYPE svg PUBLIC "-//W3C//DTD SVG 1.1//EN" "http://www.w3.org/Graphics/SVG/1.1/DTD/svg11.dtd">
<svg version="1.1" id="Layer_1" xmlns="http://www.w3.org/2000/svg" xmlns:xlink="http://www.w3.org/1999/xlink" x="0px" y="0px"
	 width="196px" height="174px" viewBox="0 0 196 174" enable-background="new 0 0 196 174" xml:space="preserve">
<g>
	<path fill="#070706" d="M171.421,55.452c0.167,0.167,0.334,0.334,0.501,0.501c-0.205,0.455,0.185,0.735,0.322,1.089
		c-0.165,0.605,0.011,1.022,0.652,1.183c0.003,2.674,0.006,5.347,0.009,8.021c-0.651,0.169-0.828,0.589-0.638,1.204
		c-2.542,0.164-3.356,1.774-3.382,4.043c-0.488,0.295-0.777,0.616-0.14,1.059c-0.441,1.655,0.176,3.214,0.435,4.805
		c-0.62,0.477-0.283,0.78,0.193,1.057c0.083,0.45,0.166,0.9,0.249,1.35c-0.562,0.751-0.555,1.429,0.255,2.006
		c0.05,1.667,0.317,3.358,2.243,3.718c2.314,0.433,2.972,1.941,3.343,3.945c0.38,2.058,3.147,4.809,5.042,4.687
		c2.442-0.157,3.739,1.288,5.169,2.773c0.364,0.378,0.359,1.393,1.33,0.933c0.226,0.473,0.452,0.945,0.677,1.418
		c-0.422,0.843,0.426,1.429,0.443,2.183c-0.989,0.385-1.978,0.77-2.967,1.155c-1.183,0.047-2.421,0.007-2.572,1.656
		c0.027,0.317,0.054,0.635,0.082,0.952c-0.632,1.442,0.493,2.178,1.232,3.069c0.001,0.527,0.002,1.054,0.003,1.581
		c-1.265,1.226-1.917,2.697-1.792,4.479c-0.012,0.634-0.024,1.267-0.036,1.901c-0.405,0.498-0.531,0.89,0.343,0.902
		c0.045,0.357,0.027,0.743,0.429,0.936c-0.067,0.94,0.065,1.782,1.079,2.189c0.023,0.218,0.046,0.437,0.069,0.655
		c-0.647,0.114-1.05,0.525-1.32,1.094c-0.488,0.265-1.339,0.037-1.329,0.978c-0.92,0.281-1.84,0.562-2.76,0.842
		c-0.681-0.447-1.145-0.397-1.229,0.533c0,0,0.071,0.099,0.071,0.099c-1.464-0.463-2.955-0.165-4.435-0.159
		c-1.211,0.018-2.291,0.264-2.754,1.583l-0.009,0.009c-0.717,0.23-1.293,0.529-0.682,1.404c0.01,0.955,0.019,1.91,0.029,2.865
		c-0.608,0.885-0.007,1.14,0.699,1.341c0.203,0.578,0.282,1.245,1.027,1.436c-0.046,0.78-0.057,1.525,1.098,1.057
		c0.327,0.399,0.653,0.798,0.98,1.198c-0.425,0.57-0.045,0.992,0.21,1.49c1.25,2.442,2.503,4.9,0.707,7.631
		c-0.489,0.232-0.978,0.464-1.467,0.696c-0.865-0.539-1.476-0.548-1.481,0.709c-0.309,0.212-0.618,0.424-0.927,0.636
		c-0.639-0.489-1.085-0.355-1.333,0.414l-0.053,0.056c-1.34,0.616-0.765,1.5-0.319,2.351c1.14,2.172,2.301,4.333,3.43,6.511
		c0.391,0.754,1.086,1.651-0.528,1.861c-3.186-0.562-6.293-1.642-9.591-1.471c-0.32-0.078-0.64-0.155-0.959-0.233
		c-0.404-0.602-0.902-0.589-1.455-0.225c-0.314-0.067-0.628-0.133-0.942-0.2c-2.78-1.269-5.638-1.468-8.571-0.62
		c-2.015,0.154-2.899,1.897-3.983,3.137c-1.714,1.961-3.248,2.285-5.557,0.969c-3.106-1.77-4.214-1.528-6.65,1.145
		c-1.536,1.685-3.225,2.438-5.486,2.231c-1.588-0.146-3.241-0.076-4.709,0.604c-4.122,1.91-9.066-0.196-12.973,2.703
		c-0.157,0.117-0.47,0.012-0.708,0.032c-3.111,0.257-6.001-0.258-8.644-2.086c-1.83-1.266-3.738-2.464-5.89-3.146
		c-1.738-0.551-3.142-1.373-3.925-3.185c-0.549-1.271-1.749-1.746-3.19-1.625c-1.412,0.118-2.089,0.98-2.593,2.152
		c-0.567,1.32-1.196,2.614-1.78,3.927c-0.456,1.025-1.036,1.365-2.258,1.009c-1.865-0.544-3.523-1.477-5.245-2.294
		c-1.373-0.652-2.775-0.854-3.549,0.653c-1.628,3.169-4.652,3.427-7.156,2.556c-3.772-1.312-5.751,0.292-7.661,2.96
		c-0.996,1.391-1.731,1.308-2.896-0.113c-1.784-2.175-2.698-5.419-6.246-5.741c-0.267-0.024-0.625-0.532-0.706-0.871
		c-0.426-1.778-1.741-1.638-2.786-1.026c-1.477,0.865-2.743,0.502-4.061-0.103c-2.574-1.181-5.078-1.64-8.011-0.963
		c-5.571,1.286-4.238,1.716-6.818-3.08c0.056-0.501,0.007-0.945-0.598-1.082c-0.416-1.251-1.089-2.314-2.212-3.053
		c-1.441-2.401-4.468-2.965-6.085-5.194c0.462-0.369,0.866-0.742,1.317-1.045c2.958-1.99,3.013-2.135,0.918-5.117
		c-0.636-0.905-0.584-1.757-0.29-2.714c0.326-1.061,0.735-2.121,0.877-3.211c0.513-3.924-1.394-7.67-4.465-8.46
		c-2.632-0.677-5.097-2.006-8.036-3.212c2.229-0.89,3.353-2.495,4.932-3.544c1.339-0.889,1.804-2.225,1.065-3.771
		c-0.747-1.563-0.42-2.522,1.331-3.067c1.625-0.505,2.164-1.403,1.863-3.424c-0.54-3.617-1.002-7.321,2.647-10.224
		c1.901-1.513,2.298-4.625,4.82-5.869c-0.077-0.114-0.153-0.228-0.23-0.343c0.269-0.269,0.538-0.539,0.807-0.808
		c0.046,0.064,0.081,0.144,0.142,0.188c0.049,0.035,0.149,0.06,0.194,0.034c0.931-0.555,0.682-1.42,0.33-2.075
		c-1.643-3.055-1.076-6.016-0.11-9.141c0.472-1.526,1.186-2.177,2.579-2.641c1.265-0.421,2.938-0.22,3.566-1.888l0,0
		c0.62-0.088,1.031-0.291,0.535-0.985c0.04-0.593,0.079-1.185,0.119-1.778c0.786-0.423,0.689-1.255,0.9-1.944
		c0.735-0.362,1.401-0.867,1.705-1.61c0.524-1.281,0.494-2.386-1.352-2.391c-0.314-0.31-0.628-0.62-0.943-0.93
		c0.203-0.712-0.118-1.052-0.804-1.135c-0.079-0.249-0.159-0.498-0.238-0.747c0.685-0.249,0.495-0.874,0.59-1.376
		c1.913-1.836,4.962-1.737,6.671-3.921c1.489-0.787,2.116-1.954,1.595-3.626c0.147-0.375,0.294-0.75,0.441-1.126
		c1.27-0.883,1.399-1.708-0.123-2.451c-0.096-0.071-0.156-0.166-0.179-0.284c0.23-0.709-0.022-1.1-0.769-1.163
		c-0.246-0.398-0.492-0.797-0.738-1.195c0.286-0.721,0.043-1.118-0.73-1.188c-0.089-0.081-0.141-0.182-0.156-0.301
		c0.209-0.694-0.038-1.086-0.767-1.159c-0.114-0.231-0.228-0.461-0.342-0.692c0.242-1.136,0.161-2.141-1.084-2.675
		c-0.118-0.231-0.235-0.462-0.353-0.694c0.117-0.383,0.233-0.765,0.35-1.148c0.309-0.026,0.619-0.051,0.928-0.077
		c0.522,0.683,0.817,0.376,1.043-0.238c0.294-0.072,0.587-0.144,0.881-0.217c2.918,1.033,5.424,0.646,6.676-1.032
		c0.239-0.595,0.478-1.191,0.717-1.786c1.393-1.398,0.59-3.019,0.466-4.571l0.114-0.124c1.536,0.462,2.89,0.097,4.102-0.908
		c0.848-0.175,1.695-0.35,2.543-0.525c1.248,0.397,1.651-0.169,1.524-1.338c0.525-0.743,1.051-1.487,1.576-2.23
		c1.174-0.054,1.512-0.806,1.525-1.828l0.016-0.024c0.746-0.141,0.956-0.555,0.63-1.241c0.11-0.545,0.219-1.09,0.329-1.634
		c0.153-0.157,0.307-0.313,0.46-0.47c1.107,0.08,1.647-1.03,2.613-1.245c1.034,0.215,1.806-0.076,2.181-1.133
		c0.309-0.185,0.617-0.369,0.926-0.554c1.459-0.062,2.03-1.343,2.947-2.149c1.4-1.23,2.294-3.052,4.248-3.634
		c1.848,0.792,3.267,0.241,4.341-1.388c0.348-0.87,1.673-1.011,1.625-2.176c1.091-0.989,2.181-1.979,3.272-2.968
		c1.477,0.178,2.891,0.894,4.433,0.511c0.385,0.134,0.77,0.268,1.155,0.402c0.66,1.211,1.528,0.989,2.455,0.355
		c0.292,0.074,0.585,0.148,0.877,0.223c0.273,0.65,0.703,0.774,1.287,0.385c0.852,0.347,1.703,0.695,2.555,1.042
		c0.371,0.786,0.745,0.787,1.122,0.004c0.293-0.07,0.585-0.14,0.878-0.21c0.648,0.68,1.148,0.547,1.52-0.279
		c1.04-0.321,2.05-0.864,3.194-0.444c1.245,1.163,2.578,0.826,3.927,0.233c0.293,0.07,0.586,0.14,0.879,0.211
		c0.377,0.829,0.876,0.961,1.52,0.268c0.292,0.074,0.584,0.147,0.877,0.221c0.214,0.566,0.486,0.927,1.039,0.294
		c0.31,0.17,0.62,0.34,0.93,0.51c0.11,0.598,0.272,1.091,0.984,0.496c1.348,0.322,2.425-0.515,3.62-0.847
		c0.691,0.356,1.079,0.116,1.216-0.618c0.311-0.171,0.623-0.342,0.934-0.513c0.845,0.706,1.743,0.447,2.644,0.147
		c0.373,0.17,0.746,0.339,1.119,0.509c0.244,0.669,0.675,0.804,1.277,0.444c1.665,0.618,3.33,1.236,4.996,1.854
		c0.409,1.034,1.125,1.42,2.202,1.041c0.235,0.114,0.469,0.228,0.704,0.342c0.57,1.385,1.751,1.677,3.072,1.719
		c0.24,0.106,0.479,0.211,0.719,0.317c0.18,0.682,0.592,0.874,1.233,0.584c0.572,0.394,1.144,0.789,1.717,1.183
		c0.08,0.788,0.477,1.01,1.191,0.667c0.235,0.11,0.471,0.221,0.706,0.331c0.124,0.94,0.737,1.056,1.513,0.897
		c0.227,0.098,0.455,0.197,0.682,0.295c0.6,1.312,1.742,1.871,3.051,2.196c0.156,0.157,0.313,0.314,0.469,0.471
		c1.252,2.65,2.277,5.479,5.318,6.71c0.198,0.962,0.666,1.181,1.451,0.526c1.009-0.161,1.947,0.007,2.795,0.6
		c0.058,0.613,0.179,1.18,0.933,1.29c0.318,0.859,0.636,1.718,0.954,2.577c-0.298,0.971-0.787,1.971,0.396,2.727
		c0.07,0.293,0.14,0.585,0.21,0.878c-0.406,1.421-1.409,2.703-1.013,4.313c-0.041,0.855,0.048,1.651,0.952,2.074
		c0.186,0.676,0.601,0.861,1.236,0.578c0.396,0.112,0.733,0.496,1.204,0.266c0.084,0.129,0.116,0.271,0.095,0.424
		c-0.917,1.09,0.02,1.511,0.727,2.016c0.258,0.3,0.44,0.732,0.97,0.564c0.15,0.171,0.3,0.341,0.45,0.512
		c0.28,1.541,1.923,1.932,2.628,3.114c0.037,0.783,0.396,1.068,1.149,0.744c0.711,0.272,1.423,0.543,2.134,0.815
		c0.094,0.692,0.474,0.947,1.148,0.755C169.581,54.006,170.186,55.265,171.421,55.452z M139.013,151.27
		c-0.004,0.483-0.007,0.967-0.011,1.45c-0.572,0.576-1.377,1.522-0.747,2.007c1.367,1.054,3.004,1.794,4.603,2.498
		c1.192,0.525,1.759-0.68,2.253-1.349c2.573-3.486,5.931-4.856,10.173-4.124c1.254,0.216,2.506,0.451,3.755,0.691
		c2.733,0.526,5.461,1.073,8.197,1.581c0.368,0.068,0.898,0.105,1.129-0.099c0.494-0.437-0.064-0.823-0.266-1.218
		c-0.798-1.559-1.506-3.171-2.405-4.669c-0.842-1.403-0.716-2.228,0.876-2.938c1.818-0.81,3.503-1.913,5.284-2.811
		c0.97-0.489,1.136-0.983,0.784-2.075c-0.886-2.743-2.781-4.829-4.374-7.09c-1.747-2.479-2.137-5.251-0.861-7.673
		c1.331-2.528,3.657-4.414,7.023-3.948c1.794,0.249,3.459-0.295,5.095-1.029c1.057-0.474,1.345-1.082,0.668-2.001
		c-1.611-2.186-1.05-4.319,0.038-6.48c0.286-0.567,0.493-1.179,0.687-1.786c0.599-1.876-0.422-3.447-1.208-4.934
		c-0.704-1.333-1.994-0.234-3.033-0.166c-0.797,0.053-1.598,0.052-2.397,0.047c-0.386-0.002-0.879,0.026-0.933-0.499
		c-0.047-0.454,0.332-0.73,0.732-0.802c2.793-0.501,5.15-2.098,7.757-3.058c2.735-1.008,2.772-1.313,0.568-3.389
		c-0.705-0.664-1.508-0.805-2.357-1.017c-3.422-0.853-6.192-2.447-7.087-6.219c-0.344-1.449-1.425-2.326-2.782-2.744
		c-2.337-0.719-2.718-2.412-2.898-4.597c-0.421-5.103-1.719-10.16-0.484-15.314c0.036-0.149,0.023-0.332-0.03-0.475
		c-0.604-1.633,0.084-2.228,1.68-2.147c0.942,0.048,1.63-0.061,1.785-1.331c0.552-4.546-0.057-5.787-4.157-7.966
		c-3.617-1.923-7.188-3.911-8.842-8.008c-0.263-0.652-0.856-0.905-1.423-1.209c-2.931-1.575-3.639-3.143-2.208-6.17
		c1.087-2.3,0.315-4.335-0.182-6.456c-0.205-0.877-0.777-1.421-1.845-1.58c-3.418-0.51-5.997-2.2-7.507-5.474
		c-0.757-1.641-1.915-2.987-3.525-4.08c-6.302-4.278-12.949-7.82-20.098-10.476c-2.133-0.793-3.832-0.101-5.287,1.064
		c-1.578,1.264-2.794,1.173-4.53,0.338c-4.204-2.024-8.642-2.742-13.226-1.299c-1.025,0.323-2.017,0.479-3.04,0.078
		c-2.459-0.966-5.107-1.291-7.58-2.132c-2.526-0.859-4.273-0.023-5.918,1.695c-1.927,2.011-3.71,4.251-6.94,4.085
		c-0.687-0.035-1.049,0.667-1.574,1.008c-1.899,1.233-2.741,3.944-4.848,4.483c-4.172,1.068-6.307,3.995-8.375,7.306
		c-0.85,1.361-1.474,2.477,0.172,3.999c-2.733,0.507-5.051,1.112-7.405,1.321c-1.995,0.177-2.759,0.859-2.723,2.944
		c0.086,4.931-0.059,4.623-4.874,5.378c-5.443,0.854-5.762-0.782-2.408,4.659c1.978,3.209,3.097,6.048,0.977,9.625
		c-0.91,1.536-1.11,3.482-2.942,4.413c-1.28,0.651-3.206,1.065-3.643,2.094c-0.633,1.492,1.582,2.197,2.336,3.426
		c0.622,1.014,1.282,1.789-0.213,2.636c-2.392,1.356-3.265,3.544-3.059,6.208c0.077,0.992-0.499,1.464-1.287,1.775
		c-1.186,0.469-2.385,0.909-3.585,1.34c-1.619,0.581-2.449,1.615-2.966,3.374c-0.844,2.868,0.184,5.154,1.386,7.527
		c0.458,0.905,1.199,1.94-0.204,2.659c-3.128,1.605-5.805,3.61-7.024,7.106c-0.145,0.418-0.621,0.718-0.936,1.079
		c-1.78,2.045-2.003,4.454-1.168,6.851c1.262,3.624,1.395,3.627-1.982,5.393c-1.128,0.59-1.649,1.175-0.904,2.394
		c1.278,2.091,0.613,3.474-1.522,4.491c-0.64,0.305-1.757,0.621-1.665,1.502c0.092,0.877,1.256,0.958,1.931,1.087
		c2.368,0.454,4.73,1.924,5.71,3.433c1.639,2.525,3.55,5.728,1.688,9.134c-1.015,1.858-0.514,3.198,0.778,4.622
		c1.753,1.934,1.639,3.201-0.399,5.187c-0.809,0.788-1.088,1.419,0.066,2.019c3.302,1.715,5.32,4.394,6.227,7.986
		c0.315,1.247,0.982,1.765,2.472,1.285c3.756-1.213,7.503-1.134,11.043,0.853c0.837,0.47,1.498,0.151,2.244-0.188
		c4.7-2.138,4.704-2.129,5.565,3.102c0.674-0.387,0.15-1.657,1.044-1.663c0.781-0.005,0.998,0.91,1.399,1.498
		c0.627,0.919,1.345,1.775,2.008,2.67c1.889,2.553,1.887,2.556,3.926,0.156c0.206-0.243,0.425-0.486,0.572-0.765
		c0.914-1.735,1.997-1.72,3.884-1.151c5.156,1.554,7.554,1.125,9.17-3.204c1.92-1.066,3.367,0.441,4.85,1.08
		c4.562,1.965,4.478,2.042,6.551-2.317c0.57-1.199,0.362-1.918-0.448-2.952c-2.148-2.741-4.788-4.691-7.818-6.406
		c-6.856-3.881-13.424-8.212-18.057-14.842c-1.282-3.588-2.905-7.082-3.111-10.971c-0.234-4.399-2.368-7.787-5.399-10.829
		c-2.078-2.086-3.221-4.625-3.095-7.756c0.148-3.698,1.228-7.071,2.95-10.251c2.687-4.96,3.605-10.307,3.807-15.846
		c0.011-5.472-0.006-10.943,0.043-16.415c0.027-2.988,0.41-5.921,1.907-8.594c0.166,0.17,0.333,0.34,0.499,0.51
		c-1.159,3.931-1.018,7.969-0.99,11.997c-0.897,4.06-0.482,8.145-0.209,12.225c0.007,0.1,0.24,0.184,0.367,0.276
		c0.42,2.702,0.484,5.405,0.034,8.11c-0.816,0.358-0.842,0.85-0.246,1.447c-0.049,0.319-0.098,0.638-0.147,0.958
		c-0.746,0.213-0.778,0.718-0.544,1.332c-0.622,3.51-2.722,6.443-3.8,9.793c-1.53,4.752-0.852,8.885,2.921,12.211
		c3.291,2.901,4.759,6.443,4.814,10.766c0.073,5.827,2.981,10.32,7.057,14.188c3.964,3.762,8.365,6.917,13.219,9.437
		c1.998,1.037,3.954,2.19,5.325,4.006c2.406,3.187,5.702,4.501,9.514,4.838c3.113,0.275,6.239,0.329,9.344,0.006
		c2.396-0.249,4.842-0.743,6.613-2.5c4.157-4.123,9.225-6.808,14.319-9.485c4.154-2.184,7.699-5.09,10.616-8.794
		c1.111-1.41,1.504-3.032,0.845-4.464c-0.536-1.167-2.183-0.584-3.294-0.512c-4.181,0.27-7.156-1.32-9.17-5.06
		c-1.15-2.136-3.091-3.441-5.704-3.158c-1.852,0.201-3.419-0.611-5.07-1.194c-0.957-0.338-1.273-0.979-1.03-1.84
		c0.702-2.489-0.383-4.322-2.065-5.955c-0.78-0.757-1.008-1.78-1.451-2.712c-2.594-5.457-2.214-11.715-4.679-17.205
		c-0.335-0.746,0.492-1.07,0.869-1.539c0.877,1.442,1.813,3.037,1.799,4.63c-0.035,4.114,1.621,7.772,2.577,11.618
		c0.431,1.733,1.122,3.278,2.456,4.563c0.954,0.919,1.81,1.959,1.851,3.484c0.086,3.201,1.026,4.272,4.254,4.202
		c3.618-0.078,6.09,1.373,7.671,4.545c0.555,1.113,1.522,1.729,2.577,2.371c2.258,1.372,4.68,0.812,7.028,0.824
		c1.758,0.009,2.441,0.37,2.6,2.351c0.162,2.025-0.232,3.662-1.097,5.426c-2.199,4.485-2.159,4.57,2.117,6.964
		c1.494,0.836,1.26,1.587,0.298,2.564c-0.164-0.002-0.327-0.004-0.491-0.006c-3.327-2.885-4.674-3.009-8.115-0.829
		c-0.805,0.51-1.703,0.873-2.53,1.35c-4.397,2.538-9.037,4.64-12.842,8.181c-2.409,2.242-4.934,4.465-8.516,4.957
		c-3.032,0.417-6.047,0.104-9.063,0.272c-0.515,0.029-1.257-0.236-1.403,0.516c-0.102,0.528,0.465,0.72,0.924,0.912
		c3.23,1.358,6.176,3.288,9.312,4.789c2.436,1.166,5.277,1.857,7.919-0.045c1.447-1.041,3.078-1.939,4.879-1.291
		c1.744,0.627,3.296,0.14,4.886-0.3c1.226-0.34,2.407-0.76,3.713-0.809c3.561-0.134,6.683-0.992,9.126-4.057
		c1.263-1.585,1.776-2.731,1.481-4.786c-0.35-2.437-2.008-4.817-0.722-7.417c0.175,0.003,0.35,0.006,0.525,0.009
		c-0.292,2.507,0.889,4.811,1.009,7.27c0.045,0.919,0.655,0.981,1.311,0.393C138.661,151.265,138.837,151.268,139.013,151.27z"/>
	<path fill="#6A6A6A" d="M26.617,154.632c2.58,4.796,1.246,4.366,6.818,3.08c2.934-0.677,5.437-0.218,8.011,0.963
		c1.318,0.605,2.584,0.967,4.061,0.103c1.045-0.612,2.36-0.752,2.786,1.026c0.081,0.339,0.439,0.847,0.706,0.871
		c3.548,0.323,4.463,3.566,6.246,5.741c1.165,1.421,1.901,1.504,2.896,0.113c1.91-2.668,3.889-4.272,7.661-2.96
		c2.504,0.871,5.528,0.613,7.156-2.556c0.774-1.507,2.176-1.305,3.549-0.653c1.722,0.817,3.38,1.75,5.245,2.294
		c1.222,0.356,1.802,0.016,2.258-1.009c0.584-1.313,1.213-2.607,1.78-3.927c0.504-1.172,1.181-2.033,2.593-2.152
		c1.441-0.121,2.642,0.353,3.19,1.625c0.782,1.812,2.186,2.634,3.925,3.185c2.152,0.683,4.06,1.881,5.89,3.146
		c2.643,1.828,5.533,2.342,8.644,2.086c0.239-0.02,0.551,0.085,0.708-0.032c3.907-2.899,8.851-0.793,12.973-2.703
		c1.468-0.68,3.122-0.75,4.709-0.604c2.261,0.207,3.95-0.546,5.486-2.231c2.436-2.672,3.544-2.915,6.65-1.145
		c2.309,1.316,3.843,0.992,5.557-0.969c1.084-1.24,1.968-2.983,3.983-3.137c-0.022,0.269-0.043,0.539-0.065,0.809
		c-1.475,1.462-3.023,2.859-4.404,4.404c-1.184,1.325-2.374,1.42-3.806,0.545c-0.68-0.416-1.424-0.729-2.097-1.156
		c-1.625-1.031-3.088-0.827-4.206,0.693c-1.836,2.497-4.205,3.357-7.267,3.079c-1.805-0.164-3.626,0.436-5.386,0.982
		c-1.907,0.592-3.796,1.238-5.847,0.535c-0.77-0.264-1.586-0.032-2.317,0.354c-4.824,2.545-9.494,2.085-14.044-0.714
		c-1.837-1.13-3.683-2.24-5.738-2.947c-1.862-0.64-3.299-1.654-4.287-3.523c-1.096-2.074-2.85-1.827-3.882,0.363
		c-0.749,1.589-1.423,3.213-2.156,4.809c-0.56,1.219-1.33,1.628-2.672,0.921c-1.83-0.964-3.809-1.649-5.628-2.632
		c-1.079-0.583-1.894-0.505-2.432,0.484c-2.237,4.117-6.022,2.895-9.33,2.497c-1.807-0.218-3.088-0.357-4.002,1.382
		c-0.072,0.137-0.207,0.242-0.313,0.361c-3.161,3.529-3.358,3.502-6.425-0.08c-1.496-1.747-2.452-4.248-5.42-4.134
		c-0.258,0.01-0.709-0.475-0.775-0.793c-0.339-1.617-1.204-1.596-2.444-0.98c-1.085,0.539-2.213,0.323-3.227-0.235
		c-3.039-1.671-6.127-1.715-9.47-0.887c-4.423,1.097-5.33,0.341-6.357-4.271C26.274,154.65,26.445,154.641,26.617,154.632z"/>
	<path fill="#636363" d="M24.47,91.306c0.077,0.114,0.153,0.228,0.23,0.343c-2.522,1.244-2.919,4.356-4.82,5.869
		c-3.649,2.903-3.187,6.608-2.647,10.224c0.302,2.021-0.238,2.918-1.863,3.424c-1.751,0.544-2.078,1.504-1.331,3.067
		c0.739,1.546,0.274,2.882-1.065,3.771c-1.579,1.049-2.703,2.654-4.932,3.544c2.94,1.205,5.404,2.535,8.036,3.212
		c3.071,0.789,4.978,4.536,4.465,8.46c-0.143,1.09-0.551,2.15-0.877,3.211c-0.294,0.957-0.346,1.809,0.29,2.714
		c2.095,2.982,2.04,3.127-0.918,5.117c-0.451,0.303-0.855,0.675-1.317,1.045c1.617,2.229,4.644,2.793,6.085,5.194
		c-2.811-0.739-4.611-3.071-7.002-4.479c-0.739-0.435-0.374-1.133,0.217-1.563c0.515-0.375,1.06-0.721,1.625-1.013
		c1.923-0.994,2.518-2.127,0.527-3.693c-1.129-0.889-1.051-2.003-0.552-3.244c0.595-1.479,1.383-3.051,1.138-4.609
		c-0.577-3.673-0.906-4.898-4.38-6.13c-2.48-0.88-4.888-1.963-7.338-2.932c-1.414-0.559-1.649-1.331-0.277-2.125
		c1.125-0.652,1.981-1.636,3.038-2.297c2.081-1.3,2.867-2.78,1.811-5.172c-0.522-1.182,0.081-2.208,1.361-2.632
		c1.656-0.548,2.374-1.272,1.895-3.324c-0.458-1.962-0.86-4.751,0.152-6.085C18.628,97.768,19.759,92.941,24.47,91.306z"/>
	<path fill="#A8A8A8" d="M37.393,44.974c0.114,0.231,0.228,0.461,0.342,0.692c-0.059,0.595,0.261,0.938,0.767,1.159
		c0.015,0.12,0.067,0.22,0.156,0.301c-0.069,0.588,0.192,0.973,0.73,1.188c0.246,0.398,0.492,0.797,0.738,1.195
		c-0.068,0.602,0.185,0.992,0.769,1.163c0.023,0.118,0.082,0.212,0.179,0.284c0.041,0.817,0.082,1.634,0.123,2.451
		c-0.147,0.375-0.294,0.75-0.439,1.126c-0.882,1.054-1.137,2.385-1.596,3.625c-1.709,2.183-4.758,2.085-6.671,3.921
		c-0.971,0.07-0.83,0.898-1.021,1.499c-1.056-1.024-1.133-1.2-0.176-1.941c1.127-0.872,2.296-1.717,3.739-2.074
		c3.704-0.918,4.282-4.144,5.139-7.121c0.216-0.749-0.344-1.393-0.753-1.96c-1.931-2.672-3.19-5.684-4.559-8.649
		c-0.818-1.771-0.262-2.598,1.56-2.699c2.066-0.115,4.083-0.704,6.184-0.517c1.982,0.177,2.898-0.781,2.949-2.822
		c0.11-4.414,0.14-4.691,4.153-5.178c2.894-0.351,4.97-1.405,6.394-3.886c0.19-0.331,0.518-0.617,0.991-0.493
		c-0.071,0.391-0.142,0.782-0.213,1.173c-0.525,0.743-1.051,1.487-1.576,2.23c-0.641,0.295-1.178,0.708-1.525,1.338
		c-0.848,0.175-1.695,0.35-2.543,0.525c-1.45-0.073-2.897-0.13-4.102,0.908c0,0-0.114,0.124-0.113,0.125
		c-1.204,1.417-0.478,3.03-0.467,4.571c-0.239,0.595-0.478,1.191-0.717,1.787c-2.104,1.129-4.534,0.15-6.676,1.032
		c-0.294,0.072-0.587,0.144-0.881,0.216c-0.413-0.204-0.769-0.164-1.043,0.238c-0.309,0.026-0.619,0.051-0.928,0.077
		c-0.317-0.137-0.639-0.08-0.766,0.219c-0.17,0.4,0.058,0.716,0.416,0.928c0.118,0.231,0.235,0.462,0.353,0.694
		C36.393,43.303,36.666,44.23,37.393,44.974z"/>
	<path fill="#9C9C9C" d="M137.073,17.35c-0.572-0.394-1.144-0.789-1.717-1.183c-0.258-0.516-0.659-0.732-1.233-0.585
		c-0.24-0.106-0.479-0.211-0.72-0.317c-0.73-1.099-1.903-1.404-3.072-1.72c-0.235-0.114-0.469-0.228-0.704-0.341
		c-0.589-0.653-1.302-1.044-2.201-1.042c-1.665-0.618-3.331-1.236-4.996-1.853c-0.313-0.469-0.726-0.655-1.277-0.445
		c-0.373-0.17-0.746-0.339-1.119-0.508c-0.838-0.822-1.721-0.832-2.644-0.148c-0.311,0.171-0.623,0.342-0.934,0.513
		c-0.545-0.069-0.92,0.197-1.216,0.618c-1.195,0.332-2.272,1.169-3.62,0.847c-0.188-0.442-0.544-0.553-0.984-0.496
		c-0.31-0.17-0.62-0.34-0.93-0.51c-0.25-0.439-0.615-0.473-1.039-0.294c-0.292-0.074-0.584-0.147-0.877-0.221
		c-0.429-0.532-0.965-0.456-1.52-0.268c-0.293-0.07-0.586-0.14-0.879-0.211c-1.268-0.766-2.603-0.407-3.927-0.233
		c-1.143-0.42-2.153,0.122-3.194,0.443c-0.558-0.186-1.096-0.262-1.52,0.279c-0.293,0.07-0.585,0.14-0.878,0.209
		c-0.374-0.001-0.748-0.003-1.122-0.004c-0.852-0.347-1.703-0.695-2.555-1.041c-0.33-0.458-0.741-0.645-1.286-0.386
		c-0.292-0.074-0.585-0.148-0.877-0.223c-0.732-0.718-1.605-0.455-2.455-0.355c-0.385-0.134-0.77-0.268-1.156-0.401
		c-1.181-1.084-2.745-0.949-4.154-1.306c0.21-0.902,0.802-0.818,1.476-0.592c3.463,1.163,7.185,1.413,10.529,2.995
		c0.938,0.444,1.855,0.203,2.795-0.06c4.89-1.367,9.63-0.745,14.161,1.358c1.547,0.718,2.709,0.058,3.786-0.637
		c2.321-1.497,4.45-1.354,6.958-0.301c5.658,2.375,11.323,4.704,16.601,7.87c0.604,0.362,1.355,0.565,1.424,1.447
		c-0.343,0.032-0.685,0.065-1.028,0.097c-0.235-0.11-0.471-0.221-0.707-0.33C137.987,17.582,137.625,17.298,137.073,17.35z"/>
	<path fill="#9C9C9C" d="M168.884,71.494c0.026-2.269,0.84-3.879,3.382-4.044c0.68-0.153,0.888-0.557,0.639-1.204
		c-0.003-2.674-0.006-5.347-0.009-8.021c0.238-0.645-0.022-1.016-0.652-1.183c-0.137-0.354-0.527-0.634-0.322-1.089
		c1.812-0.013,1.964,1.4,2.018,2.619c0.114,2.544,0.036,5.096,0.032,7.645c-0.002,0.929-0.267,1.759-1.141,2.211
		c-0.878,0.455-2.318,0.182-2.557,1.424c-0.312,1.618-0.926,3.254-0.611,4.925c0.499,2.65,1.274,5.244,1.37,7.97
		c0.039,1.085,0.79,1.762,1.817,1.933c2.019,0.335,2.976,1.65,3.47,3.469c0.778,2.862,2.259,4.751,5.59,4.81
		c2.089,0.037,4.682,2.786,5.092,4.869c-0.971,0.46-0.967-0.555-1.33-0.933c-1.429-1.485-2.727-2.931-5.169-2.773
		c-1.894,0.122-4.662-2.629-5.042-4.687c-0.37-2.004-1.029-3.512-3.343-3.945c-1.926-0.36-2.193-2.051-2.242-3.718
		c0.311-0.719,0.437-1.414-0.255-2.006c-0.083-0.45-0.166-0.9-0.249-1.35c0.261-0.412,0.23-0.77-0.194-1.056
		c-0.259-1.592-0.876-3.151-0.435-4.805C169.163,72.249,169.163,71.89,168.884,71.494z"/>
	<path fill="#636363" d="M31.978,74.975c-0.627,1.668-2.301,1.467-3.566,1.888c-1.393,0.464-2.107,1.114-2.579,2.641
		c-0.966,3.125-1.533,6.086,0.11,9.141c0.352,0.655,0.601,1.52-0.33,2.075c-0.044,0.026-0.144,0.002-0.194-0.034
		c-0.061-0.044-0.096-0.124-0.142-0.188c-0.224-0.822-0.449-1.644-0.673-2.466c-0.688-2.483-0.7-4.97-0.034-7.459
		c0.07-0.274,0.14-0.548,0.21-0.822c0.668-0.839,0.613-1.917,0.947-2.866c0,0,0.001-0.001,0.001-0.001
		c1.005-0.369,2.198-0.246,3.004-1.141c0.754-0.264,1.508-0.527,2.262-0.791C31.323,74.959,31.651,74.967,31.978,74.975z"/>
	<path fill="#9C9C9C" d="M159.121,44.747c-0.472,0.23-0.808-0.154-1.205-0.265c-0.261-0.514-0.658-0.739-1.235-0.579
		c-0.903-0.422-0.992-1.218-0.952-2.074c0.616-1.372,1.868-2.595,1.012-4.313c-0.07-0.293-0.14-0.585-0.209-0.878
		c0.146-0.949,0.441-1.921-0.396-2.727c-0.318-0.859-0.636-1.718-0.954-2.577c-0.003-0.303-0.006-0.605-0.008-0.908
		c0.109-0.091,0.218-0.181,0.327-0.271c1.985,3.439,3.199,6.989,1.52,10.932c-0.445,1.045-0.387,1.828,0.852,2.236
		C158.538,43.542,159.28,43.771,159.121,44.747z"/>
	<path fill="#9C9C9C" d="M154.249,30.045c-0.847-0.593-1.786-0.76-2.795-0.6c-0.336-0.581-0.885-0.576-1.451-0.526
		c-3.041-1.232-4.066-4.061-5.318-6.71c1.515,0.048,1.771,1.469,2.278,2.375c1.35,2.414,3.243,3.713,5.997,3.854
		c1.148,0.059,2.179,0.427,2.539,1.718c-0.109,0.09-0.218,0.18-0.326,0.27C154.866,30.299,154.558,30.172,154.249,30.045z"/>
	<path fill="#6A6A6A" d="M171.617,157.537c1.614-0.21,0.919-1.107,0.528-1.861c-1.129-2.178-2.29-4.339-3.43-6.511
		c-0.447-0.851-1.021-1.735,0.32-2.351c0.367,0.683-0.157,1.709,0.832,2.151c1.249,2.339,2.498,4.677,3.747,7.016
		C173.531,157.248,173.623,158.74,171.617,157.537z"/>
	<path fill="#9C9C9C" d="M167.273,52.936c-0.711-0.272-1.423-0.543-2.135-0.814c-0.23-0.484-0.61-0.736-1.149-0.745
		c-0.705-1.183-2.348-1.573-2.628-3.114c3.132,2.407,7.032,3.604,9.955,6.331c0.161,0.151,0.075,0.567,0.104,0.859
		c-1.235-0.187-1.84-1.446-3-1.761C168.254,53.112,167.881,52.845,167.273,52.936z"/>
	<path fill="#9C9C9C" d="M72.751,13.499c-1.954,0.582-2.848,2.404-4.248,3.634c-0.918,0.806-1.488,2.086-2.947,2.149
		c-0.033-0.221-0.065-0.442-0.098-0.663c1.592-1.529,3.252-2.995,4.755-4.607c1.439-1.543,3.073-2.11,5.101-1.598
		C74.758,13.479,73.44,12.745,72.751,13.499z"/>
	<path fill="#9C9C9C" d="M171.617,157.537c2.006,1.202,1.913-0.289,1.996-1.555c0.864,0.293,0.985,0.987,0.806,1.72
		c-0.173,0.707-0.858,1.081-1.458,0.97c-3.616-0.67-7.214-1.433-10.814-2.185c-0.067-0.014-0.082-0.275-0.122-0.42
		C165.325,155.895,168.431,156.975,171.617,157.537z"/>
	<path fill="#6A6A6A" d="M174.295,144.303c1.796-2.73,0.543-5.189-0.707-7.631c-0.255-0.498-0.635-0.921-0.21-1.49
		c1.149,0.172,1.415,1.122,1.765,1.999c0.05,1.465,0.447,2.815,1.317,4.01c0.025,0.475,0.051,0.95,0.076,1.424
		c-0.455,0.186-0.581,0.556-0.565,1.007C175.509,144.088,175.031,144.514,174.295,144.303z"/>
	<path fill="#9C9C9C" d="M182.665,105.19c-0.027-0.317-0.054-0.635-0.082-0.952c0.864-0.542,2.018-0.633,2.572-1.656
		c0.989-0.385,1.978-0.77,2.966-1.155c0.712,0.05,0.704-0.704,1.111-0.995c1.006,1.021,0.191,1.52-0.613,1.902
		c-1.147,0.545-2.327,1.031-3.523,1.458c-1.154,0.411-1.654,1.148-1.463,2.355C183.311,105.828,182.988,105.509,182.665,105.19z"/>
	<path fill="#9C9C9C" d="M150.035,155.598c0.022-0.27,0.043-0.539,0.065-0.809c2.933-0.848,5.791-0.649,8.571,0.62
		c-0.51,0.86-1.233,0.403-1.866,0.265C154.549,155.184,152.294,155.352,150.035,155.598z"/>
	<path fill="#A8A8A8" d="M24.571,80.573c-0.666,2.489-0.654,4.976,0.034,7.459C22.711,85.246,22.702,83.38,24.571,80.573z"/>
	<path fill="#A8A8A8" d="M65.458,18.619c0.033,0.221,0.065,0.442,0.098,0.663c-0.309,0.185-0.617,0.369-0.926,0.554
		c-0.994-0.136-1.671,0.337-2.181,1.133c-0.966,0.216-1.506,1.325-2.613,1.245C60.951,19.829,63.209,19.23,65.458,18.619z"/>
	<path fill="#6A6A6A" d="M182.108,114.319c-0.125-1.782,0.528-3.253,1.793-4.479c0.119,0.26,0.238,0.52,0.357,0.779
		c-0.483,1.191-0.966,2.381-1.448,3.572C182.576,114.234,182.342,114.277,182.108,114.319z"/>
	<path fill="#636363" d="M33.885,66.266c1.846,0.005,1.876,1.11,1.352,2.391c-0.304,0.743-0.97,1.248-1.705,1.609
		c-0.089-0.073-0.178-0.147-0.266-0.221c0.042-0.285,0.085-0.571,0.127-0.856c0.165-0.156,0.33-0.312,0.495-0.469
		c0.903-0.419,1.3-0.899,0.187-1.56C34.012,66.863,33.949,66.565,33.885,66.266z"/>
	<path fill="#9C9C9C" d="M169.575,130.151c-0.01-0.955-0.019-1.91-0.028-2.865c0.646-0.265,0.686-0.824,0.682-1.404
		c0,0,0.009-0.009,0.009-0.009c0.466-0.013,0.932-0.025,1.398-0.037c-1.075,1.281-1.145,2.867-1.34,4.414
		C170.055,130.216,169.815,130.184,169.575,130.151z"/>
	<path fill="#3B3B3B" d="M72.751,13.499c0.688-0.754,2.006-0.02,2.563-1.085c0.258-0.122,0.516-0.243,0.774-0.365
		c0.335,0.02,0.67,0.041,1.005,0.061C76.019,13.74,74.6,14.291,72.751,13.499z"/>
	<path fill="#9C9C9C" d="M172.991,124.29c1.481-0.006,2.972-0.305,4.435,0.159c-1.315,1.448-2.865,0.744-4.367,0.475
		C173.037,124.712,173.014,124.501,172.991,124.29z"/>
	<path fill="#9C9C9C" d="M182.108,114.319c0.234-0.043,0.468-0.085,0.701-0.128c0.274,1.318,0.548,2.636,0.822,3.954
		c-0.262-0.029-0.524-0.059-0.787-0.088c-0.402-0.193-0.384-0.579-0.43-0.935c0.318-0.464,0.09-0.722-0.342-0.902
		C182.084,115.586,182.096,114.953,182.108,114.319z"/>
	<path fill="#3B3B3B" d="M82.268,6.172c1.409,0.357,2.974,0.222,4.154,1.306c-1.541,0.382-2.955-0.334-4.432-0.512
		C82.082,6.702,82.175,6.437,82.268,6.172z"/>
	<path fill="#9C9C9C" d="M176.46,141.192c-0.87-1.195-1.267-2.546-1.317-4.01C176.109,138.345,176.604,139.663,176.46,141.192z"/>
	<path fill="#9C9C9C" d="M144.217,21.737c-1.31-0.326-2.452-0.884-3.051-2.196C142.652,19.621,143.789,20.186,144.217,21.737z"/>
	<path fill="#A8A8A8" d="M59.376,22.683c-0.11,0.545-0.219,1.09-0.328,1.635c-0.465,0.284-0.712,0.678-0.631,1.24
		c0,0-0.016,0.024-0.016,0.024c-0.258,0.033-0.515,0.066-0.773,0.099C57.707,24.388,57.891,23.157,59.376,22.683z"/>
	<path fill="#A8A8A8" d="M31.978,74.975c-0.328-0.008-0.655-0.016-0.983-0.023c0.786-1.019,0.097-2.559,1.222-3.46
		c0.139,0.24,0.277,0.48,0.415,0.719c-0.04,0.593-0.079,1.185-0.119,1.778C32.068,74.173,31.944,74.531,31.978,74.975L31.978,74.975
		z"/>
	<path fill="#9C9C9C" d="M77.093,12.111c-0.335-0.02-0.67-0.041-1.005-0.061c0.581-1.073,1.109-2.211,2.63-2.115
		C78.766,11.1,77.44,11.241,77.093,12.111z"/>
	<path fill="#9C9C9C" d="M184.258,110.619c-0.119-0.26-0.238-0.519-0.357-0.779c-0.002-0.527-0.003-1.054-0.004-1.582
		c0.112-0.262,0.223-0.523,0.335-0.784C185.404,108.513,185.341,109.562,184.258,110.619z"/>
	<path fill="#6A6A6A" d="M184.233,107.474c-0.112,0.261-0.223,0.523-0.335,0.784c-0.739-0.891-1.865-1.627-1.232-3.068
		c0.323,0.319,0.645,0.638,0.968,0.957C183.833,106.589,184.033,107.032,184.233,107.474z"/>
	<path fill="#6A6A6A" d="M189.233,100.432c-0.407,0.291-0.399,1.045-1.111,0.995c-0.017-0.754-0.865-1.339-0.443-2.183
		C188.703,98.978,188.96,99.716,189.233,100.432z"/>
	<path fill="#9C9C9C" d="M181.344,122.974c-0.011-0.942,0.841-0.714,1.329-0.979c0.368,0.058,0.736,0.116,1.104,0.175
		C183.126,122.922,182.471,123.664,181.344,122.974z"/>
	<path fill="#3B3B3B" d="M57.628,25.682c0.258-0.033,0.515-0.066,0.773-0.099c-0.014,1.022-0.351,1.774-1.525,1.828
		c0.071-0.391,0.142-0.782,0.213-1.173C57.269,26.052,57.449,25.867,57.628,25.682z"/>
	<path fill="#9C9C9C" d="M171.3,132.928c-0.745-0.191-0.824-0.858-1.027-1.436c0.169-0.134,0.338-0.269,0.507-0.403
		c0.869,0.247,0.965,0.958,1.015,1.696C171.629,132.833,171.465,132.88,171.3,132.928z"/>
	<path fill="#6A6A6A" d="M172.991,124.29c0.023,0.211,0.045,0.423,0.068,0.634c-0.475,0.304-0.95,0.607-1.425,0.911
		c-0.466,0.012-0.932,0.025-1.398,0.037C170.7,124.554,171.78,124.308,172.991,124.29z"/>
	<path fill="#A8A8A8" d="M25.728,76.885c-0.334,0.949-0.279,2.027-0.947,2.866C24.218,78.505,24.488,77.535,25.728,76.885z"/>
	<path fill="#A8A8A8" d="M28.733,75.742c-0.806,0.895-1.998,0.772-3.004,1.141C26.358,75.524,27.497,75.505,28.733,75.742z"/>
	<path fill="#9C9C9C" d="M183.993,120.901c-0.023-0.218-0.046-0.437-0.069-0.655c0.104-0.258,0.207-0.517,0.311-0.775
		c0.962,0.892,1.523,1.766-0.118,2.538C184.076,121.64,184.035,121.271,183.993,120.901z"/>
	<path fill="#9C9C9C" d="M160.912,47.75c-0.53,0.168-0.712-0.264-0.97-0.564c-0.092-0.675-0.183-1.35-0.275-2.025
		C160.87,45.645,161.081,46.606,160.912,47.75z"/>
	<path fill="#6A6A6A" d="M184.235,119.471c-0.104,0.258-0.207,0.516-0.311,0.775c-1.015-0.406-1.146-1.249-1.08-2.189
		c0.263,0.029,0.525,0.058,0.787,0.088C183.833,118.587,184.034,119.029,184.235,119.471z"/>
	<path fill="#9C9C9C" d="M169.866,148.966c-0.989-0.441-0.465-1.468-0.832-2.151c-0.001,0,0.052-0.057,0.053-0.055
		c0.358,0.059,0.715,0.115,1.072,0.172C170.062,147.61,169.964,148.288,169.866,148.966z"/>
	<path fill="#3B3B3B" d="M159.667,45.161c0.092,0.675,0.184,1.35,0.275,2.025c-0.707-0.504-1.644-0.926-0.727-2.016
		C159.366,45.167,159.517,45.164,159.667,45.161z"/>
	<path fill="#6A6A6A" d="M170.78,131.089c-0.169,0.134-0.338,0.269-0.507,0.403c-0.705-0.201-1.306-0.456-0.698-1.341
		c0.24,0.033,0.48,0.066,0.72,0.098C170.456,130.529,170.618,130.809,170.78,131.089z"/>
	<path fill="#636363" d="M32.632,72.211c-0.138-0.24-0.277-0.48-0.415-0.719c0.084-0.279,0.169-0.559,0.253-0.838
		c0.265-0.203,0.531-0.405,0.796-0.608c0.088,0.074,0.177,0.147,0.266,0.221C33.321,70.956,33.418,71.788,32.632,72.211z"/>
	<path fill="#9C9C9C" d="M159.612,155.609c0.553-0.364,1.051-0.377,1.455,0.225C160.459,156.557,159.951,156.63,159.612,155.609z"/>
	<path fill="#6A6A6A" d="M171.347,145.708c0.005-1.257,0.616-1.248,1.481-0.709C172.554,145.695,172.039,145.887,171.347,145.708z"
		/>
	<path fill="#3B3B3B" d="M138.971,18.349c0.343-0.032,0.685-0.064,1.028-0.097c0.249,0.288,0.636,0.51,0.485,0.994
		C139.708,19.404,139.095,19.288,138.971,18.349z"/>
	<path fill="#6A6A6A" d="M171.3,132.928c0.165-0.047,0.329-0.095,0.495-0.142c0.368,0.316,0.729,0.635,0.603,1.199
		C171.243,134.452,171.254,133.708,171.3,132.928z"/>
	<path fill="#3B3B3B" d="M31.47,63.578c0.192-0.601,0.051-1.429,1.021-1.499c-0.095,0.502,0.095,1.127-0.59,1.376
		C31.757,63.496,31.613,63.537,31.47,63.578z"/>
	<path fill="#A8A8A8" d="M34.076,67.161c1.112,0.661,0.716,1.141-0.187,1.56C33.951,68.201,34.013,67.681,34.076,67.161z"/>
	<path fill="#A8A8A8" d="M33.266,70.046c-0.265,0.203-0.531,0.405-0.796,0.608c-0.043-0.709-0.001-1.365,0.923-1.464
		C33.351,69.475,33.309,69.76,33.266,70.046z"/>
	<path fill="#6A6A6A" d="M183.993,120.901c0.041,0.369,0.083,0.739,0.124,1.108c-0.099,0.086-0.212,0.139-0.341,0.16
		c-0.368-0.058-0.735-0.116-1.103-0.174C182.943,121.426,183.346,121.016,183.993,120.901z"/>
	<path fill="#9C9C9C" d="M175.971,143.623c-0.016-0.45,0.11-0.821,0.565-1.007C176.94,143.284,176.539,143.5,175.971,143.623z"/>
	<path fill="#6A6A6A" d="M170.16,146.932c-0.357-0.057-0.714-0.114-1.072-0.172c0.247-0.771,0.693-0.905,1.332-0.416
		C170.333,146.54,170.247,146.736,170.16,146.932z"/>
	<path fill="#6A6A6A" d="M177.355,124.349c0.083-0.93,0.548-0.98,1.229-0.533C178.393,124.498,177.989,124.689,177.355,124.349z"/>
	<path fill="#636363" d="M26.617,154.632c-0.172,0.009-0.343,0.017-0.515,0.026c-0.261-0.352-0.475-0.707-0.083-1.107
		C26.623,153.688,26.673,154.131,26.617,154.632z"/>
	<path fill="#A8A8A8" d="M32.139,64.202c0.685,0.082,1.007,0.423,0.804,1.135C32.094,65.369,31.935,64.914,32.139,64.202z"/>
	<path fill="#433214" d="M53.045,75.939c-0.201,5.538-1.12,10.886-3.806,15.845c-1.722,3.18-2.802,6.553-2.95,10.251
		c-0.126,3.131,1.017,5.67,3.095,7.756c3.031,3.042,5.165,6.431,5.399,10.829c0.207,3.889,1.83,7.383,3.111,10.971
		c-0.43,0.178-0.895,0.299-1.284,0.543c-2.513,1.576-2.517,1.644,0.078,3.177c0.572,0.338,0.94,0.781,1.318,1.313
		c1.528,2.157,1.545,4.425,0.648,6.785c-0.367,0.964-0.344,1.985,0.819,1.989c3.232,0.009,3.464,1.953,3.229,4.411
		c-0.054,0.565-0.335,1.401,0.455,1.671c0.589,0.201,0.918-0.491,1.34-0.823c2.16-1.698,4.386-1.053,5.437,1.506
		c0.72,1.754,1.438,3.53,2.882,4.864c-1.616,4.329-4.014,4.759-9.17,3.204c-1.888-0.569-2.97-0.584-3.884,1.151
		c-0.147,0.278-0.366,0.522-0.572,0.765c-2.039,2.4-2.037,2.397-3.926-0.156c-0.663-0.895-1.381-1.751-2.008-2.67
		c-0.401-0.587-0.618-1.503-1.399-1.498c-0.895,0.006-0.371,1.276-1.044,1.663c-0.86-5.231-0.864-5.24-5.565-3.102
		c-0.746,0.339-1.408,0.658-2.244,0.188c-3.54-1.987-7.288-2.066-11.043-0.853c-1.489,0.481-2.156-0.037-2.472-1.285
		c-0.907-3.592-2.925-6.271-6.227-7.986c-1.154-0.6-0.875-1.23-0.066-2.019c2.038-1.986,2.152-3.253,0.399-5.187
		c-1.292-1.425-1.793-2.764-0.778-4.622c1.861-3.406-0.049-6.609-1.688-9.134c-0.979-1.509-3.342-2.978-5.71-3.433
		c-0.675-0.13-1.84-0.211-1.931-1.087c-0.092-0.881,1.025-1.197,1.665-1.502c2.135-1.018,2.8-2.4,1.522-4.491
		c-0.745-1.218-0.224-1.804,0.904-2.394c3.377-1.767,3.244-1.769,1.982-5.393c-0.834-2.396-0.611-4.806,1.168-6.851
		c0.315-0.361,0.79-0.662,0.936-1.079c1.218-3.496,3.895-5.502,7.024-7.106c1.403-0.72,0.662-1.755,0.204-2.659
		c-1.202-2.373-2.23-4.659-1.386-7.527c0.517-1.758,1.348-2.792,2.966-3.374c1.201-0.431,2.399-0.871,3.585-1.34
		c0.788-0.311,1.363-0.783,1.287-1.775c-0.206-2.664,0.667-4.853,3.059-6.208c1.495-0.847,0.835-1.622,0.213-2.636
		c-0.754-1.229-2.969-1.934-2.336-3.426c0.437-1.029,2.363-1.443,3.643-2.094c1.832-0.931,2.031-2.877,2.942-4.413
		c2.12-3.577,1.001-6.415-0.977-9.625c-3.354-5.441-3.035-3.805,2.408-4.659c4.815-0.755,4.96-0.447,4.874-5.378
		c-0.036-2.085,0.728-2.767,2.723-2.944c2.353-0.209,4.672-0.814,7.405-1.321c-1.646-1.521-1.022-2.638-0.172-3.999
		c2.068-3.311,4.203-6.238,8.375-7.306c2.108-0.54,2.95-3.25,4.848-4.483c0.525-0.341,0.887-1.043,1.574-1.008
		c3.23,0.165,5.013-2.074,6.94-4.085c1.645-1.717,3.392-2.554,5.918-1.695c2.473,0.841,5.121,1.166,7.58,2.132
		c1.023,0.402,2.015,0.245,3.04-0.078c4.585-1.443,9.022-0.725,13.226,1.299c1.736,0.836,2.952,0.926,4.53-0.338
		c1.455-1.166,3.154-1.857,5.287-1.064c7.148,2.656,13.795,6.198,20.098,10.476c1.61,1.093,2.768,2.439,3.525,4.08
		c1.51,3.274,4.089,4.964,7.507,5.474c1.068,0.159,1.639,0.703,1.845,1.58c0.496,2.121,1.269,4.156,0.182,6.456
		c-1.431,3.027-0.723,4.595,2.208,6.17c0.567,0.305,1.16,0.557,1.423,1.209c1.654,4.097,5.225,6.085,8.842,8.008
		c4.1,2.179,4.708,3.42,4.157,7.966c-0.154,1.27-0.842,1.379-1.785,1.331c-1.596-0.081-2.284,0.514-1.68,2.147
		c0.053,0.144,0.066,0.327,0.03,0.475c-1.235,5.154,0.064,10.212,0.484,15.314c0.18,2.185,0.561,3.878,2.898,4.597
		c1.358,0.418,2.438,1.295,2.782,2.744c0.895,3.772,3.665,5.366,7.087,6.219c0.849,0.212,1.652,0.353,2.357,1.017
		c2.204,2.076,2.167,2.381-0.568,3.389c-2.607,0.961-4.964,2.557-7.757,3.058c-0.4,0.072-0.779,0.347-0.732,0.802
		c0.054,0.525,0.547,0.496,0.933,0.499c0.799,0.005,1.6,0.006,2.397-0.047c1.038-0.069,2.328-1.167,3.033,0.166
		c0.785,1.486,1.807,3.058,1.208,4.934c-0.194,0.607-0.401,1.219-0.687,1.786c-1.088,2.161-1.649,4.294-0.038,6.48
		c0.677,0.919,0.39,1.528-0.668,2.001c-1.636,0.733-3.301,1.277-5.095,1.029c-3.366-0.466-5.692,1.42-7.023,3.948
		c-1.275,2.422-0.886,5.194,0.861,7.673c1.593,2.261,3.488,4.347,4.374,7.09c0.353,1.092,0.187,1.585-0.784,2.075
		c-1.781,0.899-3.466,2.001-5.284,2.811c-1.592,0.71-1.718,1.535-0.876,2.938c0.899,1.498,1.607,3.11,2.405,4.669
		c0.202,0.395,0.76,0.781,0.266,1.218c-0.23,0.203-0.76,0.167-1.129,0.099c-2.736-0.508-5.465-1.054-8.197-1.581
		c-1.25-0.241-2.501-0.475-3.755-0.691c-4.243-0.732-7.6,0.638-10.173,4.124c-0.494,0.669-1.06,1.874-2.253,1.349
		c-1.599-0.704-3.236-1.444-4.603-2.498c-0.63-0.486,0.174-1.432,0.747-2.007c0.364-0.14,0.839-0.178,1.073-0.436
		c1.297-1.427,2.567-2.472,4.763-1.649c1.098,0.411,1.343-0.781,1.385-1.714c0.71-0.866,1.182-1.848,1.433-2.938
		c0.722-0.891,1.162-2.076,2.959-2.177c-2.288-0.847-2.288-0.847-3.969,2.154c-0.733,1.31-1.808,0.8-2.837,0.532
		c-2.3-1.418-2.935,0.528-3.851,1.907c-0.563,0.917-1.368,1.71-1.473,2.864c-0.656,0.588-1.266,0.527-1.311-0.393
		c-0.12-2.459-1.302-4.763-1.01-7.27c0.609-0.289,0.899-0.782,0.918-1.446c0.962-0.977,1.196-1.728-0.298-2.564
		c-4.276-2.394-4.316-2.479-2.117-6.964c0.865-1.764,1.26-3.401,1.097-5.426c-0.159-1.98-0.842-2.342-2.6-2.351
		c-2.349-0.012-4.771,0.549-7.028-0.824c-1.055-0.642-2.022-1.258-2.577-2.371c-1.581-3.172-4.053-4.623-7.671-4.545
		c-3.229,0.069-4.168-1.001-4.254-4.202c-0.041-1.526-0.898-2.565-1.851-3.484c-1.334-1.286-2.025-2.83-2.456-4.563
		c-0.956-3.846-2.612-7.504-2.577-11.618c0.014-1.594-0.922-3.188-1.799-4.63c0.532-1.218,1.113-2.399,2.312-3.123
		c0.894-0.011,1.689-0.443,1.816-1.258c0.129-0.83-0.941-0.624-1.42-0.976c-0.895-0.658-1.888-1.188-2.741-1.893
		c-0.977-0.807-2.032-1.319-3.283-1.111c-1.84,0.307-2.628-0.579-2.88-2.252c-0.13-0.86-0.32-1.711-0.482-2.566
		c1.59-1.731,1.868-3.544,0.565-5.618c-1.525-2.428-2.542-5.102-3.43-7.821c1.105-1.623,2.216-3.244,2.359-5.295
		c0.817-0.681,1.171-1.466,0.658-2.512c-0.735-1.501-1.427-3.022-2.155-4.527c-1.485-3.072-3.902-5.389-6.234-7.792
		c-0.905-0.933-1.999-2.047-0.268-3.324c1.782-1.315,2.364-2.702,0.267-4.34c-0.432-0.337-0.629-1.122-0.714-1.732
		c-0.423-3.025-0.639-6.148-4.729-6.519c-0.233-0.021-0.608-0.39-0.622-0.615c-0.097-1.545-1.42-1.354-2.311-1.564
		c-1.677-0.396-3.059,0.615-4.498,1.267c-2.289-0.007-4.453,1.024-5.621,2.617c-1.139,1.554-3.401,1.204-3.994,3.031
		c-0.481,1.482-1.356,1.739-2.751,1.384c-1.74-0.443-1.589,0.729-1.379,1.833c0.111,0.584,1.047,0.766,0.877,1.342
		c-3.506,1.08-5.317,4.092-7.894,6.081c-0.148,0.114-0.256,0.476-0.188,0.645c1.238,3.08-1.048,4.158-2.961,5.658
		c-1.263,0.99-3.192,2.154-2.218,4.237c2.75,5.883,1.641,11.997,1.265,18.051C50.137,72.465,50.936,74.736,53.045,75.939z
		 M129.871,48.073c-0.027-0.057-0.043-0.124-0.084-0.169c-0.025-0.027-0.087-0.021-0.133-0.03c0.071,0.067,0.141,0.135,0.212,0.202
		c0.153,0.166,0.306,0.332,0.458,0.498c0.153,0.166,0.306,0.333,0.459,0.499c0.073,0.578,0.273,1.074,0.908,1.213
		c0.275,0.06,0.468-0.115,0.401-0.399c-0.15-0.634-0.661-0.814-1.232-0.892c-0.165-0.155-0.33-0.309-0.496-0.463
		C130.201,48.38,130.036,48.227,129.871,48.073z M162.978,121.019c0.174-0.169,0.634-0.252,0.181-0.607
		c-0.054,0.208-0.108,0.417-0.163,0.625c-0.041,0.062-0.082,0.124-0.123,0.186C162.908,121.155,162.943,121.087,162.978,121.019z
		 M170.663,99.546c0.95,1.32,1.537,0.538,2.798-0.453c-1.385-0.077-2.084-0.116-2.783-0.155c-1.492-1.121-2.035-2.294-1.713-4.419
		c0.275-1.817-0.326-4.132-2.28-5.831c-0.287,1.32,0.364,2.047,0.474,2.877c0.156,1.177,0.872,2.275,0.583,3.505
		C167.147,97.601,167.892,98.769,170.663,99.546z M115.932,44.218c1.233-0.577,2.427-1.48,3.85-0.457
		c2.326,1.618,3.544,3.757,4.029,6.637c0.292,1.736,0.94,3.982,2.817,4.75c1.656,0.677,1.838,1.618,1.867,3.093
		c0.026,1.346-0.424,2.469-0.901,3.661c-0.219,0.547-0.97,1.658-0.048,1.856c2.054,0.439,1.599,2.075,2.061,3.325
		c0.295,0.798-0.017,1.969,0.926,2.361c2.035,0.846,2.021,2.619,2.24,4.342c0.763,6.015,3.584,9.241,9.505,10.835
		c1.246,0.335,1.569,0.954,1.353,2.274c-0.26,1.591-1.513,3.236-0.438,4.82c1.198,1.764,1.501,3.717,1.483,5.678
		c-0.022,2.452,1.465,3.276,3.468,4.224c-0.206-1.598-1.49-2.222-1.677-3.484c-0.599-4.036-2.775-7.82-1.765-12.119
		c0.529-2.251-0.446-3.087-2.809-2.923c-2.96,0.206-5.189-1.738-5.995-4.641c-0.98-3.528-1.947-7.052-4.034-10.167
		c-1.219-1.82-1.085-4.31-2.828-5.952c-0.403-0.38,0.167-0.967,0.44-1.466c0.983-1.802,0.477-5.309-0.713-6.052
		c-2.494-1.557-4.229-4.139-4.41-6.704c-0.217-3.078-1.568-4.194-4.056-4.876c-1.877-2.463-3.327-0.612-4.852,0.481
		c-2.669,0.33-4.647-0.893-5.987-3.019c-1.115-1.769-2.495-2.542-4.53-2.185c-0.723,0.088-1.556-0.352-2.202,0.443
		c0.637,0.812,1.476,0.362,2.197,0.462c2.107-0.319,3.112,0.855,3.965,2.606C110.477,45.276,113.185,46.044,115.932,44.218z
		 M149.995,81.68c1.464,4.477,0.626,4.373,5.159,3.257c1.999-0.492,2.682,0.403,3.32,2.011c1.424,3.589,1.48,3.566,5.105,2.109
		c0.221-0.089,0.478-0.105,0.677-0.225c0.533-0.323,1.67-0.186,1.32-1.233c-0.271-0.813-1.051-0.398-1.656-0.244
		c-2.297,0.587-4.198,0.583-5.322-2.167c-0.561-1.372-2.425-1.802-3.751-1.416c-2.214,0.644-3.464,0.215-3.911-2.095
		c-1.068-1.708-3.749-1.89-4.055-4.339c-0.203-1.629-1.435-2.184-2.872-2.494C146.144,77.014,146.441,80.76,149.995,81.68z
		 M38.706,132.513c-0.082-0.068-0.163-0.136-0.245-0.203c0.063,0.087,0.125,0.174,0.188,0.261c0.046,1.119-0.006,2.205-0.333,3.31
		c-0.609,2.059,0.875,3.826,0.993,5.819c0.061,1.024,1.243,0.747,1.905,1.092c1.042,0.543,0.467,1.03-0.248,1.218
		c-1.632,0.428-1.993,1.956-2.805,3.088c-0.274,0.382-0.425,0.803,0.045,1.267c1.299,1.283,3.987,1.201,5.635-0.456
		c-1.1,0-1.965,0.031-2.827-0.012c-0.529-0.026-1.22,0.24-1.541-0.335c-0.36-0.646,0.421-0.921,0.661-1.381
		c0.959-1.839,2.995-1.76,4.838-2.508c-1.141-1.025-2.084-1.821-3.399-2.012c-0.531-0.077-1.334,0.091-1.333-0.657
		c0.004-2.157-1.854-4.151-0.447-6.448C40.432,133.515,39.975,132.714,38.706,132.513z M36.799,110.028
		c0.672-0.195,1.566-0.248,1.656-1.089c0.079-0.743-0.783-0.963-1.308-1.218c-2.306-1.116-2.548-3.057-2.239-5.252
		c0.096-0.685,0.543-1.316,0.108-2.067c-0.572-0.989-1.903-2.017-1.228-3.089c0.551-0.876,1.972-1.244,3.055-1.734
		c1.201-0.544,2.085-1.44,2.98-2.349c0.465-0.472,0.905-1.006,0.732-1.678c-0.594-2.297-0.187-4.792-1.38-6.966
		c-1.015-1.85-1.071-3.331,0.686-5.038c1.07-1.039,2.988-2.06,2.367-4.278c-0.828-2.955-0.897-5.948-0.207-8.948
		c0.868-1.717,0.419-3.516,0.243-5.324c-0.794,1.683-1.242,3.439-1.183,5.317c-0.605,2.942-1.548,5.868-0.167,8.859
		c0.367,0.794-0.189,1.37-0.73,1.862c-2.425,2.208-3.673,4.694-2.006,7.943c0.213,0.415,0.338,0.911,0.366,1.377
		c0.169,2.868,1.631,5.998-1.8,8.131c-0.897,0.557-1.786,1.048-2.784,1.299c-1.577,0.397-1.839,1.206-1.109,2.609
		c0.735,1.413,1.045,2.819,0.711,4.555c-0.357,1.853,0.147,3.866,2.194,4.832c1.039,0.49,1.052,1.269,0.957,2.175
		c-1.207,3.868,0.262,8.093-1.614,11.918c-0.257,0.523,0.496,1.636,0.936,2.384c0.639,1.085,0.514,2.016,0.012,3.139
		c-0.979,2.188-0.542,2.94,2.244,3.858c-1.973-1.478-1.586-3.197-0.843-4.951c0.317-0.747,0.031-1.569-0.281-2.071
		c-1.639-2.634,0.03-5.351-0.075-7.991C37.009,114.219,37.1,112.103,36.799,110.028z M159.63,124.267
		c-0.751,0.339-0.834,0.836-0.949,1.283c-1.708,6.647-3.056,5.44-6.766,1.468c-0.637-0.682-2.008-1.321-1.683-2.154
		c1.095-2.81-0.167-5.262-0.812-7.788c-0.785-3.077-2.32-3.863-5.593-3.351c-1.128,0.177-2.658,0.679-3.182-0.743
		c-0.461-1.251-0.78-2.838,0.813-3.852c0.844-0.537,1.016-1.395,0.876-2.323c-0.333-2.215-0.67-4.487-2.405-6.087
		c-1.265-1.165-1.608-2.471-1.42-4.073c0.244-2.086-0.809-3.65-2.227-5.115c1.096,2.42,0.597,4.965,0.89,7.427
		c0.056,0.472,0.595,0.917,0.972,1.316c3.23,3.419,3.51,5.357,1.232,9.546c-0.846,1.555-0.424,3.077,0.374,4.298
		c0.622,0.951,1.908,1.097,3.23,0.894c2.081-0.319,3.754,0.464,5.013,2.341c1.543,2.301,1.246,4.693,0.763,7.117
		c-0.286,1.438-0.275,2.505,1.438,2.939c1.396,0.354,2.041,1.41,2.25,2.798c0.149,0.992,0.462,1.997,1.741,1.83
		c1.334-0.174,3.05,0.807,3.927-0.868C159.211,129.073,159.579,126.766,159.63,124.267z M26.681,97.558
		c-2.895,3.082-2.922,3.518-0.423,6.436c0.547,0.639,0.765,1.295,0.929,2.116c0.568,2.847-1.366,3.618-3.399,4.275
		c-1.93,0.624-1.673,2.264-1.914,3.708c-0.218,1.298,0.187,2.112,1.551,2.464c0.925,0.239,1.837,1.104,1.225,1.922
		c-1.449,1.937-0.284,3.44,0.443,5.035c0.385,0.846,0.425,1.585,0.227,2.507c-0.803,3.731-0.033,7.551-0.49,11.318
		c-0.081,0.667,0.379,1.399,0.614,2.181c0.945-0.671,0.857-1.458,0.729-2.12c-0.719-3.71,0.495-7.385,0.127-11.119
		c-0.154-1.559,0.065-3.122-0.72-4.578c-0.353-0.656-0.659-1.49-0.088-2.025c2.005-1.88,0.395-2.719-0.975-3.55
		c-1.375-0.834-1.17-2.106-1.232-3.38c-0.069-1.425,1.072-1.388,1.901-1.708c3.616-1.393,4.42-3.864,2.266-7.094
		c-0.264-0.395-0.598-0.753-0.944-1.081c-0.864-0.82-0.98-1.77-0.605-2.852C26.183,99.202,26.422,98.377,26.681,97.558z
		 M148.884,102.051c1.597,0.94,3.197,1.724,4.921,0.749c0.837-0.473,1.507-0.388,2.089,0.363c1.4,1.808,3.465,2.454,5.499,3.156
		c0.834,0.288,1.518,0.554,1.719,1.676c0.3,1.673-0.053,4.153,3.043,3.512c0.075-0.015,0.32,0.325,0.321,0.499
		c0.002,1.089,0.605,0.793,1.038,0.392c0.673-0.624,2.049-0.597,2.048-1.763c0-0.877-0.948-0.629-1.538-0.651
		c-1.245-0.046-2.681,0.319-3.057-1.47c-0.437-2.076-1.865-2.981-3.777-3.522c-1.831-0.518-3.707-1.075-4.484-3.174
		c-0.29-0.783-0.988-0.992-1.779-0.852C152.91,101.323,150.897,101.688,148.884,102.051z M172.075,108.955
		c-1.253,0.535-1.437,1.535-1.39,2.564c0.1,2.172-1.137,3.724-2.336,5.302c-0.34,0.447-0.785,0.879-1.4,0.724
		c-0.72-0.181-0.526-0.866-0.616-1.39c-0.133-0.779-0.295-1.553-0.442-2.33c-0.058-0.307-0.078-0.659-0.476-0.708
		c-0.484-0.06-0.82,0.3-0.84,0.669c-0.089,1.66-0.126,3.326-0.11,4.989c0.007,0.763,0.665,0.856,1.224,0.771
		c1.638-0.248,3.072-0.666,4.374-2.008C172.581,114.942,170.094,111.521,172.075,108.955z M132.817,51.001
		c4.412,1.885,8.281,4.3,9.614,9.37C142.406,54.647,138.983,51.277,132.817,51.001z M164.433,138.555
		c-0.943,2.76-0.978,5.599-4.619,5.696c1.281,0.863,2.362,1.217,3.313,0.315C164.692,143.081,165.462,141.293,164.433,138.555z
		 M152.938,144.914c0.05-0.036,0.1-0.073,0.151-0.109c-0.042-0.045-0.084-0.09-0.126-0.135c-0.064,0.06-0.128,0.121-0.192,0.181
		C152.827,144.872,152.882,144.893,152.938,144.914z M151.62,144.367c-0.012-0.053-0.007-0.131-0.04-0.154
		c-0.05-0.034-0.126-0.03-0.191-0.042c0.018,0.088,0.036,0.176,0.054,0.265C151.502,144.412,151.561,144.389,151.62,144.367z
		 M135.884,90.135c-0.01,0.121-0.02,0.243-0.029,0.364c0.044-0.057,0.12-0.111,0.124-0.17
		C135.983,90.267,135.919,90.2,135.884,90.135z"/>
	<path fill="#EBC29D" d="M105.262,85.489c-1.199,0.724-1.78,1.905-2.312,3.123c-0.377,0.469-1.204,0.794-0.869,1.539
		c2.465,5.49,2.085,11.748,4.679,17.205c0.443,0.932,0.671,1.955,1.451,2.712c1.683,1.633,2.767,3.465,2.065,5.955
		c-0.243,0.861,0.073,1.502,1.03,1.84c1.652,0.583,3.218,1.395,5.07,1.194c2.613-0.284,4.554,1.022,5.704,3.158
		c2.014,3.739,4.989,5.33,9.17,5.06c1.111-0.072,2.758-0.654,3.294,0.512c0.658,1.432,0.265,3.054-0.845,4.464
		c-2.917,3.704-6.461,6.61-10.616,8.794c-5.093,2.678-10.162,5.363-14.319,9.485c-1.771,1.756-4.218,2.251-6.613,2.5
		c-3.105,0.322-6.231,0.269-9.344-0.006c-3.812-0.337-7.108-1.651-9.514-4.838c-1.371-1.816-3.327-2.968-5.325-4.006
		c-4.854-2.52-9.255-5.674-13.219-9.437c-4.076-3.868-6.984-8.361-7.057-14.188c-0.054-4.324-1.522-7.866-4.814-10.766
		c-3.773-3.325-4.451-7.458-2.921-12.211c1.078-3.35,3.178-6.283,3.8-9.793c0.413-0.349,0.663-0.764,0.544-1.331
		c0.049-0.319,0.098-0.638,0.147-0.958c0.332-0.44,0.409-0.923,0.246-1.447c0.45-2.705,0.386-5.408-0.034-8.11
		c0.074-4.169,0.364-8.34-0.158-12.501c-0.028-4.029-0.169-8.067,0.99-11.997c1.735-4.123,3.901-7.963,7.111-11.155
		c0.966-0.961,1.817-1.472,3.008-0.347c1.25,1.18,2.75,1.435,4.42,1.03c1.193-0.29,2.318-0.008,3.474,0.455
		c1.301,0.522,2.61,1.186,4.096,1.059c0.627,0.224,1.244,0.186,1.852-0.074c0.807,0.179,1.609,0.177,2.406-0.055
		c0.649,0.237,1.294,0.287,1.932-0.035c2.416-0.383,3.461,1.64,4.884,2.888c3.505,3.071,5.766,6.925,6.751,11.501
		c-1.009,1.672-1.807,3.441-2.439,5.286c-0.619,0.747-0.581,1.513-0.29,2.424c0.675,2.108,1.421,4.176,2.656,6.023
		c1.07,1.601,1.485,3.225,0.469,5.004c-1.573,2.178,0.017,4.129,0.6,6.053c0.514,1.698,2.191,0.582,3.335,0.707
		c0.828,0.091,1.539,0.285,2.167,0.812c-0.289,0.803-0.537,1.612-0.374,2.483c-0.147,0.411-0.577,1.008,0.087,1.156
		c0.776,0.172,0.759-0.576,0.78-1.13c0.401-0.559-0.402-1.459,0.529-1.867C103.72,84.269,104.491,84.879,105.262,85.489z
		 M84.206,133.116l-0.028-0.024c0.008,0.316,0.153,0.505,0.482,0.525l-0.01,0.031c2.627,6.047,4.81,7.674,10.124,7.546
		c-0.27,0.706-1.441,0.741-1.314,1.985c2.32-0.394,4.592,0.062,7.076,0.368c-0.655-1.551-2.031-1.687-3.068-2.285
		c1.181-0.789,2.6-0.741,3.896-0.898c3.811-0.461,5.545-2.92,6.554-6.23l-0.009-0.034c0.337-0.066,0.399-0.324,0.423-0.607
		c0.739-0.934,1.424-1.918,2.228-2.792c2.749-2.986,2.765-2.971,6.76-2.097c-1.439-1.532-2.034-3.628-4.342-3.068
		c-3.308,0.804-6.631,0.946-9.995,0.792c-3.674-0.74-7.346-0.685-11.017,0.025c-4.756,0.751-9.555,0.957-14.356,1.126
		c-1.861-0.744-3.075,0.292-4.426,1.552c1.733,0.671,2.981-0.731,4.433-0.569c2.388,0.835,4.41,2.224,6.132,4.064
		C83.785,132.814,83.864,133.067,84.206,133.116z M66.044,90.165c3.539-1.046,6.873-0.747,9.997,1.375
		c2.457,1.668,5.521,2.307,7.689,4.482c-1.097,0.343-1.999-0.372-2.997-0.566c-3.542-0.687-6.988-0.617-10.086,1.47
		c-0.769,0.518-1.93,1.345-1.169,2.471c0.709,1.05,1.972,1.295,3.219,0.699c0.428-0.204,0.813-0.498,1.228-0.732
		c2.102-1.184,4.485-0.939,6.747-1.22c1.21-0.15,1.845,1.018,2.517,1.932c0.472,0.642,1.122,0.459,1.637-0.079
		c1.11-1.161,1.203-2.314-0.057-3.439c0.669-0.153,1.717,0.062,1.813-0.783c0.107-0.951-0.514-1.838-1.384-2.358
		c-2.253-1.346-4.505-2.696-6.806-3.957c-4.103-2.248-8.254-2.761-12.413-0.103c-0.684,0.144-1.386,0.262-1.755,1.015
		C65.036,90.942,65.492,90.277,66.044,90.165z M103.923,109.475c0.867-1.719,0.607-3.451,0.245-5.195
		c-0.581-2.799-2.292-5.072-3.526-7.563c-1.31-2.646-1.374-5.169,0.205-7.725c0.419-0.678,1.245-1.302,0.763-2.329
		c-1.024-0.098-1.375,0.693-1.812,1.313c-2.07,2.938-2.273,6.02-0.764,9.28C100.863,101.209,103.283,104.942,103.923,109.475z
		 M87.929,118.642c6.285,3.204,12.643,4.955,18.808-0.387c-1.146,0.025-2.42-2.802-3.409,0.341
		c-0.036,0.114-0.265,0.162-0.397,0.251c-2.931,1.967-5.817,2.683-9.08,0.468c-1.683-1.142-3.618-3.054-5.88-0.732
		C87.919,118.637,87.886,118.708,87.929,118.642z"/>
	<path fill="#241C0C" d="M135.64,143.591c-1.286,2.6,0.372,4.98,0.722,7.417c0.295,2.055-0.218,3.202-1.481,4.786
		c-2.443,3.064-5.565,3.923-9.126,4.057c-1.306,0.049-2.487,0.47-3.713,0.809c-1.591,0.441-3.142,0.928-4.886,0.3
		c-1.801-0.647-3.432,0.25-4.879,1.291c-2.642,1.902-5.483,1.211-7.919,0.045c-3.136-1.502-6.082-3.431-9.312-4.789
		c-0.458-0.193-1.026-0.385-0.924-0.912c0.145-0.751,0.888-0.487,1.403-0.516c3.017-0.168,6.032,0.144,9.063-0.272
		c3.582-0.492,6.107-2.716,8.516-4.957c3.805-3.541,8.445-5.642,12.842-8.181c0.828-0.478,1.725-0.84,2.53-1.35
		c3.44-2.18,4.787-2.056,8.115,0.829C136.274,142.629,135.957,143.11,135.64,143.591z"/>
	<path fill="#241C0C" d="M79.456,42.409c-0.608,0.259-1.225,0.298-1.852,0.073c-0.886-2.036-3.101-2.232-4.597-2.259
		c-3.489-0.064-6.27-1.139-8.629-3.606c-0.442-0.462-1.155-0.654-1.155,0.257c0,2.119-1.854,2.843-2.888,4.179
		c-2.322,3-4.733,5.95-5.339,9.877c-1.498,2.673-1.881,5.606-1.907,8.594c-0.049,5.471-0.032,10.943-0.043,16.415
		c-2.109-1.203-2.908-3.473-2.75-6.018c0.376-6.054,1.485-12.169-1.265-18.051c-0.974-2.083,0.956-3.247,2.218-4.237
		c1.913-1.5,4.199-2.578,2.961-5.658c-0.068-0.169,0.04-0.531,0.188-0.645c2.577-1.989,4.387-5,7.894-6.081
		c0.17-0.576-0.766-0.758-0.877-1.342c-0.21-1.103-0.362-2.276,1.379-1.833c1.395,0.355,2.27,0.098,2.751-1.384
		c0.593-1.828,2.855-1.477,3.994-3.031c1.168-1.593,3.332-2.624,5.621-2.617c0.893,1.037,1.752-0.168,2.644-0.05
		c0.521,0.069,1.289-0.646,1.545-0.125c0.951,1.933,2.889,1.934,4.495,2.648c1.312,0.583,2.023,1.687,1.894,3.267
		c-0.083,1.017-0.335,2.584,0.194,2.992c2.425,1.874,0.38,3.241-0.267,4.771c-0.212,0.5-0.818,1.042-0.718,1.429
		c0.452,1.757-0.777,1.308-1.634,1.384c-0.479,0-0.959,0-1.438,0C80.999,41.551,79.709,40.788,79.456,42.409z"/>
	<path fill="#241C0C" d="M72.814,157.027c-1.444-1.334-2.162-3.11-2.882-4.864c-1.05-2.559-3.277-3.204-5.437-1.506
		c-0.422,0.331-0.75,1.024-1.34,0.823c-0.79-0.27-0.509-1.106-0.455-1.671c0.235-2.458,0.003-4.402-3.229-4.411
		c-1.163-0.003-1.186-1.024-0.819-1.989c0.898-2.36,0.881-4.629-0.648-6.785c-0.377-0.532-0.745-0.975-1.318-1.313
		c-2.595-1.533-2.592-1.601-0.078-3.177c0.389-0.244,0.854-0.365,1.284-0.543c4.633,6.63,11.201,10.961,18.057,14.842
		c3.03,1.715,5.67,3.665,7.818,6.406c0.81,1.034,1.018,1.752,0.448,2.952c-2.073,4.36-1.989,4.282-6.551,2.317
		C76.181,157.468,74.734,155.962,72.814,157.027z"/>
	<path fill="#1D1912" d="M54.996,50.93c0.605-3.927,3.017-6.877,5.339-9.877c1.034-1.336,2.888-2.06,2.888-4.179
		c0-0.911,0.713-0.72,1.155-0.257c2.359,2.468,5.14,3.543,8.629,3.606c1.496,0.027,3.711,0.224,4.597,2.259
		c-1.487,0.127-2.795-0.537-4.096-1.059c-1.155-0.463-2.28-0.745-3.474-0.455c-1.669,0.406-3.17,0.15-4.42-1.03
		c-1.192-1.125-2.042-0.614-3.008,0.347c-3.21,3.192-5.376,7.032-7.111,11.155C55.328,51.27,55.162,51.1,54.996,50.93z"/>
	<path fill="#241C0C" d="M139.958,148.399c0.916-1.378,1.551-3.324,3.851-1.907c0.094,1.516,1.413,1.815,2.415,2.429
		c-0.042,0.933-0.287,2.125-1.385,1.714c-2.196-0.823-3.466,0.222-4.763,1.649c-0.234,0.258-0.709,0.296-1.073,0.436
		c0.004-0.483,0.007-0.966,0.011-1.45C139.444,150.351,141.085,149.831,139.958,148.399z"/>
	<path fill="#1D1912" d="M54.505,63.437c0.523,4.161,0.232,8.332,0.158,12.501c-0.127-0.092-0.36-0.176-0.367-0.276
		C54.023,71.582,53.607,67.497,54.505,63.437z"/>
	<path fill="#3B3B3B" d="M39.158,39.926c2.142-0.882,4.572,0.098,6.676-1.032C44.582,40.571,42.076,40.959,39.158,39.926z"/>
	<path fill="#3B3B3B" d="M46.551,37.107c-0.011-1.541-0.737-3.154,0.467-4.571C47.141,34.088,47.944,35.71,46.551,37.107z"/>
	<path fill="#3B3B3B" d="M156.742,37.517c0.855,1.718-0.397,2.94-1.012,4.313C155.333,40.219,156.336,38.938,156.742,37.517z"/>
	<path fill="#3B3B3B" d="M101.465,8.955c1.324-0.174,2.659-0.533,3.927,0.233C104.043,9.781,102.71,10.118,101.465,8.955z"/>
	<path fill="#3B3B3B" d="M47.13,32.412c1.204-1.039,2.651-0.981,4.102-0.908C50.02,32.509,48.667,32.874,47.13,32.412z"/>
	<path fill="#3B3B3B" d="M39.162,58.158c0.459-1.24,0.714-2.571,1.596-3.625C41.278,56.204,40.651,57.371,39.162,58.158z"/>
	<path fill="#0D0B06" d="M139.958,148.399c1.127,1.432-0.514,1.952-0.945,2.871c-0.175-0.002-0.351-0.005-0.527-0.007
		C138.59,150.109,139.395,149.317,139.958,148.399z"/>
	<path fill="#6A6A6A" d="M185.156,102.582c-0.554,1.024-1.708,1.114-2.572,1.656C182.735,102.589,183.973,102.629,185.156,102.582z"
		/>
	<path fill="#3B3B3B" d="M130.332,13.546c1.168,0.315,2.342,0.621,3.072,1.72C132.083,15.224,130.902,14.931,130.332,13.546z"/>
	<path fill="#3B3B3B" d="M87.578,7.879c0.85-0.099,1.723-0.363,2.455,0.355C89.106,8.868,88.238,9.09,87.578,7.879z"/>
	<path fill="#3B3B3B" d="M156.137,33.911c0.836,0.807,0.542,1.778,0.396,2.727C155.349,35.882,155.839,34.883,156.137,33.911z"/>
	<path fill="#3B3B3B" d="M117.391,9.209c0.922-0.684,1.806-0.674,2.644,0.148C119.134,9.656,118.236,9.915,117.391,9.209z"/>
	<path fill="#3B3B3B" d="M41.197,53.407c-0.041-0.817-0.082-1.634-0.123-2.451C42.597,51.699,42.468,52.524,41.197,53.407z"/>
	<path fill="#3B3B3B" d="M37.393,44.974c-0.727-0.743-1.001-1.671-1.084-2.675C37.554,42.833,37.636,43.838,37.393,44.974z"/>
	<path fill="#3B3B3B" d="M169.621,79.765c0.692,0.591,0.566,1.286,0.255,2.006C169.066,81.194,169.059,80.516,169.621,79.765z"/>
	<path fill="#3B3B3B" d="M127.427,12.163c0.899-0.002,1.613,0.389,2.201,1.042C128.552,13.582,127.836,13.196,127.427,12.163z"/>
	<path fill="#3B3B3B" d="M62.449,20.968c0.51-0.796,1.187-1.269,2.181-1.133C64.255,20.892,63.483,21.183,62.449,20.968z"/>
	<path fill="#3B3B3B" d="M53.775,30.978c0.347-0.63,0.884-1.043,1.525-1.338C55.426,30.809,55.023,31.375,53.775,30.978z"/>
	<path fill="#1D1912" d="M54.697,84.048c0.162,0.524,0.085,1.007-0.246,1.447C53.855,84.898,53.881,84.406,54.697,84.048z"/>
	<path fill="#3B3B3B" d="M96.752,9.678c0.424-0.541,0.962-0.465,1.52-0.279C97.899,10.225,97.4,10.358,96.752,9.678z"/>
	<path fill="#3B3B3B" d="M106.271,9.399c0.556-0.188,1.092-0.264,1.52,0.268C107.147,10.36,106.648,10.227,106.271,9.399z"/>
	<path fill="#0D0B06" d="M135.64,143.591c0.317-0.481,0.634-0.962,0.951-1.443c0.164,0.002,0.327,0.004,0.491,0.006
		c-0.019,0.665-0.308,1.157-0.918,1.446C135.99,143.597,135.815,143.594,135.64,143.591z"/>
	<path fill="#3B3B3B" d="M150.004,28.919c0.565-0.05,1.114-0.055,1.451,0.526C150.67,30.1,150.202,29.88,150.004,28.919z"/>
	<path fill="#3B3B3B" d="M154.249,30.045c0.308,0.127,0.617,0.254,0.925,0.381c0.003,0.303,0.005,0.606,0.008,0.908
		C154.429,31.224,154.307,30.658,154.249,30.045z"/>
	<path fill="#6A6A6A" d="M170.228,125.881c0.004,0.58-0.036,1.139-0.682,1.404C168.935,126.41,169.511,126.111,170.228,125.881z"/>
	<path fill="#3B3B3B" d="M168.884,71.494c0.279,0.396,0.279,0.755-0.14,1.059C168.107,72.11,168.395,71.788,168.884,71.494z"/>
	<path fill="#3B3B3B" d="M121.154,9.864c0.551-0.21,0.963-0.024,1.277,0.445C121.829,10.669,121.399,10.534,121.154,9.864z"/>
	<path fill="#636363" d="M31.979,74.975c-0.035-0.444,0.089-0.802,0.535-0.985C33.009,74.684,32.599,74.887,31.979,74.975z"/>
	<path fill="#3B3B3B" d="M110.638,10.691c0.44-0.058,0.795,0.053,0.984,0.496C110.91,11.782,110.747,11.29,110.638,10.691z"/>
	<path fill="#3B3B3B" d="M40.896,50.672c-0.584-0.171-0.838-0.56-0.769-1.163C40.874,49.572,41.126,49.963,40.896,50.672z"/>
	<path fill="#3B3B3B" d="M169.179,77.358c0.424,0.286,0.455,0.644,0.194,1.056C168.896,78.138,168.559,77.836,169.179,77.358z"/>
	<path fill="#3B3B3B" d="M115.242,10.34c0.296-0.421,0.671-0.686,1.216-0.618C116.32,10.456,115.933,10.696,115.242,10.34z"/>
	<path fill="#3B3B3B" d="M134.124,15.582c0.574-0.147,0.975,0.069,1.233,0.585C134.716,16.456,134.304,16.264,134.124,15.582z"/>
	<path fill="#3B3B3B" d="M137.073,17.35c0.552-0.052,0.914,0.232,1.191,0.669C137.551,18.361,137.154,18.138,137.073,17.35z"/>
	<path fill="#3B3B3B" d="M108.668,9.887c0.425-0.179,0.79-0.145,1.039,0.294C109.155,10.815,108.883,10.453,108.668,9.887z"/>
	<path fill="#3B3B3B" d="M94.751,9.883c0.374,0.001,0.748,0.002,1.122,0.004C95.497,10.67,95.123,10.669,94.751,9.883z"/>
	<path fill="#1D1912" d="M54.304,86.453c0.119,0.567-0.132,0.982-0.544,1.331C53.525,87.171,53.558,86.666,54.304,86.453z"/>
	<path fill="#3B3B3B" d="M172.905,66.246c0.249,0.647,0.041,1.05-0.639,1.204C172.077,66.836,172.254,66.416,172.905,66.246z"/>
	<path fill="#3B3B3B" d="M39.389,48.314c-0.538-0.215-0.799-0.601-0.73-1.188C39.432,47.196,39.674,47.593,39.389,48.314z"/>
	<path fill="#3B3B3B" d="M163.99,51.377c0.538,0.01,0.919,0.262,1.149,0.745C164.385,52.445,164.026,52.159,163.99,51.377z"/>
	<path fill="#3B3B3B" d="M167.273,52.936c0.608-0.091,0.981,0.176,1.148,0.755C167.747,53.884,167.367,53.628,167.273,52.936z"/>
	<path fill="#3B3B3B" d="M58.417,25.558c-0.082-0.562,0.166-0.957,0.631-1.24C59.373,25.003,59.163,25.417,58.417,25.558z"/>
	<path fill="#3B3B3B" d="M38.502,46.824c-0.506-0.221-0.826-0.564-0.767-1.159C38.464,45.738,38.711,46.131,38.502,46.824z"/>
	<path fill="#3B3B3B" d="M172.244,57.043c0.63,0.167,0.89,0.537,0.652,1.183C172.255,58.064,172.079,57.648,172.244,57.043z"/>
	<path fill="#3B3B3B" d="M90.91,8.457c0.546-0.26,0.957-0.072,1.286,0.386C91.613,9.231,91.183,9.107,90.91,8.457z"/>
	<path fill="#3B3B3B" d="M156.681,43.903c0.577-0.16,0.974,0.065,1.235,0.579C157.282,44.764,156.867,44.578,156.681,43.903z"/>
	<path fill="#3B3B3B" d="M35.957,41.605c-0.358-0.213-0.587-0.528-0.416-0.928c0.127-0.299,0.449-0.357,0.766-0.219
		C36.19,40.84,36.073,41.222,35.957,41.605z"/>
	<path fill="#3B3B3B" d="M37.234,40.38c0.274-0.402,0.63-0.443,1.043-0.238C38.052,40.756,37.756,41.063,37.234,40.38z"/>
	<path fill="#6A6A6A" d="M182.072,116.22c0.432,0.18,0.661,0.438,0.342,0.902C181.542,117.11,181.667,116.718,182.072,116.22z"/>
	<path fill="#0A0804" d="M120.297,43.23c2.487,0.683,3.839,1.799,4.056,4.877c0.181,2.564,1.916,5.146,4.41,6.704
		c1.189,0.743,1.695,4.25,0.713,6.052c-0.272,0.499-0.843,1.086-0.44,1.466c1.742,1.642,1.608,4.132,2.828,5.952
		c2.087,3.115,3.054,6.639,4.034,10.167c0.806,2.903,3.035,4.847,5.995,4.641c2.363-0.164,3.337,0.672,2.809,2.923
		c-1.01,4.299,1.166,8.084,1.765,12.119c0.187,1.262,1.471,1.886,1.677,3.484c-2.003-0.948-3.49-1.772-3.468-4.224
		c0.018-1.961-0.285-3.914-1.483-5.678c-1.075-1.583,0.178-3.229,0.438-4.82c0.216-1.32-0.107-1.939-1.353-2.274
		c-5.921-1.594-8.742-4.82-9.505-10.835c-0.219-1.723-0.204-3.496-2.24-4.342c-0.943-0.392-0.631-1.563-0.926-2.361
		c-0.462-1.25-0.007-2.886-2.061-3.325c-0.922-0.197-0.171-1.309,0.048-1.856c0.477-1.192,0.927-2.315,0.901-3.661
		c-0.029-1.475-0.211-2.416-1.867-3.093c-1.877-0.767-2.525-3.014-2.817-4.75c-0.485-2.88-1.703-5.019-4.029-6.637
		C119.953,43.584,120.125,43.407,120.297,43.23z"/>
	<path fill="#0D0B06" d="M159.63,124.267c-0.051,2.499-0.419,4.806-1.517,6.903c-0.877,1.676-2.592,0.694-3.927,0.868
		c-1.279,0.167-1.592-0.837-1.741-1.83c-0.209-1.388-0.854-2.444-2.25-2.798c-1.713-0.434-1.724-1.501-1.438-2.939
		c0.482-2.424,0.78-4.817-0.763-7.117c-1.259-1.877-2.933-2.66-5.013-2.341c-1.322,0.203-2.608,0.056-3.23-0.894
		c-0.799-1.221-1.22-2.743-0.374-4.298c2.278-4.189,1.998-6.126-1.232-9.546c-0.377-0.399-0.916-0.844-0.972-1.316
		c-0.294-2.461,0.206-5.007-0.89-7.427c1.418,1.465,2.472,3.029,2.227,5.115c-0.188,1.602,0.156,2.907,1.42,4.073
		c1.735,1.599,2.072,3.871,2.405,6.087c0.14,0.928-0.032,1.786-0.876,2.323c-1.593,1.014-1.275,2.601-0.813,3.852
		c0.524,1.421,2.054,0.92,3.182,0.743c3.273-0.512,4.808,0.274,5.593,3.351c0.644,2.526,1.907,4.978,0.812,7.788
		c-0.325,0.833,1.046,1.472,1.683,2.154c3.71,3.973,5.058,5.179,6.766-1.468C158.796,125.103,158.879,124.606,159.63,124.267z"/>
	<path fill="#0D0B06" d="M83.311,41.357c0.857-0.075,2.086,0.373,1.634-1.384c-0.1-0.387,0.507-0.929,0.718-1.429
		c0.647-1.529,2.692-2.896,0.267-4.771c-0.529-0.409-0.277-1.975-0.194-2.992c0.129-1.58-0.582-2.684-1.894-3.267
		c-1.606-0.714-3.544-0.716-4.495-2.648c-0.256-0.52-1.024,0.194-1.545,0.125c-0.892-0.118-1.751,1.087-2.644,0.05
		c1.439-0.652,2.821-1.663,4.498-1.267c0.892,0.21,2.214,0.019,2.311,1.564c0.014,0.226,0.389,0.594,0.622,0.615
		c4.09,0.371,4.306,3.494,4.729,6.519c0.085,0.609,0.282,1.394,0.714,1.732c2.097,1.639,1.515,3.025-0.267,4.34
		c-1.731,1.277-0.637,2.391,0.268,3.324c2.332,2.403,4.749,4.72,6.234,7.792c0.727,1.505,1.419,3.026,2.155,4.527
		c0.513,1.046,0.159,1.831-0.657,2.512c-0.112-0.009-0.225-0.006-0.337,0.008c-0.985-4.577-3.246-8.431-6.751-11.501
		c-1.424-1.247-2.468-3.271-4.884-2.888C83.633,41.998,83.472,41.677,83.311,41.357z"/>
	<path fill="#0D0B06" d="M42.019,66.323c-0.691,3-0.621,5.993,0.207,8.948c0.621,2.218-1.297,3.238-2.367,4.278
		c-1.757,1.707-1.701,3.188-0.686,5.038c1.193,2.174,0.785,4.669,1.38,6.966c0.174,0.671-0.267,1.205-0.732,1.678
		c-0.895,0.909-1.779,1.805-2.98,2.349c-1.082,0.49-2.504,0.859-3.055,1.734c-0.675,1.072,0.656,2.1,1.228,3.089
		c0.434,0.751-0.012,1.382-0.108,2.067c-0.309,2.196-0.067,4.137,2.239,5.252c0.526,0.254,1.387,0.474,1.308,1.218
		c-0.09,0.841-0.983,0.894-1.656,1.089l-0.09-0.071c0.096-0.905,0.084-1.684-0.955-2.174c-2.048-0.966-2.552-2.979-2.194-4.832
		c0.335-1.736,0.024-3.142-0.711-4.555c-0.73-1.403-0.468-2.212,1.109-2.609c0.998-0.251,1.887-0.742,2.784-1.299
		c3.431-2.132,1.969-5.262,1.8-8.131c-0.027-0.467-0.153-0.963-0.366-1.377c-1.666-3.248-0.419-5.735,2.006-7.943
		c0.541-0.492,1.096-1.068,0.73-1.862c-1.381-2.991-0.438-5.918,0.167-8.859C41.393,66.318,41.706,66.321,42.019,66.323z"/>
	<path fill="#0D0B06" d="M26.681,97.558c-0.258,0.819-0.498,1.644-0.779,2.455c-0.375,1.081-0.259,2.031,0.605,2.852
		c0.346,0.328,0.681,0.686,0.944,1.081c2.155,3.23,1.35,5.701-2.266,7.094c-0.829,0.32-1.971,0.283-1.901,1.708
		c0.062,1.274-0.143,2.547,1.232,3.38c1.37,0.83,2.98,1.669,0.975,3.55c-0.571,0.535-0.265,1.37,0.088,2.025
		c0.785,1.456,0.566,3.02,0.72,4.578c0.369,3.734-0.846,7.408-0.127,11.119c0.128,0.661,0.216,1.449-0.729,2.12
		c-0.235-0.783-0.695-1.515-0.614-2.181c0.457-3.767-0.313-7.587,0.49-11.318c0.198-0.921,0.159-1.661-0.227-2.507
		c-0.727-1.595-1.892-3.098-0.443-5.035c0.612-0.817-0.3-1.683-1.225-1.922c-1.364-0.352-1.769-1.166-1.551-2.464
		c0.242-1.443-0.015-3.084,1.914-3.708c2.033-0.657,3.967-1.428,3.399-4.275c-0.164-0.821-0.382-1.477-0.929-2.116
		C23.759,101.076,23.786,100.64,26.681,97.558z"/>
	<path fill="#0A0804" d="M148.884,102.051c2.013-0.362,4.026-0.728,6.04-1.085c0.791-0.14,1.489,0.069,1.779,0.852
		c0.777,2.099,2.654,2.656,4.484,3.174c1.912,0.541,3.34,1.447,3.777,3.522c0.377,1.788,1.812,1.424,3.057,1.47
		c0.59,0.022,1.537-0.226,1.538,0.651c0,1.166-1.375,1.139-2.048,1.763c-0.432,0.401-1.036,0.697-1.038-0.392
		c0-0.175-0.246-0.515-0.321-0.499c-3.096,0.641-2.743-1.839-3.043-3.512c-0.201-1.122-0.885-1.388-1.719-1.676
		c-2.034-0.702-4.098-1.348-5.499-3.156c-0.581-0.751-1.252-0.836-2.089-0.363C152.08,103.774,150.481,102.99,148.884,102.051z"/>
	<path fill="#0D0B06" d="M38.707,132.512c1.268,0.203,1.724,1.003,1.086,2.044c-1.407,2.297,0.451,4.291,0.447,6.448
		c-0.001,0.749,0.801,0.58,1.333,0.657c1.315,0.191,2.259,0.987,3.399,2.012c-1.844,0.748-3.88,0.669-4.838,2.508
		c-0.24,0.46-1.021,0.735-0.661,1.381c0.321,0.576,1.011,0.309,1.541,0.335c0.862,0.043,1.727,0.012,2.827,0.012
		c-1.648,1.657-4.336,1.739-5.635,0.456c-0.47-0.464-0.319-0.885-0.045-1.267c0.812-1.132,1.173-2.66,2.805-3.088
		c0.715-0.188,1.29-0.675,0.248-1.218c-0.662-0.345-1.844-0.068-1.905-1.092c-0.118-1.993-1.603-3.759-0.993-5.819
		c0.327-1.104,0.378-2.191,0.333-3.31L38.707,132.512z"/>
	<path fill="#0D0B06" d="M105.262,85.489c-0.771-0.61-1.542-1.219-2.312-1.829c-0.175-0.478-0.556-0.629-1.023-0.642
		c-0.627-0.527-1.339-0.722-2.167-0.812c-1.144-0.125-2.821,0.991-3.335-0.707c-0.583-1.925-2.173-3.876-0.6-6.053
		c0.149-0.003,0.298-0.007,0.447-0.011c0.163,0.855,0.353,1.706,0.482,2.566c0.252,1.673,1.04,2.559,2.88,2.252
		c1.25-0.208,2.306,0.304,3.283,1.111c0.853,0.704,1.846,1.235,2.741,1.893c0.479,0.352,1.549,0.146,1.42,0.976
		C106.951,85.045,106.156,85.477,105.262,85.489z"/>
	<path fill="#0A0804" d="M172.075,108.955c-1.981,2.566,0.505,5.987-2.011,8.582c-1.302,1.342-2.735,1.76-4.374,2.008
		c-0.559,0.084-1.217-0.008-1.224-0.771c-0.016-1.663,0.022-3.328,0.11-4.989c0.02-0.369,0.355-0.728,0.84-0.669
		c0.397,0.049,0.418,0.401,0.476,0.708c0.147,0.777,0.308,1.551,0.442,2.33c0.09,0.523-0.105,1.209,0.616,1.39
		c0.615,0.154,1.06-0.277,1.4-0.724c1.198-1.577,2.436-3.13,2.336-5.302C170.638,110.489,170.822,109.489,172.075,108.955z"/>
	<path fill="#0A0804" d="M150.935,81.677c0.446,2.31,1.697,2.739,3.911,2.095c1.327-0.386,3.191,0.044,3.751,1.416
		c1.124,2.75,3.026,2.754,5.322,2.167c0.606-0.155,1.385-0.57,1.656,0.244c0.35,1.047-0.787,0.91-1.32,1.233
		c-0.198,0.12-0.456,0.136-0.677,0.225c-3.625,1.457-3.681,1.48-5.105-2.109c-0.638-1.608-1.32-2.503-3.32-2.011
		c-4.534,1.116-3.696,1.22-5.159-3.257C150.309,81.679,150.622,81.678,150.935,81.677z"/>
	<path fill="#0D0B06" d="M36.799,110.028c0.3,2.075,0.21,4.191,0.291,6.216c0.106,2.64-1.563,5.357,0.075,7.991
		c0.312,0.502,0.598,1.325,0.281,2.071c-0.744,1.754-1.13,3.474,0.843,4.951c-2.786-0.919-3.223-1.67-2.244-3.858
		c0.503-1.123,0.628-2.054-0.012-3.139c-0.441-0.748-1.193-1.861-0.936-2.384c1.875-3.825,0.406-8.05,1.613-11.919
		C36.71,109.957,36.799,110.028,36.799,110.028z"/>
	<path fill="#1D1912" d="M96.272,75.434c-0.149,0.004-0.298,0.008-0.447,0.011c1.016-1.778,0.601-3.403-0.469-5.004
		c-1.235-1.847-1.981-3.915-2.656-6.023c-0.292-0.911-0.329-1.677,0.29-2.424c0,0,0.209,0.001,0.209,0.001l0.209-0.001
		c0.888,2.719,1.905,5.393,3.43,7.821C98.14,71.89,97.862,73.702,96.272,75.434z"/>
	<path fill="#0D0B06" d="M132.817,51.001c6.166,0.276,9.588,3.646,9.614,9.37C141.098,55.301,137.23,52.886,132.817,51.001z"/>
	<path fill="#0A0804" d="M104.929,38.508c2.035-0.357,3.415,0.416,4.53,2.185c1.34,2.126,3.318,3.349,5.987,3.02
		c0.162,0.169,0.324,0.337,0.486,0.506c-2.747,1.826-5.455,1.059-7.043-2.198c-0.854-1.751-1.859-2.925-3.965-2.606
		C104.925,39.112,104.927,38.81,104.929,38.508z"/>
	<path fill="#0A0804" d="M170.663,99.546c-2.771-0.777-3.516-1.945-2.921-4.475c0.289-1.23-0.427-2.328-0.583-3.505
		c-0.11-0.83-0.76-1.557-0.474-2.877c1.954,1.699,2.555,4.013,2.28,5.831c-0.322,2.124,0.221,3.298,1.713,4.419
		C170.673,99.141,170.668,99.343,170.663,99.546z"/>
	<path fill="#0D0B06" d="M150.935,81.677c-0.313,0.001-0.626,0.002-0.94,0.003c-3.554-0.919-3.852-4.666-5.987-6.836
		c1.437,0.31,2.669,0.865,2.872,2.494C147.186,79.786,149.867,79.969,150.935,81.677z"/>
	<path fill="#0D0B06" d="M164.433,138.555c1.028,2.738,0.259,4.526-1.306,6.011c-0.951,0.902-2.032,0.548-3.313-0.315
		C163.455,144.155,163.491,141.315,164.433,138.555z"/>
	<path fill="#070706" d="M146.223,148.921c-1.002-0.614-2.321-0.913-2.415-2.429c1.029,0.268,2.104,0.778,2.837-0.531
		c0.337,0.008,0.674,0.015,1.01,0.023C147.405,147.073,146.934,148.055,146.223,148.921z"/>
	<path fill="#241C0C" d="M42.019,66.323c-0.313-0.002-0.627-0.005-0.94-0.007c-0.06-1.879,0.389-3.635,1.183-5.317
		C42.439,62.807,42.887,64.606,42.019,66.323z"/>
	<path fill="#1D1912" d="M115.932,44.218c-0.162-0.168-0.324-0.337-0.486-0.506c1.525-1.093,2.974-2.945,4.852-0.482
		c-0.172,0.176-0.344,0.353-0.516,0.53C118.358,42.738,117.164,43.641,115.932,44.218z"/>
	<path fill="#241C0C" d="M93.407,61.995l-0.209,0.001c0,0-0.209-0.001-0.209-0.001c0.632-1.846,1.43-3.615,2.439-5.286
		c0.112-0.014,0.225-0.017,0.337-0.008C95.623,58.751,94.513,60.372,93.407,61.995z"/>
	<path fill="#1D1912" d="M147.656,145.983c-0.337-0.007-0.673-0.015-1.01-0.023c1.682-3.001,1.682-3.001,3.969-2.154
		C148.818,143.907,148.378,145.092,147.656,145.983z"/>
	<path fill="#1D1912" d="M170.663,99.546c0.005-0.203,0.01-0.405,0.015-0.608c0.699,0.039,1.398,0.078,2.783,0.155
		C172.2,100.084,171.613,100.865,170.663,99.546z"/>
	<path fill="#1D1912" d="M104.929,38.508c-0.002,0.302-0.003,0.604-0.005,0.906c-0.72-0.1-1.56,0.349-2.197-0.462
		C103.373,38.156,104.206,38.596,104.929,38.508z"/>
	<path fill="#0D0B06" d="M130.862,48.996c0.57,0.079,1.081,0.259,1.231,0.893c0.067,0.284-0.126,0.459-0.401,0.399
		c-0.635-0.139-0.836-0.636-0.908-1.213L130.862,48.996z"/>
	<path fill="#1D1912" d="M152.938,144.914c-0.056-0.021-0.111-0.042-0.167-0.063c0.064-0.06,0.128-0.121,0.192-0.181
		c0.042,0.045,0.084,0.09,0.126,0.135C153.039,144.841,152.988,144.878,152.938,144.914z"/>
	<path fill="#1D1912" d="M151.62,144.367c-0.059,0.023-0.118,0.046-0.177,0.068c-0.018-0.088-0.036-0.176-0.054-0.265
		c0.065,0.012,0.141,0.008,0.191,0.042C151.613,144.235,151.608,144.313,151.62,144.367z"/>
	<path fill="#0D0B06" d="M135.885,90.135c0.035,0.065,0.098,0.132,0.094,0.194c-0.005,0.06-0.08,0.114-0.124,0.17
		C135.864,90.378,135.874,90.256,135.885,90.135z"/>
	<path fill="#0A0804" d="M162.997,121.037c0.054-0.208,0.108-0.417,0.163-0.625c0.453,0.355-0.007,0.438-0.181,0.607
		L162.997,121.037z"/>
	<path fill="#0D0B06" d="M130.784,49.074c-0.153-0.166-0.306-0.333-0.459-0.499c0,0,0.041-0.041,0.041-0.041
		c0.165,0.155,0.33,0.309,0.496,0.463C130.862,48.996,130.784,49.074,130.784,49.074z"/>
	<path fill="#0D0B06" d="M38.649,132.571c-0.063-0.087-0.125-0.174-0.188-0.261c0.082,0.068,0.163,0.136,0.245,0.203
		C38.707,132.512,38.649,132.571,38.649,132.571z"/>
	<path fill="#0A0804" d="M162.978,121.019c-0.035,0.068-0.07,0.136-0.105,0.204c0.041-0.062,0.082-0.124,0.123-0.186
		C162.997,121.037,162.978,121.019,162.978,121.019z"/>
	<path fill="#0D0B06" d="M129.871,48.073c0.165,0.154,0.33,0.307,0.495,0.461c0,0-0.041,0.041-0.041,0.041
		c-0.153-0.166-0.306-0.332-0.459-0.497L129.871,48.073z"/>
	<path fill="#0D0B06" d="M129.866,48.077c-0.071-0.067-0.141-0.135-0.212-0.202c0.045,0.009,0.108,0.002,0.133,0.03
		c0.041,0.045,0.057,0.111,0.084,0.169C129.871,48.073,129.866,48.077,129.866,48.077z"/>
	<path fill="#7C1C19" d="M107.917,134.135c-1.009,3.31-2.743,5.77-6.554,6.23c-1.295,0.157-2.714,0.109-3.894,0.898
		c-0.897-0.023-1.796-0.045-2.695-0.068c-5.313,0.128-7.497-1.5-10.123-7.547c0.801-0.662,1.294,1.163,2.124,0.263
		c2.431,1.453,5.17,1.418,7.86,1.656c2.971,0.262,5.835-0.807,8.792-0.653C105.061,135.445,106.369,134.097,107.917,134.135z"/>
	<path fill="#0D0B06" d="M84.771,96.558c1.26,1.126,1.167,2.279,0.057,3.439c-0.515,0.538-1.164,0.721-1.637,0.079
		c-0.672-0.914-1.307-2.083-2.517-1.932c-2.262,0.281-4.645,0.037-6.747,1.22c-0.415,0.234-0.8,0.527-1.228,0.732
		c-1.246,0.595-2.509,0.35-3.219-0.699c-0.761-1.126,0.4-1.953,1.169-2.471c3.098-2.087,6.543-2.157,10.086-1.47
		c0.997,0.194,1.899,0.909,2.997,0.566C84.078,96.201,84.424,96.38,84.771,96.558z"/>
	<path fill="#503E20" d="M84.771,96.558c-0.347-0.179-0.693-0.357-1.04-0.536c-2.168-2.175-5.232-2.814-7.689-4.482
		c-3.124-2.122-6.458-2.421-9.997-1.375c-0.021-0.269-0.043-0.539-0.065-0.808c4.16-2.658,8.31-2.146,12.413,0.103
		c2.301,1.261,4.553,2.611,6.806,3.957c0.871,0.52,1.492,1.408,1.384,2.358C86.488,96.62,85.44,96.405,84.771,96.558z"/>
	<path fill="#0D0B06" d="M107.917,134.135c-1.548-0.038-2.856,1.31-4.49,0.779c1.738-1.331,4.19-1.829,4.679-4.575
		c0.278-1.563,0.158-2.4-1.613-2.522c-1.339-0.092-2.665-0.357-3.997-0.545c0.162-0.314,0.324-0.629,0.486-0.943
		c3.364,0.154,6.687,0.011,9.995-0.792c2.308-0.561,2.903,1.536,4.342,3.068c-3.994-0.874-4.01-0.889-6.76,2.097
		c-0.804,0.874-1.489,1.858-2.228,2.792c-0.298,0.094-0.467,0.276-0.423,0.607L107.917,134.135z"/>
	<path fill="#1D1912" d="M103.923,109.475c-0.64-4.533-3.061-8.266-4.89-12.22c-1.509-3.26-1.306-6.342,0.764-9.28
		c0.437-0.62,0.788-1.411,1.812-1.313c0.482,1.028-0.344,1.651-0.763,2.329c-1.579,2.555-1.515,5.079-0.205,7.725
		c1.234,2.491,2.945,4.764,3.526,7.563C104.53,106.024,104.79,107.756,103.923,109.475z"/>
	<path fill="#0D0B06" d="M86.776,133.912c-0.83,0.899-1.323-0.925-2.124-0.263c0,0,0.01-0.031,0.01-0.031
		c0.015-0.337-0.156-0.502-0.482-0.525c0,0,0.028,0.024,0.028,0.024c-0.152-0.196-0.305-0.392-0.457-0.588
		c-1.722-1.84-3.744-3.229-6.132-4.064c-0.002-0.328-0.005-0.655-0.008-0.983c4.802-0.169,9.6-0.375,14.356-1.126
		c0.005,0.319,0.01,0.639,0.015,0.958c-1.029,0.78-2.303,0.4-3.448,0.734c-4.82,1.405-4.833,1.354-1.869,5.404
		C86.75,133.569,86.74,133.757,86.776,133.912z"/>
	<path fill="#1D1912" d="M87.929,118.642c-0.043,0.066-0.011-0.006,0.041-0.059c2.263-2.322,4.197-0.41,5.88,0.732
		c3.264,2.215,6.149,1.499,9.08-0.468c0.132-0.089,0.362-0.137,0.397-0.251c0.989-3.144,2.262-0.317,3.409-0.341
		C100.572,123.598,94.215,121.847,87.929,118.642z"/>
	<path fill="#433214" d="M91.981,127.313c-0.005-0.319-0.01-0.639-0.015-0.958c3.671-0.711,7.343-0.766,11.017-0.025
		c-0.162,0.314-0.324,0.629-0.486,0.943c-1.602-0.049-3.204-0.098-4.806-0.147c-0.141-0.197-0.287-0.203-0.438-0.01
		C95.496,127.181,93.738,127.247,91.981,127.313z"/>
	<path fill="#1D1912" d="M94.775,141.195c0.899,0.023,1.797,0.045,2.695,0.068c1.036,0.597,2.411,0.733,3.067,2.284
		c-2.484-0.306-4.755-0.762-7.076-0.368C93.334,141.936,94.505,141.901,94.775,141.195z"/>
	<path fill="#3B3B3B" d="M77.609,127.48c0.003,0.328,0.005,0.655,0.008,0.983c-1.452-0.162-2.701,1.24-4.433,0.569
		C74.534,127.773,75.748,126.737,77.609,127.48z"/>
	<path fill="#1D1912" d="M83.311,41.357c0.161,0.321,0.321,0.641,0.482,0.962c-0.639,0.321-1.284,0.272-1.932,0.035
		c0.004-0.332,0.008-0.664,0.012-0.996C82.353,41.357,82.832,41.357,83.311,41.357z"/>
	<path fill="#503E20" d="M101.927,83.018c0.467,0.013,0.847,0.164,1.023,0.642c-0.931,0.408-0.129,1.308-0.529,1.867
		c-0.289-0.008-0.578-0.017-0.867-0.026C101.389,84.63,101.637,83.821,101.927,83.018z"/>
	<path fill="#0D0B06" d="M81.874,41.357c-0.004,0.332-0.008,0.664-0.012,0.996c-0.797,0.232-1.599,0.234-2.406,0.055
		C79.709,40.788,80.999,41.551,81.874,41.357z"/>
	<path fill="#636363" d="M65.98,89.357c0.022,0.269,0.044,0.539,0.065,0.808c-0.552,0.111-1.009,0.776-1.82,0.207
		C64.594,89.619,65.296,89.501,65.98,89.357z"/>
	<path fill="#1D1912" d="M101.553,85.501c0.289,0.009,0.578,0.017,0.867,0.026c-0.022,0.554-0.004,1.302-0.78,1.13
		C100.976,86.509,101.406,85.912,101.553,85.501z"/>
	<path fill="#7C1C19" d="M107.909,134.101c-0.044-0.331,0.125-0.513,0.423-0.607C108.308,133.778,108.245,134.035,107.909,134.101z"
		/>
	<path fill="#7C1C19" d="M84.179,133.092c0.326,0.023,0.497,0.189,0.482,0.525C84.332,133.597,84.186,133.408,84.179,133.092z"/>
	<path fill="#7C1C19" d="M83.749,132.528c0.152,0.196,0.305,0.392,0.457,0.588C83.864,133.067,83.785,132.814,83.749,132.528z"/>
	<path fill="#E9C19C" d="M91.981,127.313c1.757-0.066,3.515-0.132,5.272-0.198c0,0,0.218,0.063,0.218,0.063l0.22-0.052
		c1.602,0.049,3.204,0.098,4.806,0.147c1.332,0.188,2.658,0.453,3.997,0.545c1.771,0.122,1.891,0.959,1.613,2.522
		c-0.489,2.746-2.942,3.244-4.679,4.575c-2.957-0.154-5.821,0.915-8.792,0.653c-2.69-0.237-5.43-0.203-7.86-1.656
		c-0.035-0.155-0.025-0.343-0.112-0.461c-2.964-4.05-2.951-3.999,1.869-5.404C89.678,127.713,90.952,128.093,91.981,127.313z"/>
	<path fill="#3B3B3B" d="M97.691,127.125l-0.22,0.052c0,0-0.218-0.063-0.218-0.063C97.404,126.922,97.55,126.928,97.691,127.125z"/>
</g>
</svg>
