<?xml version="1.0" encoding="utf-8"?>
<!-- Generator: Adobe Illustrator 17.0.0, SVG Export Plug-In . SVG Version: 6.00 Build 0)  -->
<!DOCTYPE svg PUBLIC "-//W3C//DTD SVG 1.1//EN" "http://www.w3.org/Graphics/SVG/1.1/DTD/svg11.dtd">
<svg version="1.1" id="Layer_1" xmlns="http://www.w3.org/2000/svg" xmlns:xlink="http://www.w3.org/1999/xlink" x="0px" y="0px"
	 width="137px" height="157px" viewBox="0 0 137 157" enable-background="new 0 0 137 157" xml:space="preserve">
<g>
	<path fill="#070606" d="M37.84,19.308c1.102-0.874,2.203-1.748,3.305-2.622c1.191-0.042,2.142-0.426,2.455-1.721
		c1.102-0.706,2.204-1.412,3.307-2.118c1.275-0.173,2.466-0.543,3.418-1.468c1.059-0.503,2.117-1.007,3.176-1.51
		c1.445,0.05,2.755-0.314,3.879-1.255c0.797-0.212,1.594-0.425,2.391-0.637c5.134,0.406,10.302-0.283,15.426,0.465
		c0.47,0.039,0.939,0.079,1.409,0.118c3.786,1.303,7.551,2.686,11.546,3.246c4.011,1.907,8.121,3.622,11.821,6.129
		c0.081,0.625,0.439,0.826,1.029,0.671c0.778,0.578,1.556,1.156,2.333,1.734c0.1,0.572,0.431,0.802,1.002,0.68
		c0.304,0.256,0.608,0.512,0.912,0.768c0.07,0.636,0.432,0.823,1.02,0.666c1.102,1.049,2.203,2.098,3.305,3.147
		c0.071,0.64,0.431,0.842,1.031,0.683c0.638,0.334,1.148,0.797,1.461,1.458c-0.175,0.599,0.009,0.966,0.664,1.03
		c1.871,1.453,3.044,3.516,4.59,5.253c-0.131,0.556,0.077,0.89,0.648,0.985c0.423,0.632,0.846,1.265,1.27,1.897
		c-0.152,0.573,0.056,0.908,0.652,0.986c0.104,0.149,0.208,0.297,0.312,0.446c0.519,2.005,1.442,3.837,2.409,5.65
		c0.03,1.111,0.059,2.223,0.089,3.334c-0.268,0.434-0.241,0.78,0.291,0.974c0.503,4.164,0.328,8.334,0.097,12.504
		c-0.545,0.219-0.6,0.586-0.32,1.055c-0.057,0.769-0.113,1.538-0.17,2.307c-0.86,1.159-1.392,2.427-1.301,3.902
		c-0.039,0.298-0.077,0.596-0.116,0.894c-0.673,0.342-0.688,0.863-0.401,1.467c0.249,2.087,2.352,2.785,3.274,4.369
		c0.365,1.536,0.897,2.997,1.923,4.232c0.973,2.673,0.73,5.421,0.5,8.168c-0.554,0.217-0.613,0.591-0.338,1.07
		c-0.073,0.607-0.147,1.214-0.22,1.821c-1.387,2.559-2.376,5.282-3.327,8.022c-0.108,0.152-0.216,0.303-0.325,0.455
		c-1.051,0.753-1.574,1.761-1.485,3.066c-0.039,0.471-0.078,0.942-0.118,1.412c-1.06,1.639-1.166,3.502-1.263,5.367
		c-0.06,0.771-0.121,1.542-0.181,2.313c-0.749,0.672-1,1.502-0.788,2.48c-0.734,1.167-1.234,2.521-2.565,3.21
		c-1.033,0.143-2.09,0.212-2.92,0.966c-0.559,0.449-1.118,0.897-1.677,1.346c-1.101,0.791-1.322,1.864-0.997,3.112
		c-0.058,0.295-0.116,0.589-0.173,0.884c-1.214,1.203-1.72,2.694-1.779,4.367c-0.458,0.893-0.915,1.786-1.373,2.679
		c-0.563,0.072-0.783,0.392-0.684,0.944c-0.396,0.488-0.791,0.976-1.187,1.464c-0.607,0.072-0.842,0.406-0.707,1.002
		c-1.296,1.288-2.591,2.576-3.887,3.865c-0.561-0.144-0.895,0.063-0.987,0.641c-0.155,0.102-0.31,0.204-0.464,0.307
		c-0.728-0.089-1.179,0.232-1.379,0.928l-0.05,0.03c-0.297-0.002-0.733-0.133-0.871,0.014c-1.627,1.735-3.618,3.138-4.753,5.328
		c-1.402,2.705-3.758,4.085-6.607,5.05c-6.037,2.044-12.25,1.976-18.459,1.828c-6.492-0.154-12.313-1.925-16.896-7.036
		c-3.716-4.145-7.019-8.693-11.324-12.291c-3.712-3.102-5.902-7.044-6.869-11.738c-0.311-1.508-1.19-2.866-2.688-3.078
		c-4.331-0.613-5.656-3.604-6.374-7.295c-0.635-3.264-0.839-6.769-2.232-9.691c-1.838-3.856-3.197-7.761-4.299-11.861
		c-1.477-5.493-0.694-10.326,2.867-14.786c2.328-2.916,2.247-4.179,0.012-7.345c-0.199-0.647,0.121-1.497-0.735-1.888
		c-0.021-0.595-0.042-1.189-0.064-1.784c0.26-0.63,0.353-1.216-0.414-1.576c-0.04-0.31-0.08-0.62-0.12-0.929
		c0.628-3.525,0.57-7.05,0.013-10.576c0.048-0.266,0.096-0.532,0.144-0.798c0.661-0.273,0.65-0.737,0.364-1.28
		c-0.418-3.16,0.955-5.785,2.502-8.357c0.614-0.125,0.794-0.498,0.618-1.076c0.248-0.284,0.496-0.568,0.744-0.852
		c0.662-0.035,0.896-0.38,0.733-1.013c0.089-0.14,0.177-0.281,0.266-0.421c0.61-0.055,0.85-0.38,0.715-0.98
		c0.098-0.152,0.196-0.303,0.294-0.455c0.619-0.118,0.795-0.492,0.615-1.069c0.041-0.162,0.131-0.289,0.269-0.383
		c0.654-0.077,0.86-0.446,0.689-1.059c0.034-0.163,0.12-0.289,0.259-0.38c1.274-0.615,2.341-1.419,2.669-2.903
		c0.088-0.149,0.176-0.297,0.264-0.446c2.6-2.103,5.089-4.313,6.97-7.119c0.325-0.207,0.65-0.414,0.975-0.622
		C37.517,20.221,37.837,19.963,37.84,19.308z M30.466,91.164c-0.014-0.653,0.276-1.562-0.86-1.446
		c-0.544,0.056-0.411,0.508-0.074,0.823c0.051,3.028-0.522,5.928-1.815,8.71c-0.315-1.89-0.427-3.77-0.554-5.649
		c-0.185-2.741-0.735-5.37-2.318-7.694c-0.923-1.354-1.839-2.09-2.887-0.122c-0.169-0.012-0.337-0.024-0.506-0.036
		c-0.314-1.346-0.252-2.647,0.442-3.879c1.298-2.302,1.713-2.348,3.345-0.362c0.798,0.971,1.596,1.943,2.394,2.914
		c0.059,0.662,0.472,0.957,1.087,0.995c0.09,0.006,0.265-0.175,0.277-0.283c0.07-0.647-0.391-0.76-0.885-0.824
		c0.683-3.724-1.548-6.489-3.002-9.56c-0.974-2.058-2.173-1.916-3.534-0.839c-2.406,1.905-3.952,4.4-4.024,7.551
		c-0.102,4.455,0.761,8.857,2.697,12.77c2.167,4.381,3.231,8.94,4.065,13.651c0.29,1.635,0.736,3.278,1.818,4.63
		c0.771,0.964,1.786,1.377,2.974,1.004c0.801-0.251,1.732-0.432,1.879-1.564c0.329-2.527,0.749-5.043,1.039-7.574
		C32.542,99.86,31.541,95.504,30.466,91.164z M109.227,110.711c0.264,1.635,0.97,2.854,2.828,2.955
		c1.91,0.103,2.683-1.244,3.194-2.715c0.522-1.502,0.862-3.071,1.236-4.621c0.691-2.862,0.616-5.959,2.15-8.557
		c2.449-4.148,3.607-8.672,4.38-13.346c0.642-3.878-0.756-7.094-3.346-9.83c-1.102-1.164-2.457-2.194-4.169-0.831
		c-0.613-0.397-0.511-0.913-0.253-1.465c3.009-6.43,3.966-13.253,3.525-20.25c-0.198-3.141-0.127-6.37-1.329-9.394
		c-2.836-7.134-8.047-12.496-13.793-17.161c-8.579-6.965-18.432-11.509-29.424-13.428c-8.225-1.436-16.131-0.971-23.702,2.946
		c-11.213,5.801-19.8,14.331-26.376,24.988c-0.906,1.469-2.028,2.84-2.285,4.686c-0.565,4.048-0.408,8.112-0.482,12.175
		c-0.142,7.8,3.157,14.482,6.658,21.131c0.843,1.601,1.46,0.894,2.234,0.086c0.031,4.261,0.737,8.411,1.817,12.532
		c1.06,4.043,1.424,8.204,1.081,12.37c-0.357,4.332,0.028,8.623,0.254,12.935c0.277,5.275,2.128,9.722,6.06,13.341
		c2.291,2.109,4.435,4.392,6.508,6.718c1.165,1.307,1.816,1.204,2.35-1.021c0.833,1.936,1.537,3.267,1.989,4.679
		c1.699,5.314,5.779,7.363,10.862,8.011c5.336,0.68,10.695,0.494,16.052,0.277c6.93-0.28,12.166-3.016,14.521-9.959
		c0.705-0.025,1.464,0.5,2.103-0.206c1.553-1.359,3.116-2.707,4.658-4.079c4.515-4.02,7.848-8.746,8.617-14.912
		c0.313-2.508,0.416-5.042,0.614-7.564C108.248,111.038,108.737,110.874,109.227,110.711z M28.465,86.526
		c0.067,0.024,0.135,0.064,0.202,0.062c0.023-0.001,0.042-0.108,0.063-0.167c-0.067-0.024-0.135-0.064-0.202-0.062
		C28.505,86.361,28.486,86.468,28.465,86.526z"/>
	<path fill="#616161" d="M19.11,66.046c2.235,3.166,2.316,4.429-0.012,7.345c-3.561,4.46-4.343,9.293-2.867,14.786
		c1.102,4.1,2.461,8.005,4.299,11.861c1.393,2.922,1.597,6.427,2.232,9.691c0.718,3.691,2.043,6.682,6.374,7.295
		c1.499,0.212,2.377,1.571,2.688,3.078c0.967,4.694,3.158,8.637,6.869,11.738c4.305,3.597,7.608,8.145,11.324,12.291
		c4.583,5.112,10.404,6.882,16.896,7.036c6.21,0.148,12.422,0.216,18.459-1.828c2.849-0.965,5.205-2.344,6.607-5.05
		c1.135-2.19,3.126-3.593,4.753-5.328c0.138-0.147,0.573-0.016,0.871-0.014c-3.127,3.001-5.013,7.076-8.593,9.713
		c-2.428,1.788-5.308,2.357-8.042,2.822c-6.537,1.113-13.189,1.162-19.751,0.056c-3.31-0.558-6.625-1.737-9.023-4.156
		c-6.001-6.055-11.816-12.298-17.623-18.542c-2.136-2.297-2.691-5.392-3.56-8.289c-0.449-1.497-1.234-2.635-2.847-2.87
		c-3.003-0.437-4.67-2.36-5.493-5.041c-0.817-2.661-1.652-5.37-1.966-8.117c-0.273-2.39-1.075-4.413-2.196-6.476
		c-2.158-3.974-3.063-8.401-3.805-12.794c-0.72-4.263,0.267-8.339,3.246-11.579c1.959-2.13,2.405-4.159,0.948-6.637
		c-0.148-0.252-0.103-0.617-0.147-0.93C18.873,66.095,18.992,66.075,19.11,66.046z"/>
	<path fill="#616161" d="M75.196,8.443C70.072,7.695,64.905,8.384,59.77,7.978C61.989,6.743,73.284,7.084,75.196,8.443z"/>
	<path fill="#616161" d="M88.151,11.807c-3.995-0.56-7.76-1.942-11.546-3.246C80.725,8.678,84.537,9.891,88.151,11.807z"/>
	<path fill="#7C7C7C" d="M17.789,49.291c0.558,3.526,0.615,7.052-0.013,10.576C17.019,56.341,17.01,52.816,17.789,49.291z"/>
	<path fill="#616161" d="M35.903,20.7c-1.881,2.806-4.371,5.017-6.97,7.119C30.616,24.819,33.076,22.579,35.903,20.7z"/>
	<path fill="#616161" d="M122.593,98.109c0.951-2.739,1.94-5.463,3.327-8.022C125.596,93.087,124.763,95.875,122.593,98.109z"/>
	<path fill="#616161" d="M122.61,43.99c-0.968-1.813-1.89-3.646-2.409-5.65C121.879,39.85,122.751,41.704,122.61,43.99z"/>
	<path fill="#616161" d="M119.403,108.41c0.097-1.865,0.203-3.729,1.263-5.367C120.792,104.96,120.766,106.842,119.403,108.41z"/>
	<path fill="#616161" d="M125.977,79.028c-1.027-1.236-1.558-2.696-1.923-4.232C125.403,75.885,126.27,77.193,125.977,79.028z"/>
	<path fill="#616161" d="M108.322,127.088c0.059-1.673,0.565-3.164,1.779-4.367C110.077,124.408,109.367,125.816,108.322,127.088z"
		/>
	<path fill="#616161" d="M28.669,28.265c-0.328,1.484-1.395,2.289-2.669,2.903C26.347,29.701,27.453,28.932,28.669,28.265z"/>
	<path fill="#616161" d="M121.296,68.066c-0.091-1.476,0.442-2.744,1.301-3.902C122.855,65.695,122.249,66.938,121.296,68.066z"/>
	<path fill="#616161" d="M57.38,8.615C56.255,9.555,54.945,9.92,53.5,9.87C54.6,8.854,55.885,8.411,57.38,8.615z"/>
	<path fill="#616161" d="M50.324,11.38c-0.952,0.926-2.143,1.296-3.418,1.468C47.705,11.566,48.924,11.262,50.324,11.38z"/>
	<path fill="#616161" d="M120.784,101.63c-0.089-1.305,0.434-2.313,1.485-3.066C122.285,99.834,121.739,100.831,120.784,101.63z"/>
	<path fill="#616161" d="M112.948,117.378c0.83-0.755,1.887-0.823,2.92-0.966C115.18,117.594,114.155,117.761,112.948,117.378z"/>
	<path fill="#616161" d="M110.274,121.837c-0.325-1.248-0.104-2.321,0.997-3.112C111.278,119.87,111.123,120.965,110.274,121.837z"
		/>
	<path fill="#616161" d="M43.6,14.966c-0.313,1.295-1.264,1.679-2.455,1.721C41.678,15.706,42.544,15.2,43.6,14.966z"/>
	<path fill="#616161" d="M118.434,113.202c-0.212-0.977,0.039-1.808,0.788-2.48C119.633,111.763,119.256,112.553,118.434,113.202z"
		/>
	<path fill="#7C7C7C" d="M19.11,66.046c-0.117,0.029-0.236,0.049-0.356,0.06c-0.354-0.605-0.959-1.162-0.379-1.949
		C19.23,64.549,18.91,65.398,19.11,66.046z"/>
	<path fill="#616161" d="M120.779,70.427c-0.287-0.604-0.272-1.126,0.401-1.467C121.697,69.627,121.438,70.081,120.779,70.427z"/>
	<path fill="#7C7C7C" d="M17.897,60.797c0.767,0.36,0.674,0.946,0.414,1.576C17.697,61.973,17.391,61.492,17.897,60.797z"/>
	<path fill="#616161" d="M97.653,138.917c0.2-0.696,0.651-1.017,1.379-0.928C98.927,138.824,98.4,139.033,97.653,138.917z"/>
	<path fill="#616161" d="M101,18.607c-0.59,0.155-0.948-0.047-1.029-0.671C100.599,17.724,100.958,17.924,101,18.607z"/>
	<path fill="#616161" d="M106.265,130.711c-0.1-0.552,0.121-0.872,0.684-0.944C107.203,130.43,106.924,130.708,106.265,130.711z"/>
	<path fill="#616161" d="M104.371,133.177c-0.135-0.596,0.1-0.93,0.707-1.002C105.292,132.826,105.047,133.153,104.371,133.177z"/>
	<path fill="#616161" d="M99.497,137.682c0.092-0.578,0.426-0.785,0.987-0.641C100.463,137.729,100.115,137.914,99.497,137.682z"/>
	<path fill="#616161" d="M25.741,31.548c0.171,0.614-0.036,0.982-0.689,1.059C24.874,31.989,25.1,31.633,25.741,31.548z"/>
	<path fill="#616161" d="M24.783,32.99c0.18,0.578,0.005,0.951-0.615,1.069C23.907,33.435,24.109,33.077,24.783,32.99z"/>
	<path fill="#616161" d="M117.967,35.01c-0.571-0.095-0.779-0.428-0.648-0.985C117.99,34.054,118.234,34.364,117.967,35.01z"/>
	<path fill="#616161" d="M23.874,34.514c0.135,0.599-0.105,0.925-0.715,0.98C22.949,34.84,23.238,34.551,23.874,34.514z"/>
	<path fill="#616161" d="M22.893,35.915c0.163,0.632-0.071,0.977-0.733,1.013C22.027,36.317,22.251,35.965,22.893,35.915z"/>
	<path fill="#616161" d="M119.889,37.893c-0.596-0.078-0.804-0.413-0.652-0.986C119.906,36.937,120.094,37.285,119.889,37.893z"/>
	<path fill="#616161" d="M21.416,37.78c0.176,0.578-0.004,0.952-0.618,1.076C20.529,38.225,20.735,37.866,21.416,37.78z"/>
	<path fill="#7C7C7C" d="M18.297,47.213c0.286,0.542,0.297,1.007-0.364,1.28C17.545,47.922,17.716,47.51,18.297,47.213z"/>
	<path fill="#616161" d="M122.99,48.298c-0.532-0.194-0.559-0.54-0.291-0.974C123.286,47.502,123.451,47.806,122.99,48.298z"/>
	<path fill="#616161" d="M122.768,61.857c-0.28-0.469-0.225-0.836,0.32-1.055C123.506,61.313,123.402,61.665,122.768,61.857z"/>
	<path fill="#616161" d="M112.728,28.773c-0.655-0.064-0.839-0.431-0.664-1.03C112.703,27.817,112.935,28.153,112.728,28.773z"/>
	<path fill="#616161" d="M110.604,26.285c-0.6,0.159-0.961-0.043-1.031-0.683C110.193,25.411,110.542,25.631,110.604,26.285z"/>
	<path fill="#616161" d="M106.268,22.455c-0.588,0.158-0.95-0.03-1.02-0.666C105.868,21.581,106.22,21.784,106.268,22.455z"/>
	<path fill="#616161" d="M104.336,21.021c-0.571,0.123-0.902-0.108-1.002-0.68C103.975,20.115,104.304,20.348,104.336,21.021z"/>
	<path fill="#616161" d="M126.14,88.266c-0.275-0.479-0.216-0.853,0.338-1.07C126.904,87.723,126.775,88.075,126.14,88.266z"/>
	<path fill="#616161" d="M37.84,19.308c-0.003,0.655-0.322,0.912-0.962,0.77C36.884,19.428,37.226,19.199,37.84,19.308z"/>
	<path fill="#EBC39D" d="M91.767,137.963c-2.355,6.944-7.591,9.68-14.521,9.959c-5.357,0.216-10.716,0.402-16.052-0.277
		c-5.083-0.648-9.163-2.697-10.862-8.011c-0.451-1.412-1.156-2.743-1.989-4.679c-0.534,2.226-1.185,2.329-2.35,1.021
		c-2.073-2.326-4.217-4.609-6.508-6.718c-3.932-3.619-5.783-8.066-6.06-13.341c-0.226-4.312-0.612-8.603-0.254-12.935
		c0.344-4.166-0.021-8.328-1.081-12.37c-1.08-4.121-1.786-8.271-1.817-12.532c0.029-0.644,0.059-1.289,0.089-1.933
		c0.248-2.461,0.318-4.957,0.786-7.375c0.693-3.577,2.966-7.034,0.479-10.754c-0.151-0.226-0.071-0.626-0.048-0.941
		c0.027-0.377,0.316-0.608,0.642-0.512c3.713,1.099,6.479-1.471,9.668-2.419c1.646-0.489,2.906-3.108,5.126-1.041
		c0.18,0.168,0.889-0.204,1.34-0.359c1.761-0.603,3.247-1.684,4.774-2.708c1.302-0.873,2.494-1.992,4.169-2.219
		c0.036,3.655,0.04,3.669,3.598,2.828c4.35-1.028,8.691-2.097,13.043-3.116c0.674-0.158,1.565-0.701,2.042-0.16
		c1.208,1.372,2.319,0.538,3.448,0.08c1.994-0.807,3.955-1.696,5.943-2.52c1.906-0.79,3.226-0.214,3.993,1.729
		c0.572,1.45,1.237,2.864,1.895,4.372c1.283-0.895,1.118-2.614,2.404-3.309c1.076,0.972,1.519,2.274,2.102,3.489
		c0.598,1.248,1.19,2.499,1.984,4.167c0.583-1.523,0.13-2.889,1.294-3.688c1.049,1.435,0.67,3.302,1.324,5.047
		c0.433-0.393,0.677-0.582,0.882-0.806c1.843-2.001,1.883-1.996,3.324,0.425c1.841,3.095,1.848,6.54,2.018,9.979
		c0.023,0.461-1.251,2.95,1.336,1.44c0.463-0.271,0.477,0.507,0.554,0.805c1.618,6.266,2.318,12.563,0.452,18.912
		c-2.295,7.81-2.114,15.741-1.178,23.71c-0.198,2.522-0.301,5.056-0.614,7.564c-0.769,6.165-4.102,10.892-8.617,14.912
		c-1.541,1.372-3.104,2.72-4.658,4.079c-1.34-0.505-0.258-1.254-0.17-1.883c0.139-0.992,0.968-1.888,0.542-3.485
		c-0.502,0.906-0.805,1.348-1.006,1.833C92.722,135.458,92.253,136.714,91.767,137.963z M62.648,114.566l0.051-0.039
		c-1.434,0.052-2.869,0.09-4.302,0.159c-1.364,0.066-2.785,0.217-4.037-0.317c-2.176-0.929-2.138-1.018-3.898,0.685
		c2.961,0.132,5.815,1.332,8.826,0.776c1.682,2.478,4.092,3.286,6.963,3.04c3.281,4.375,7.038,4.378,9.835,0.008
		c2.779,0.302,4.897-0.705,6.28-3.169c0.629-0.089,1.259-0.179,1.888-0.268c1.099,0.02,2.095-0.288,3.478-0.964
		c-1.556-0.7-2.508,0.137-3.511,0.236c-2.062-0.132-4.237,0.104-6.157-0.489c-2.336-0.721-4.48-1.131-6.729-0.029
		c-0.974,0.477-1.766,0.184-2.632-0.358c-1.292-0.809-2.693-0.967-4.1-0.197C63.687,113.393,63.239,114.131,62.648,114.566z
		 M50.184,77.914c-1.585,0.218-3.155,0.491-4.538,1.374c-1.133,0.724-2.847,1.494-2.115,2.983c0.668,1.357,2.31,0.414,3.367-0.082
		c3.312-1.554,6.657-1.795,9.928-0.193c1.971,0.966,2.82,0.61,2.964-1.537c2.541,0.847,3.794-0.085,3.742-2.711
		c-0.033-1.651-0.597-2.849-2.15-3.663c-2.145-1.124-4.322-2.086-6.753-2.294c-2.699-0.231-5.435-0.203-8.096-0.643
		c-1.831-0.302-3.289,0.035-4.711,1.071c-3.093,2.255-4.254,5.735-6.1,8.94c1.122,0.285,1.453-0.423,1.988-0.687
		c3.938-1.949,7.554-5.104,12.483-3.29C50.189,77.427,50.187,77.67,50.184,77.914z M104.986,79.086
		c-1.739-2.369-3.355-4.843-5.257-7.073c-1.555-1.822-3.51-3.648-6.092-3.224c-2.704,0.444-5.401,0.309-8.091,0.581
		c-2.5,0.253-4.862,0.857-7.018,2.179c-2.266,1.389-2.79,2.985-1.771,5.402c0.751,1.782,2.398,2.21,3.768,0.821
		c0.95-0.963,2.032-1.528,3.28-1.842c5.543-1.396,11.036-2.57,16.345,0.971C101.56,77.842,103.166,78.559,104.986,79.086z
		 M87.809,78.055c-1.173,0-2.206-0.009-3.238,0.002c-1.764,0.018-3.531,1.657-3.636,3.406c-0.056,0.938,0.116,1.68,1.336,1.056
		c4.043-2.068,8.078-2.02,12.147-0.03c0.83,0.406,2.096,0.869,2.606-0.045c0.655-1.172-0.442-2.007-1.374-2.683
		C93.24,78.013,90.507,77.795,87.809,78.055z M78.694,98.578c-4.302,3.223-9.007,4.229-14.197,4.705
		c0.543,0.306,0.741,0.512,0.945,0.519c2.545,0.087,5.09,0.177,7.636,0.205C76.67,104.046,78.108,102.748,78.694,98.578z
		 M96.078,115.42c1.846-1.798,2.929-4.02,4.084-6.967C97.073,110.325,96.038,112.575,96.078,115.42z M73.609,86.564
		c-0.171,7.214-0.171,7.214,1.42,7.512C73.641,91.727,74.748,88.978,73.609,86.564z M39.954,110.752
		c0.719,1.733,1.207,3.6,2.88,5.478C42.326,113.686,41.896,111.802,39.954,110.752z"/>
	<path fill="#1D1612" d="M30.362,76.145c-0.03,0.645-0.059,1.289-0.089,1.933c-0.774,0.808-1.391,1.515-2.234-0.086
		c-3.5-6.649-6.8-13.332-6.658-21.131c0.074-4.062-0.083-8.126,0.482-12.175c0.258-1.846,1.379-3.217,2.285-4.686
		c6.576-10.657,15.163-19.187,26.376-24.988c7.571-3.917,15.477-4.381,23.702-2.946c10.992,1.919,20.845,6.463,29.424,13.428
		c5.746,4.665,10.957,10.027,13.793,17.161c1.202,3.024,1.13,6.253,1.329,9.394c0.441,6.997-0.516,13.82-3.525,20.25
		c-0.258,0.552-0.36,1.068,0.253,1.465c-0.057,0.672-0.431,1.185-0.84,1.682c-0.393-0.701-0.781-0.693-1.221-0.025
		c-0.551,0.837-1.134,1.652-1.997,2.903c-0.628-3.224-1.048-6.013-1.739-8.733c-0.605-2.379-0.276-4.378,0.968-6.545
		c2.822-4.917,2.396-10.416,1.57-15.656c-0.964-6.113-4.718-10.883-9.17-15.054c-0.348-0.326-0.673-1.002-1.444-0.307
		c1.377,1.635,2.858,3.181,4.098,4.901c5.544,7.689,7.628,15.976,4.093,25.16c-0.219,0.57-0.219,1.474-1.064,1.318
		c-0.812-0.15-0.981-1.043-0.925-1.743c0.168-2.111-0.839-3.892-1.593-5.707c-0.676-1.626-1.987-3.907-3.312-3.792
		c-2.216,0.194-2.04-1.069-2.489-2.196c-0.556-1.398-1.316-1.425-2.306-0.387c-0.271,0.284-0.319,1.014-1.036,0.665
		c-0.317-0.721-0.441-1.721-0.995-2.115c-1.222-0.869-1.645-4.204-4.232-1.585c-0.472,0.478-0.787-0.168-1.063-0.551
		c-2.444-3.392-3.804-3.76-7.762-2.089c-1.094,0.462-2.253,1.509-3.238,1.356c-3.986-0.619-7.448,1.226-11.134,1.957
		c-3.148,0.624-6.269,1.381-9.351,2.069c-0.333-1.613,1.774-3.147,0.951-3.484c-1.452-0.595-3.394-0.071-4.902,0.969
		c-0.066,0.045-0.122,0.106-0.19,0.146c-1.653,0.963-3.268,1.973-4.783,3.159c-0.677,0.53-2.249,1.227-2.42,0.436
		c-0.75-3.451-1.986-0.781-2.778-0.272c-3.141,2.021-6.351,3.827-10.033,4.633c-0.356-0.897,0.641-1.663-0.229-2.443
		c-1.718,1.661-3.77,2.712-6.67,3.617c1.224-1.825,2.143-3.092,2.953-4.425c1.65-2.717,3.43-5.38,4.113-8.564
		c0.826-0.489,1.204-1.132,0.619-2.34c-0.429,0.707-0.77,1.271-1.112,1.835c-2.493,4.495-5.134,8.899-7.977,13.183
		c-0.364,0.548-1.3,1.179-0.821,1.811c0.604,0.797,1.576,0.292,2.397-0.028c0.615-0.24,1.669-0.993,1.844-0.122
		c0.464,2.311,2.233,4.437,1.056,7.03c-1.401,3.086-1.52,6.436-1.754,9.745C29.527,74.891,29.219,75.845,30.362,76.145z
		 M36.215,39.609c0.192,0.076,0.384,0.153,0.576,0.229c0.444-0.965,1.078-1.877,0.66-3.641
		C36.918,37.666,36.566,38.637,36.215,39.609z"/>
	<path fill="#0F0D0B" d="M30.362,76.145c-1.144-0.3-0.835-1.254-0.784-1.971c0.234-3.308,0.352-6.659,1.754-9.745
		c1.177-2.592-0.592-4.719-1.056-7.03c-0.175-0.871-1.229-0.118-1.844,0.122c-0.821,0.32-1.792,0.825-2.397,0.028
		c-0.479-0.632,0.457-1.263,0.821-1.811c2.843-4.285,5.484-8.688,7.977-13.183c0.164,0.168,0.329,0.336,0.493,0.505
		c-0.683,3.185-2.464,5.847-4.113,8.564c-0.809,1.333-1.729,2.6-2.953,4.425c2.9-0.905,4.952-1.956,6.67-3.617
		c0.87,0.781-0.128,1.546,0.229,2.443c3.682-0.806,6.892-2.611,10.033-4.633c0.792-0.509,2.029-3.179,2.778,0.272
		c0.172,0.791,1.743,0.094,2.42-0.436c1.515-1.186,3.13-2.196,4.783-3.159c0.068-0.04,0.125-0.1,0.19-0.146
		c1.508-1.039,3.45-1.564,4.902-0.969c0.823,0.337-1.284,1.871-0.951,3.484c3.082-0.687,6.203-1.445,9.351-2.069
		c3.686-0.731,7.148-2.576,11.134-1.957c0.985,0.153,2.145-0.894,3.238-1.356c3.958-1.671,5.318-1.303,7.762,2.089
		c0.276,0.383,0.591,1.029,1.063,0.551c2.588-2.619,3.011,0.716,4.232,1.585c0.554,0.394,0.678,1.394,0.995,2.115
		c0.717,0.349,0.765-0.381,1.036-0.665c0.99-1.038,1.75-1.011,2.306,0.387c0.449,1.128,0.272,2.39,2.489,2.196
		c1.326-0.116,2.637,2.166,3.312,3.792c0.754,1.815,1.761,3.596,1.593,5.707c-0.056,0.7,0.113,1.594,0.925,1.743
		c0.845,0.156,0.845-0.748,1.064-1.318c3.536-9.184,1.451-17.471-4.093-25.16c-1.24-1.72-2.721-3.266-4.098-4.901
		c0.772-0.694,1.096-0.019,1.444,0.307c4.452,4.171,8.206,8.941,9.17,15.054c0.826,5.24,1.253,10.739-1.57,15.656
		c-1.244,2.167-1.573,4.166-0.968,6.545c0.691,2.72,1.111,5.509,1.739,8.733c0.863-1.25,1.446-2.066,1.997-2.903
		c0.44-0.669,0.828-0.676,1.221,0.025c-1.178,1.997-1.925,4.109-2.206,6.445c-0.177,1.469-0.819,2.881-1.252,4.319
		c-0.603,0.342-0.523,0.926-0.524,1.481c-2.374,7.554-3.34,15.197-1.451,23.019c-0.489,0.164-0.979,0.327-1.468,0.491
		c-0.936-7.969-1.117-15.9,1.178-23.71c1.866-6.35,1.166-12.646-0.452-18.912c-0.077-0.298-0.091-1.075-0.554-0.805
		c-2.587,1.51-1.314-0.978-1.336-1.44c-0.17-3.439-0.177-6.885-2.018-9.979c-1.441-2.421-1.48-2.425-3.324-0.425
		c-0.206,0.223-0.449,0.413-0.882,0.806c-0.654-1.745-0.275-3.612-1.324-5.047c-1.164,0.799-0.711,2.164-1.294,3.688
		c-0.794-1.669-1.386-2.92-1.984-4.167c-0.583-1.215-1.026-2.516-2.102-3.489c-1.286,0.695-1.12,2.414-2.404,3.309
		c-0.658-1.508-1.322-2.922-1.895-4.372c-0.767-1.944-2.087-2.519-3.993-1.729c-1.988,0.823-3.949,1.713-5.943,2.52
		c-1.13,0.457-2.24,1.292-3.448-0.08c-0.476-0.541-1.368,0.002-2.042,0.16c-4.352,1.02-8.693,2.088-13.043,3.116
		c-3.558,0.841-3.562,0.826-3.598-2.828c-1.676,0.226-2.868,1.345-4.169,2.219c-1.527,1.024-3.013,2.105-4.774,2.708
		c-0.452,0.155-1.16,0.527-1.34,0.359c-2.22-2.067-3.48,0.552-5.126,1.041c-3.189,0.948-5.955,3.519-9.668,2.419
		c-0.326-0.097-0.615,0.135-0.642,0.512c-0.022,0.315-0.103,0.716,0.048,0.941c2.486,3.721,0.213,7.177-0.479,10.754
		C30.68,71.188,30.61,73.684,30.362,76.145z"/>
	<path fill="#E7BF9A" d="M111.202,86.21c0.433-1.438,1.076-2.851,1.252-4.319c0.281-2.335,1.028-4.448,2.206-6.445
		c0.408-0.496,0.783-1.01,0.84-1.682c1.712-1.363,3.066-0.334,4.169,0.831c2.591,2.737,3.988,5.952,3.346,9.83
		c-0.773,4.674-1.931,9.198-4.38,13.346c-1.535,2.599-1.459,5.695-2.15,8.557c-0.374,1.55-0.714,3.119-1.236,4.621
		c-0.511,1.471-1.284,2.818-3.194,2.715c-1.858-0.1-2.564-1.32-2.828-2.955c-1.889-7.823-0.923-15.465,1.451-23.019
		c1.055,0.606,0.487,1.572,0.463,2.366c-0.096,3.208,0.337,6.296,1.832,9.739c0.153-1.459,0.283-2.386,0.343-3.318
		c0.194-3.026,0.176-6.093,1.549-8.902c0.621-1.271,1.259-3.208,2.698-2.965c1.177,0.199,0.582,2.23,0.702,4.08
		c1.108-1.953,1.165-3.49,1.051-5.047c-0.113-1.541-0.911-3.008-2.166-3.518c-1.104-0.448-1.535,1.291-2.294,2.023
		c-0.627,0.605-1.048,1.428-1.688,2.016C112.465,84.81,112.695,86.352,111.202,86.21z"/>
	<path fill="#E8C09B" d="M21.959,85.786c1.048-1.968,1.965-1.233,2.887,0.122c1.583,2.324,2.133,4.954,2.318,7.694
		c0.127,1.879,0.239,3.759,0.554,5.649c1.293-2.782,1.866-5.682,1.815-8.71c0.311,0.207,0.622,0.415,0.933,0.622
		c1.075,4.34,2.075,8.696,1.558,13.217c-0.29,2.531-0.709,5.047-1.039,7.574c-0.148,1.131-1.078,1.312-1.879,1.564
		c-1.188,0.373-2.203-0.04-2.974-1.004c-1.081-1.353-1.528-2.995-1.818-4.63c-0.835-4.71-1.898-9.269-4.065-13.651
		c-1.935-3.913-2.798-8.314-2.697-12.77c0.072-3.151,1.618-5.647,4.024-7.551c1.361-1.077,2.56-1.219,3.534,0.839
		c1.454,3.071,3.685,5.836,3.002,9.56c-0.16,0.037-0.319,0.075-0.479,0.112c-0.798-0.971-1.595-1.943-2.394-2.914
		c-1.632-1.986-2.048-1.94-3.345,0.362c-0.694,1.232-0.756,2.533-0.443,3.879c0.035,0.123,0.07,0.246,0.105,0.368
		C21.691,86.008,21.825,85.897,21.959,85.786z"/>
	<path fill="#312921" d="M91.767,137.963c0.486-1.248,0.955-2.504,1.468-3.741c0.201-0.485,0.503-0.927,1.006-1.833
		c0.426,1.597-0.403,2.493-0.542,3.485c-0.088,0.629-1.17,1.378,0.17,1.883C93.231,138.463,92.472,137.938,91.767,137.963z"/>
	<path fill="#0F0D0B" d="M27.634,84.423c0.16-0.037,0.319-0.075,0.479-0.112c0.494,0.064,0.955,0.178,0.885,0.824
		c-0.012,0.108-0.186,0.288-0.277,0.283C28.106,85.38,27.693,85.086,27.634,84.423z"/>
	<path fill="#0F0D0B" d="M30.466,91.164c-0.311-0.207-0.622-0.415-0.933-0.622c-0.337-0.315-0.47-0.767,0.074-0.823
		C30.743,89.602,30.453,90.511,30.466,91.164z"/>
	<path fill="#0F0D0B" d="M28.465,86.526c0.021-0.059,0.04-0.166,0.063-0.166c0.067-0.002,0.135,0.038,0.202,0.062
		c-0.021,0.059-0.04,0.166-0.063,0.167C28.6,86.59,28.532,86.55,28.465,86.526z"/>
	<path fill="#0F0D0B" d="M21.959,85.786c-0.134,0.111-0.268,0.222-0.402,0.332c-0.035-0.123-0.07-0.246-0.105-0.368
		C21.621,85.762,21.79,85.774,21.959,85.786z"/>
	<path fill="#241C17" d="M50.192,77.183c-4.929-1.814-8.545,1.34-12.483,3.29c-0.535,0.265-0.866,0.972-1.988,0.687
		c1.846-3.206,3.007-6.685,6.1-8.94c1.422-1.037,2.881-1.374,4.711-1.071c2.661,0.44,5.397,0.411,8.096,0.643
		c2.431,0.208,4.608,1.17,6.753,2.294c1.554,0.814,2.117,2.012,2.15,3.663c0.052,2.626-1.201,3.558-3.742,2.711
		c0,0,0.025,0.044,0.025,0.044c-0.083-0.596-0.53-0.51-0.936-0.498c-0.951-1.334-2.085-2.299-3.882-1.931
		C53.494,77.24,51.855,77.147,50.192,77.183z"/>
	<path fill="#231B16" d="M104.986,79.086c-1.82-0.528-3.426-1.244-4.835-2.184c-5.308-3.541-10.802-2.367-16.345-0.971
		c-1.248,0.314-2.331,0.879-3.28,1.842c-1.37,1.389-3.017,0.961-3.768-0.821c-1.019-2.417-0.494-4.013,1.771-5.402
		c2.155-1.321,4.517-1.926,7.018-2.179c2.689-0.272,5.387-0.137,8.091-0.581c2.582-0.424,4.537,1.401,6.092,3.224
		C101.631,74.243,103.246,76.718,104.986,79.086z"/>
	<path fill="#E0B189" d="M66.25,118.87c-2.871,0.246-5.281-0.563-6.963-3.04c1.083-0.577,2.542-0.17,3.412-1.303
		c0,0-0.051,0.039-0.051,0.039c0.611-0.541,1.35,0.265,1.97-0.187c3.6,0.308,7.187,1.364,10.816,0.147
		c0.34-0.114,0.835-0.039,1.165,0.13c1.823,0.938,3.799,0.954,5.767,1.052c-1.383,2.464-3.501,3.471-6.28,3.169
		C72.807,118.667,69.529,117.724,66.25,118.87z"/>
	<path fill="#0F0D0B" d="M87.809,78.055c2.698-0.261,5.431-0.043,7.841,1.705c0.931,0.675,2.028,1.511,1.374,2.683
		c-0.511,0.914-1.777,0.451-2.606,0.045c-4.07-1.99-8.104-2.038-12.147,0.03c-1.22,0.624-1.392-0.118-1.336-1.056
		c0.105-1.748,1.872-3.388,3.636-3.406C85.604,78.047,86.637,78.055,87.809,78.055z"/>
	<path fill="#070606" d="M54.996,78.073c1.797-0.367,2.931,0.598,3.882,1.931c0.201,0.375,0.302,0.937,0.936,0.498
		c0,0-0.025-0.044-0.025-0.044c-0.143,2.147-0.992,2.503-2.963,1.537c-3.271-1.602-6.616-1.361-9.928,0.193
		c-1.057,0.496-2.699,1.439-3.367,0.082c-0.733-1.489,0.981-2.26,2.115-2.983c1.382-0.883,2.952-1.156,4.537-1.374
		C51.788,77.967,53.392,78.02,54.996,78.073z"/>
	<path fill="#1D1612" d="M78.694,98.578c-0.586,4.17-2.024,5.468-5.615,5.429c-2.546-0.028-5.092-0.117-7.636-0.205
		c-0.205-0.007-0.402-0.213-0.945-0.519C69.686,102.806,74.392,101.801,78.694,98.578z"/>
	<path fill="#0F0D0B" d="M66.25,118.87c3.279-1.146,6.557-0.203,9.835,0.008C73.288,123.248,69.531,123.245,66.25,118.87z"/>
	<path fill="#1D1612" d="M82.365,115.709c-1.967-0.099-3.943-0.114-5.767-1.052c-0.329-0.169-0.824-0.244-1.165-0.13
		c-3.629,1.217-7.216,0.161-10.816-0.147c-0.005-0.247-0.01-0.494-0.016-0.74c1.406-0.769,2.808-0.612,4.1,0.197
		c0.866,0.542,1.658,0.836,2.632,0.358c2.249-1.102,4.393-0.692,6.729,0.029c1.92,0.593,4.095,0.357,6.156,0.489
		c0.011,0.243,0.022,0.485,0.033,0.728C83.624,115.53,82.994,115.619,82.365,115.709z"/>
	<path fill="#241C17" d="M62.699,114.527c-0.87,1.133-2.329,0.726-3.412,1.303c-3.011,0.555-5.865-0.645-8.826-0.777
		c1.761-1.704,1.723-1.614,3.898-0.685c1.252,0.534,2.673,0.383,4.037,0.317C59.83,114.616,61.265,114.578,62.699,114.527z"/>
	<path fill="#241C17" d="M96.078,115.42c-0.039-2.846,0.995-5.095,4.084-6.967C99.007,111.4,97.924,113.623,96.078,115.42z"/>
	<path fill="#1D1612" d="M73.609,86.564c1.139,2.414,0.032,5.163,1.42,7.512C73.438,93.778,73.438,93.778,73.609,86.564z"/>
	<path fill="#312921" d="M39.954,110.752c1.942,1.05,2.372,2.934,2.88,5.478C41.16,114.352,40.672,112.485,39.954,110.752z"/>
	<path fill="#E0B189" d="M54.996,78.073c-1.604-0.053-3.208-0.106-4.812-0.159c0.003-0.244,0.005-0.487,0.008-0.731
		C51.855,77.147,53.494,77.24,54.996,78.073z"/>
	<path fill="#535353" d="M84.253,115.44c-0.011-0.243-0.022-0.485-0.033-0.728c1.004-0.099,1.956-0.935,3.512-0.236
		C86.348,115.152,85.352,115.46,84.253,115.44z"/>
	<path fill="#312921" d="M64.602,113.639c0.005,0.247,0.01,0.494,0.016,0.74c-0.62,0.452-1.359-0.354-1.97,0.187
		C63.239,114.131,63.687,113.393,64.602,113.639z"/>
	<path fill="#070606" d="M36.215,39.609c0.352-0.971,0.704-1.943,1.236-3.412c0.418,1.764-0.216,2.676-0.66,3.641
		C36.598,39.762,36.407,39.685,36.215,39.609z"/>
	<path fill="#070606" d="M35.327,43.06c-0.164-0.168-0.329-0.336-0.493-0.505c0.342-0.564,0.683-1.127,1.112-1.835
		C36.531,41.928,36.153,42.57,35.327,43.06z"/>
	<path fill="#120F0C" d="M111.202,86.21c1.493,0.141,1.263-1.4,1.965-2.044c0.64-0.587,1.061-1.41,1.688-2.016
		c0.759-0.732,1.191-2.471,2.294-2.023c1.255,0.51,2.053,1.977,2.166,3.518c0.114,1.556,0.057,3.094-1.051,5.047
		c-0.12-1.851,0.476-3.881-0.702-4.08c-1.439-0.244-2.077,1.694-2.698,2.965c-1.373,2.809-1.355,5.876-1.549,8.902
		c-0.06,0.932-0.189,1.859-0.343,3.318c-1.496-3.443-1.928-6.531-1.832-9.739c0.024-0.794,0.592-1.76-0.463-2.366
		C110.679,87.136,110.599,86.552,111.202,86.21z"/>
	<path fill="#EBC39D" d="M59.815,80.502c-0.634,0.439-0.735-0.124-0.936-0.498C59.285,79.992,59.731,79.907,59.815,80.502z"/>
</g>
</svg>
