<?xml version="1.0" encoding="utf-8"?>
<!-- Generator: Adobe Illustrator 17.0.0, SVG Export Plug-In . SVG Version: 6.00 Build 0)  -->
<!DOCTYPE svg PUBLIC "-//W3C//DTD SVG 1.1//EN" "http://www.w3.org/Graphics/SVG/1.1/DTD/svg11.dtd">
<svg version="1.1" id="Layer_1" xmlns="http://www.w3.org/2000/svg" xmlns:xlink="http://www.w3.org/1999/xlink" x="0px" y="0px"
	 width="136px" height="156px" viewBox="0 0 136 156" enable-background="new 0 0 136 156" xml:space="preserve">
<g>
	<path fill="#070605" d="M25.972,35.287c1.593-1.445,2.875-3.229,4.756-4.36c0.156,0.082,0.313,0.163,0.469,0.245
		c0.328,0.25,0.657,0.5,0.985,0.749c0,0-0.008,0.114-0.008,0.114c-0.154-0.002-0.308-0.004-0.463-0.006
		c0.043,0.099,0.087,0.197,0.13,0.296c-1.126,1.099-2.315,2.142-3.361,3.312c-1.132,1.266-2.756,2.533-3.031,4.012
		c-0.353,1.892-0.957,3.741-1.204,5.654c-0.565,0.17-0.898,0.414-0.302,0.952c-0.076,0.643-0.153,1.287-0.229,1.93
		c-0.562,0.201-0.83,0.474-0.232,0.957c0.141,1.153-0.163,2.252-0.406,3.359c-0.765,0.77-0.719,1.57-0.091,2.393
		c0.001,3.054,0.001,6.108,0.002,9.162c-0.644,0.981-0.697,1.942,0.095,2.875c0.13,1.441,0.259,2.881,0.389,4.322
		c-0.581,0.515-0.542,0.993,0.087,1.435c0.251,1.107,0.564,2.207,0.395,3.363c-0.483,0.364-0.395,0.677,0.084,0.956
		c0.113,0.632,0.226,1.264,0.34,1.897c-0.424,0.002-0.849,0.004-1.273,0.006c-1.003-0.784-1.976-1.611-3.015-2.343
		c-2.511-1.768-5.095-1.81-7.774,0.044c-2.566,1.776-4.86,3.893-4.033,7.452c1.083,4.663,2.438,9.219,5.82,12.899
		c2.59,2.818,4.951,5.854,6.383,9.453c0.508,1.278,1.479,1.51,2.556,1.773c-2.227,1.19-0.896,2.389-0.071,3.797
		c1.088-1.262,1.063-2.585,1.018-3.913c0.727-2.999,1.453-5.997,2.18-8.996c0.38,0.314,0.761,0.627,1.141,0.941
		c0.126,0.835,0.043,1.64-0.336,2.404c-0.547,0.241-0.724,0.54-0.147,0.954c0.092,0.517,0.025,1.004-0.278,1.445
		c-0.583,0.221-0.793,0.514-0.182,0.961c-0.28,1.28-0.56,2.56-0.84,3.84c-0.57,0.263-0.702,0.574-0.105,0.964
		c0.066,1.136,0.054,2.265-0.339,3.355c-0.888,0.563-0.776,1.217-0.173,1.915c-0.003,1.771-0.005,3.543-0.008,5.314
		c-0.566,0.4-0.405,0.702,0.13,0.952c1.038,4.387,2.865,8.393,6.587,11.095c7.421,5.387,15.749,8.746,24.827,10.007
		c6.264,0.87,12.601,0.458,18.909,0.48c0.348,0.581,0.67,0.522,0.971-0.04c8.146-0.416,15.514-3.4,22.74-6.868
		c4.915-2.359,8.777-5.778,11.034-10.837c0.576-0.143,0.996-0.345,0.361-0.948c0.221-0.963,0.442-1.926,0.663-2.889
		c0.879-0.333,0.913-0.823,0.267-1.439c-0.002-1.927-0.005-3.854-0.007-5.781c0.629-0.728,0.776-1.396-0.238-1.921
		c-0.077-0.961-0.155-1.921-0.232-2.882c0.649-0.622,0.607-1.111-0.277-1.438c-0.056-0.324-0.113-0.648-0.169-0.972
		c0.599-0.506,0.307-0.766-0.262-0.949c-0.095-0.476-0.191-0.953-0.286-1.429c0.673-0.516,0.369-0.782-0.247-0.969
		c-0.065-0.481-0.13-0.962-0.195-1.443c0.708-0.742,0.521-1.207-0.444-1.429c-0.043-1.275-0.085-2.55-0.128-3.824
		c0.365-0.013,0.73-0.026,1.095-0.039c0.686,3.503,1.312,7.02,2.376,10.437c-0.276,1.297,0.441,2.253,0.919,3.393
		c1.647-1.569,1.476-2.611-0.5-3.252c1.723-0.02,2.677-0.908,3.306-2.509c1.028-2.621,2.669-4.914,4.574-6.965
		c3.506-3.777,5.738-8.159,6.962-13.155c0.933-3.806,0.157-6.198-3.254-8.662c-3.017-2.179-5.667-2.178-8.793,0.052
		c-1.101,0.785-2.149,1.643-3.221,2.468c-0.229-0.018-0.457-0.036-0.686-0.054c0.152-1.745,0.303-3.489,0.455-5.234
		c0.572-0.213,0.8-0.5,0.204-0.961c-0.09-1.304,0.09-2.579,0.423-3.836c0.486-0.289,0.552-0.607,0.064-0.961
		c-0.138-2.415,0.136-4.807,0.418-7.198c0.822-1.769,0.824-3.537-0.001-5.305c-0.32-1.907-0.525-3.821-0.414-5.759
		c0.591-0.488,0.337-0.763-0.24-0.959c-0.642-8.534-5.065-14.873-11.414-20.25c-6.106-5.171-12.744-9.621-19.009-14.567
		c-1.235-0.975-1.812-0.449-2.483,0.489c-1.163,1.624-2.317,2.004-3.702,0.169c-0.687-0.91-1.482-1.449-2.337,0.085
		c-1.298,2.33-2.24,2.207-3.668-0.112c-0.775-1.258-0.561-2.961-1.921-4.235c-0.802,2.072-1.436,3.961-2.762,5.477
		c-0.603,0.689-1.305,1.198-1.82,0.021c-1.184-2.707-2.161-1.473-3.191,0.081c-0.258,0.389-0.489,0.846-1.041,0.855
		c-0.852-0.972-0.229-2.483-1.23-3.517c-4.189,4.596-9.458,7.455-14.604,10.481c-0.646,0.38-1.398,0.926-2.133,0.066l0.016,0.024
		c0.354-0.743,1.556-0.654,1.636-1.666c0.121-0.052,0.223-0.129,0.307-0.231c0.612,0.144,0.986-0.095,1.131-0.704
		c0.129-0.051,0.239-0.129,0.331-0.232c0.614,0.121,0.973-0.14,1.105-0.74c0.129-0.046,0.244-0.117,0.342-0.212
		c0.639,0.126,1.011-0.121,1.091-0.778c3.757-2.792,7.679-5.383,10.855-8.884c0.556-0.057,1.112-0.114,1.669-0.171
		c0.128,0.188,0.255,0.376,0.383,0.564c-0.384,0.68-0.197,1.269,0.494,1.489c0.633,0.201,1.225-0.038,1.353-0.839
		c0.164-0.161,0.327-0.322,0.491-0.484c3.353,0.629,3.353,0.629,3.701-2.999c0.053-0.308,0.105-0.616,0.158-0.924
		c0.657-0.501,0.77-1.904,2.111-1.274c0.692,0.915,1.384,1.83,2.076,2.744c0.059,1.049,0.594,1.886,1.192,2.796
		c0.866-0.596,1.597-1.35,2.674-1.38c0.662,0.534,1.431,0.98,1.965,1.621c1.208,1.451,2.406,1.536,3.747,0.25
		c0.672,0.072,1.301,0.05,1.593-0.719c0.136-0.081,0.272-0.163,0.408-0.244c1.29,0.825,2.663,1.543,3.588,2.83
		c-0.389,0.665,0.051,1.032,0.509,1.373c3.304,2.463,6.593,4.949,9.925,7.374c5.391,3.924,10.66,7.979,14.393,13.634
		c2.044,3.096,3.864,6.31,3.784,10.209c0.03,0.775-0.478,1.75,0.773,2.069c-0.152,2.773,0.936,5.424,0.989,8.12
		c0.093,4.774,0.527,9.584-0.41,14.344c-0.333,1.69,0.103,2.773,2.215,2.551c1.582-0.166,3.198-0.087,4.795-0.014
		c3.618,0.165,7.273,3.236,7.979,6.807c0.936,4.733-1.142,8.877-2.925,12.992c-1.892,4.366-5.722,7.446-8.134,11.493
		c-0.934,1.567-2.121,3.079-1.37,5.104c-0.311,0.056-0.621,0.112-0.931,0.167c-1.035,0.753-1.033,1.858-1.027,2.974
		c0.009,1.512-0.118,2.981-1.421,4.034c-0.69,0.423-0.55,0.78,0.088,1.096c-0.769,0.968-0.582,2.115-0.594,3.22
		c-0.023,2.176-0.369,4.308-1.372,6.237c-2.695,5.183-6.802,8.964-11.902,11.735c-0.803,0.436-1.88,0.538-2.239,1.608
		c-0.132,0.068-0.27,0.121-0.414,0.16c-0.801-0.079-1.64-0.253-1.986,0.799c-0.13,0.07-0.266,0.125-0.409,0.164
		c-1.193-0.047-2.374-0.069-2.942,1.299c-0.293,0.052-0.585,0.104-0.878,0.156c-0.708-0.119-1.382-0.173-1.525,0.794
		c-0.697,0.483-1.514,0.534-2.315,0.645c-2.804,0.326-5.702,0.215-8.247,1.758c-7.954,0.259-15.908,0.383-23.86-0.067
		c-0.109-0.199-0.198-0.558-0.329-0.573c-4.568-0.556-8.827-2.255-13.199-3.53c-0.647-0.154-1.187-0.808-1.951-0.421
		c-0.389-0.155-0.779-0.31-1.168-0.465c-3.207-2.07-6.445-4.088-9.891-5.746c-0.068-0.108-0.158-0.193-0.27-0.255
		c-0.424-1.165-1.223-1.958-2.383-2.389c-0.232-0.26-0.464-0.52-0.695-0.78c0.193-0.872-0.466-1.449-0.757-2.149
		c-0.898-2.156-2.368-4.075-2.675-6.476c0.778-0.509,0.553-0.814-0.206-1.011c-0.746-1.255-0.627-2.667-0.732-4.039
		c0.105-0.603,0.088-1.137-0.697-1.241c-0.176-0.085-0.353-0.17-0.529-0.255c-0.325-1.734-0.65-3.468-0.976-5.202
		c0.287-0.576-0.118-1.09-0.147-1.638c-0.252-1.008,0.824-2.411-0.887-2.986c-2.017-3.131-3.912-6.331-6.282-9.241
		c-1.409-1.731-3.401-3.201-3.563-5.742c0.119-1.126,0.134-2.21-1.132-2.771c-0.533-1.75-1.065-3.5-1.598-5.25
		c0.749-0.542,0.448-0.817-0.251-0.993c-0.79-2.327,0.941-4.094,1.366-6.151c1.121-1.117,2.242-2.234,3.363-3.352
		c2.706-0.947,5.321-2.264,8.36-1.025c0.839,0.342,1.932-0.09,1.536-1.521c0.032-6.382,0.065-12.764,0.097-19.145
		c0.641-0.334,0.77-0.826,0.451-1.457l0.12-0.025c0,0,0.05,0.112,0.05,0.112c1.527-1.411,0.457-3.259,0.82-4.867
		c-0.096-1.306,0.379-2.482,0.854-3.65C23.933,40.174,24.958,37.733,25.972,35.287z"/>
	<path fill="#545454" d="M98.811,141.152c0.36-1.07,1.437-1.172,2.239-1.608c5.1-2.771,9.207-6.552,11.902-11.735
		c1.003-1.929,1.349-4.061,1.372-6.237c0.012-1.106-0.175-2.253,0.592-3.221c0.173-0.199,0.348-0.397,0.523-0.596
		c0,0-0.035,0.024-0.035,0.024c0.56-0.013,1.119-0.027,1.679-0.04c2.259-1.351,2.796-3.3,1.987-5.717
		c-0.01-0.42-0.07-0.81-0.557-0.951l0.022,0.035c0.037-0.387,0.021-0.758-0.323-1.026c-0.752-2.025,0.435-3.537,1.369-5.104
		c2.412-4.047,6.242-7.126,8.134-11.493c1.782-4.114,3.861-8.259,2.925-12.992c-0.707-3.571-4.362-6.642-7.979-6.807
		c-1.596-0.073-3.213-0.152-4.795,0.014c-2.112,0.222-2.548-0.861-2.215-2.551c0.937-4.761,0.504-9.57,0.41-14.344
		c-0.053-2.696-1.141-5.347-0.988-8.12c-0.018-0.779,0.374-1.712-0.773-2.069c0.08-3.899-1.74-7.113-3.784-10.209
		c-3.733-5.655-9.002-9.711-14.393-13.634c-3.332-2.425-6.62-4.911-9.925-7.374c-0.458-0.341-0.898-0.708-0.509-1.373
		c2.998,1.07,5.188,3.357,7.654,5.197c5.367,4.004,10.709,8.033,15.322,12.967c3.961,4.237,6.281,9.115,7.184,14.809
		c1.091,6.882,1.23,13.797,1.106,20.735c-0.011,0.638,0.006,1.286-0.103,1.91c-0.575,3.275-0.569,3.493,2.843,3.199
		c4.269-0.368,7.685,0.792,10.253,4.295c1.623,2.214,2.37,4.502,1.826,7.348c-1.35,7.058-4.982,12.845-9.508,18.211
		c-0.87,1.032-1.574,2.204-2.35,3.315c-1.027,1.471-1.297,2.815-0.361,4.63c1.28,2.482,0.931,6.845-2.909,8.203
		c-0.977,0.346-1.372,0.946-1.351,1.97c0.149,7.516-4.354,12.412-9.664,16.743C103.638,139.175,101.527,140.799,98.811,141.152z"/>
	<path fill="#9C978E" d="M22.916,124.075c0.306,2.401,1.777,4.32,2.675,6.476c0.291,0.7,0.95,1.277,0.757,2.149
		c-2.877-3.32-4.345-7.276-5.095-11.526c-0.157-0.889-0.26-1.559-1.109-2.182c-3.902-2.862-4.388-4.737-2.506-9.18
		c0.401-0.947,0.107-1.617-0.274-2.457c-1.839-4.053-4.835-7.296-7.489-10.765c-1.194-1.561-2.085-3.177-2.642-5.033
		c-0.642-2.137-1.376-4.246-2.014-6.384c-0.94-3.152-0.139-6.026,2.065-7.617c-0.425,2.057-2.156,3.824-1.366,6.151
		c-0.147,0.389-0.09,0.727,0.251,0.993c0.533,1.75,1.065,3.5,1.598,5.25c0.096,1.039,0.235,2.059,1.132,2.771
		c0.162,2.541,2.154,4.011,3.563,5.742c2.369,2.91,4.264,6.11,6.282,9.241c0.378,0.971-0.507,2.316,0.887,2.986
		c0.028,0.548,0.433,1.062,0.147,1.639c-1.985,1.795-1.498,4.392,0.975,5.201c0.176,0.085,0.353,0.17,0.528,0.255
		c-0.831,1.012,0.349,0.893,0.698,1.241c0.106,1.371-0.013,2.784,0.732,4.039C22.572,123.443,22.599,123.788,22.916,124.075z"/>
	<path fill="#545454" d="M42.707,142.756c4.373,1.275,8.632,2.974,13.199,3.53c0.131,0.016,0.22,0.375,0.329,0.573
		c-3.722,0.432-7.11-0.777-10.462-2.141c-1.068-0.435-2.117-0.918-3.175-1.379C42.635,143.145,42.671,142.95,42.707,142.756z"/>
	<path fill="#9C978E" d="M25.972,35.287c-1.014,2.446-2.039,4.887-3.037,7.339c-0.476,1.168-0.95,2.345-0.854,3.65
		c-0.327,0.48-0.654,0.96-0.981,1.439C21.261,43,22.835,38.837,25.972,35.287z"/>
	<path fill="#0F0D0B" d="M32.182,31.922c-0.328-0.25-0.657-0.5-0.985-0.75c0.508-0.521,1.51-0.485,1.628-1.445
		c0.591-0.549,1.182-1.097,1.773-1.646c0.601,0.107,0.979-0.124,1.111-0.731c0.122-0.058,0.231-0.136,0.326-0.233
		c1.097,0.057,1.791-0.966,2.833-1.055c0.015,0.21,0.031,0.419,0.045,0.628c0.025,0.135,0.052,0.271,0.08,0.407
		C36.723,28.705,34.452,30.313,32.182,31.922z"/>
	<path fill="#9C978E" d="M29.697,136.124c3.447,1.658,6.684,3.676,9.891,5.746C35.74,140.904,32.466,138.948,29.697,136.124z"/>
	<path fill="#9C978E" d="M20.542,71.658c0.396,1.431-0.697,1.863-1.536,1.521c-3.039-1.239-5.654,0.078-8.36,1.025
		c1.795-2.245,4.252-2.628,6.83-2.137C18.638,72.287,19.586,72.313,20.542,71.658z"/>
	<path fill="#545454" d="M80.096,146.926c2.545-1.543,5.442-1.432,8.247-1.758C85.839,146.905,83.055,147.329,80.096,146.926z"/>
	<path fill="#9C978E" d="M66.174,8.323c-0.348,3.628-0.348,3.628-3.701,2.999c0.059-0.214,0.157-0.618,0.173-0.615
		C64.641,11.11,65.212,9.425,66.174,8.323z"/>
	<path fill="#9C978E" d="M74.386,10.285c-1.077,0.03-1.808,0.785-2.674,1.38c-0.598-0.911-1.134-1.747-1.192-2.796
		c0.969,0.549,1.812,1.504,3.138,0.727C73.966,9.415,74.396,9.776,74.386,10.285z"/>
	<path fill="#9C978E" d="M38.868,26.062c-1.042,0.089-1.736,1.112-2.833,1.055c0.979-1.417,2.407-2.156,3.999-2.648
		C39.645,24.999,39.256,25.531,38.868,26.062z"/>
	<path fill="#9C978E" d="M68.443,6.125c-1.34-0.63-1.453,0.773-2.111,1.274c-0.714-1.096-0.084-2.007,0.728-2.437
		C67.75,4.598,68.593,4.997,68.443,6.125z"/>
	<path fill="#3B3A39" d="M21.099,47.716c0.327-0.48,0.654-0.96,0.981-1.439c-0.363,1.607,0.707,3.456-0.82,4.867
		C20.811,50.019,21.066,48.862,21.099,47.716z"/>
	<path fill="#070605" d="M38.868,26.062c0.389-0.531,0.777-1.062,1.166-1.593c0.128-0.045,0.24-0.115,0.337-0.21
		c0.305-0.016,0.61-0.031,0.915-0.047c0,0-0.016-0.024-0.016-0.024c0.463,1.68-1.074,1.89-1.918,2.611
		c-0.136-0.08-0.282-0.116-0.439-0.108C38.898,26.481,38.883,26.271,38.868,26.062z"/>
	<path fill="#9C978E" d="M27.043,133.48c1.161,0.431,1.959,1.223,2.383,2.389C28.063,135.64,27.262,134.85,27.043,133.48z"/>
	<path fill="#545454" d="M93.06,143.574c0.567-1.368,1.749-1.347,2.942-1.299C95.401,143.568,94.181,143.458,93.06,143.574z"/>
	<path fill="#9C978E" d="M41.286,24.212c-0.305,0.016-0.61,0.031-0.915,0.047c0.459-1.155,1.334-1.689,2.551-1.714
		C42.843,23.558,41.64,23.468,41.286,24.212z"/>
	<path fill="#9C978E" d="M61.983,11.806c-0.128,0.801-0.72,1.04-1.353,0.839c-0.691-0.22-0.878-0.809-0.494-1.489
		C60.751,11.372,61.367,11.589,61.983,11.806z"/>
	<path fill="#9C978E" d="M32.825,29.727c-0.118,0.96-1.12,0.925-1.628,1.445c-0.156-0.082-0.313-0.163-0.469-0.245
		C31.079,29.919,31.854,29.651,32.825,29.727z"/>
	<path fill="#545454" d="M96.411,142.11c0.346-1.052,1.185-0.878,1.986-0.799C98.031,142.314,97.33,142.484,96.411,142.11z"/>
	<path fill="#9C978E" d="M42.707,142.756c-0.036,0.195-0.072,0.389-0.109,0.583c-0.679-0.215-1.571-0.041-1.842-1.004
		C41.52,141.947,42.06,142.602,42.707,142.756z"/>
	<path fill="#9C978E" d="M21.09,51.056c0.319,0.631,0.19,1.123-0.451,1.457C19.965,51.772,20.293,51.341,21.09,51.056z"/>
	<path fill="#3B3A39" d="M59.753,10.592c-0.556,0.057-1.112,0.114-1.669,0.171C58.519,9.519,59.059,9.314,59.753,10.592z"/>
	<path fill="#545454" d="M81.691,11.437c-0.292,0.769-0.922,0.791-1.593,0.719c-0.043-0.633,0.474-0.812,0.878-1.082
		C81.214,11.195,81.452,11.316,81.691,11.437z"/>
	<path fill="#545454" d="M90.657,144.523c0.143-0.967,0.817-0.913,1.525-0.794C91.869,144.369,91.547,144.992,90.657,144.523z"/>
	<path fill="#9C978E" d="M44.36,21.61c-0.144,0.609-0.518,0.847-1.131,0.704C43.272,21.542,43.675,21.35,44.36,21.61z"/>
	<path fill="#9C978E" d="M45.796,20.638c-0.132,0.6-0.491,0.86-1.105,0.74C44.723,20.629,45.076,20.359,45.796,20.638z"/>
	<path fill="#9C978E" d="M47.229,19.648c-0.08,0.658-0.452,0.905-1.091,0.778C46.18,19.716,46.526,19.432,47.229,19.648z"/>
	<path fill="#9C978E" d="M81.691,11.437c-0.238-0.121-0.477-0.242-0.715-0.364c0.442-0.594,0.842-0.793,1.123,0.119
		C81.963,11.274,81.827,11.356,81.691,11.437z"/>
	<path fill="#9C978E" d="M35.709,27.35c-0.131,0.607-0.51,0.838-1.111,0.731C34.648,27.349,35.026,27.118,35.709,27.35z"/>
	<path fill="#EAC29D" d="M109.915,105.309c0.095,0.476,0.191,0.953,0.286,1.429c-0.12,0.374,0,0.681,0.262,0.949
		c0.056,0.324,0.113,0.648,0.169,0.972c-0.111,0.518-0.009,0.996,0.277,1.438c0.077,0.961,0.155,1.921,0.232,2.882
		c-0.183,0.673-0.07,1.309,0.238,1.921c0.002,1.927,0.005,3.854,0.007,5.781c-0.3,0.44-0.398,0.918-0.267,1.439
		c-0.221,0.963-0.442,1.926-0.663,2.889c-0.12,0.316-0.241,0.632-0.361,0.948c-2.258,5.059-6.12,8.478-11.034,10.837
		c-7.225,3.469-14.594,6.452-22.74,6.868c-0.324,0.013-0.647,0.026-0.971,0.04c-6.308-0.023-12.645,0.39-18.909-0.48
		c-9.077-1.261-17.405-4.62-24.827-10.007c-3.722-2.702-5.548-6.708-6.587-11.095c0.15-0.344,0.124-0.663-0.13-0.952
		c0.003-1.771,0.005-3.543,0.008-5.314c0.318-0.615,0.355-1.255,0.173-1.915c0.393-1.09,0.405-2.218,0.339-3.355
		c0.252-0.298,0.278-0.62,0.105-0.964c0.28-1.28,0.56-2.56,0.84-3.84c0.259-0.283,0.343-0.599,0.182-0.961
		c0.303-0.441,0.37-0.928,0.278-1.445c0.263-0.285,0.309-0.603,0.147-0.954c0.378-0.764,0.461-1.57,0.336-2.404
		c0.314-4.16,1.009-8.312,0.455-12.495c-0.172-1.299,0.09-1.692,1.481-1.457c4.146,0.701,4.154,0.649,4.572,4.769
		c0.073,0.716,0.25,1.435,0.215,2.144c-0.073,1.471,0.585,1.855,1.997,1.897c6.709,0.202,13.414,0.521,20.121,0.795
		c1.197,0.049,2.613-0.298,3.535,0.227c1.178,0.671-0.206,2.136,0.198,3.23c0.095,0.257,0.178,0.519,0.429,1.255
		c1.157-3.592,3.135-6.199,4.964-8.899c0.352-0.519,0.804-1.187,0.741-1.733c-0.319-2.769,1.33-2.827,3.303-2.597
		c0.552,0.064,1.123,0.06,1.676,0c1.234-0.134,1.733,0.338,1.665,1.613c-0.085,1.594,0.092,3.207-0.051,4.793
		c-0.16,1.776,0.372,2.348,2.242,2.252c7.66-0.394,15.327-0.713,22.995-0.86c2.237-0.043,3.12-0.566,3.314-2.972
		c0.408-5.078,0.593-5.003,5.577-6.146c1.588-0.364,2.074-0.015,1.737,1.546c-0.746,3.457,0.402,6.838,0.427,10.265
		c0.043,1.275,0.085,2.55,0.128,3.824c-0.196,0.583,0.039,1.033,0.444,1.429c0.065,0.481,0.13,0.962,0.195,1.443
		C109.556,104.713,109.617,105.041,109.915,105.309z M78.491,105.276c0.907-0.852,2.804-0.368,3.049-1.827
		c0.127-0.758-0.942-1.533-2.156-2.023c0.422,2.401-1.213,2.829-2.852,3.27c-0.535,0.144-1.11,0.255-1.57,0.537
		c-4.574,2.811-9.271,2.366-14.009,0.551c-1.148-0.439-2.282-0.66-3.5-0.477c-1.82,0.273-3.422,0.189-3.251-2.425
		c-2.508,1.935-2.47,2.473,0.037,3.539c-3.122,1.761-6.107,3.827-9.766,4.396c-0.94-0.049-1.88-0.098-2.849-0.149
		c-0.16,1.353,0.404,2.24,1.336,2.956c-0.05,6.56,0.77,13.007,2.558,19.321c0.242,0.853,0.694,1.616,1.639,1.931
		c6.431,2.144,12.824,4.386,19.731,4.54c6.86,0.153,13.2-1.965,19.547-4.14c1.167-0.4,1.783-1.281,2.252-2.337
		c2.798-6.295,3.275-12.92,2.821-19.68c-0.021-0.788,1.869-1.804-0.278-2.339C87.197,108.559,83.288,105.916,78.491,105.276z"/>
	<path fill="#594D3A" d="M39.352,26.798c0.843-0.72,2.381-0.931,1.918-2.611c0.735,0.86,1.486,0.314,2.133-0.066
		c5.146-3.025,10.415-5.884,14.604-10.481c1.001,1.033,0.378,2.545,1.23,3.517c0.553-0.009,0.784-0.467,1.041-0.855
		c1.03-1.554,2.008-2.789,3.191-0.081c0.514,1.177,1.216,0.668,1.82-0.021c1.326-1.515,1.96-3.405,2.762-5.477
		c1.36,1.275,1.146,2.977,1.921,4.235c1.428,2.318,2.369,2.441,3.668,0.112c0.855-1.534,1.65-0.995,2.337-0.085
		c1.384,1.834,2.539,1.455,3.702-0.169c0.671-0.938,1.248-1.464,2.483-0.489c6.265,4.946,12.903,9.396,19.009,14.567
		c6.35,5.378,10.772,11.716,11.412,20.25c-0.215,0.395-0.1,0.705,0.242,0.959c-0.111,1.938,0.094,3.852,0.414,5.759
		c-0.579,1.768-0.58,3.537,0.001,5.305c-0.282,2.391-0.557,4.782-0.418,7.198c-0.423,0.294-0.481,0.611-0.064,0.961
		c-0.333,1.258-0.513,2.532-0.423,3.836c-0.345,0.261-0.426,0.579-0.204,0.961c-0.152,1.745-0.303,3.489-0.453,5.234
		c-0.531,0.301-0.808,0.265-0.878-0.461c-0.312-3.252-0.587-6.516-1.814-9.597c-0.003-0.47-0.006-0.94-0.009-1.41
		c1.256-4.902,1.05-9.892,0.895-14.879c0.375-2.659-1.35-4.919-1.428-7.492l0.031,0.138c0,0-0.134,0.046-0.131,0.043
		c-0.598-3.469-1.917-6.572-4.539-9.019c-0.251-0.85-0.646-1.629-1.281-2.248c-4.898-4.778-10.881-7.527-17.409-9.225
		c-0.802-0.209-1.656-0.158-1.576,1.081c-0.657,0.747-1.313,1.494-1.97,2.241c-0.315,0.028-0.675-0.034-0.937,0.098
		c-6.293,3.155-12.941,2.51-19.596,1.884c-2.084-0.196-4.054-0.664-5.857-1.783c-0.441-0.274-0.633-1.308-1.488-0.616
		c-0.581-0.519-0.599-1.169-0.434-1.862c-0.003-0.836,0.075-1.691-1.263-1.235c-0.898,0.306-1.873,0.386-2.776,0.681
		c-5.549,1.817-10.966,3.875-14.859,8.568c-3.988,3.244-5.85,7.673-6.975,12.513c-0.603,1.871-1.115,3.758-0.94,5.756
		c-0.01,3.581-0.115,7.166,0.012,10.742c0.064,1.804,1.136,3.741,0.726,5.358c-0.984,3.876-1.706,7.76-1.844,12.194
		c-0.475-0.948-0.719-1.435-0.963-1.922c-0.113-0.632-0.226-1.264-0.339-1.897c0.391-0.355,0.358-0.674-0.084-0.956
		c0.169-1.156-0.144-2.256-0.395-3.363c0.455-0.507,0.484-0.989-0.087-1.435c-0.13-1.441-0.259-2.881-0.389-4.322
		c0.523-0.977,0.604-1.939-0.094-2.875c-0.001-3.054-0.001-6.108-0.001-9.161c0.671-0.773,0.598-1.575,0.091-2.393
		c0.243-1.107,0.547-2.206,0.406-3.359c0.365-0.249,0.449-0.566,0.232-0.957c0.076-0.643,0.153-1.287,0.229-1.93
		c0.37-0.232,0.469-0.55,0.302-0.952c0.247-1.913,0.851-3.762,1.204-5.654c0.276-1.478,1.9-2.746,3.031-4.012
		c1.047-1.17,2.235-2.213,3.36-3.312c0.142-0.058,0.254-0.155,0.334-0.29c0,0,0.008-0.114,0.008-0.114
		c2.271-1.608,4.541-3.217,6.81-4.825C39.139,27.03,39.26,26.931,39.352,26.798z"/>
	<path fill="#0F0D0B" d="M108.985,69.298c1.227,3.081,1.502,6.345,1.814,9.597c0.07,0.727,0.347,0.763,0.878,0.461
		c0.227,0.018,0.456,0.036,0.685,0.054c0.027,6.171-3.136,11.927-2.367,18.194c-0.365,0.013-0.73,0.026-1.095,0.039
		c-0.025-3.427-1.173-6.807-0.427-10.265c0.337-1.562-0.149-1.911-1.737-1.546c-4.983,1.143-5.169,1.068-5.577,6.146
		c-0.193,2.406-1.077,2.929-3.314,2.972c-7.668,0.147-15.335,0.466-22.995,0.86c-1.87,0.096-2.402-0.476-2.242-2.252
		c0.143-1.586-0.034-3.198,0.051-4.793c0.068-1.275-0.431-1.747-1.665-1.613c-0.553,0.06-1.124,0.065-1.676,0
		c-1.973-0.229-3.622-0.171-3.303,2.597c0.063,0.545-0.39,1.214-0.741,1.733c-1.829,2.7-3.807,5.307-4.964,8.899
		c-0.251-0.737-0.334-0.998-0.429-1.255c-0.404-1.094,0.979-2.559-0.198-3.23c-0.922-0.526-2.339-0.178-3.535-0.227
		c-6.707-0.275-13.412-0.593-20.121-0.795c-1.412-0.043-2.07-0.426-1.997-1.897c0.035-0.709-0.142-1.429-0.215-2.144
		c-0.418-4.119-0.426-4.068-4.572-4.769c-1.391-0.235-1.653,0.157-1.481,1.457c0.554,4.184-0.141,8.335-0.455,12.495
		c-0.38-0.314-0.761-0.627-1.141-0.941c0.062-2.38,0.805-5.018,0.023-7.077c-1.087-2.861-1.576-5.686-1.814-8.647
		c-0.125-1.56-0.215-3.143-1.272-4.442c0.425-0.002,0.849-0.004,1.273-0.006c0.243,0.487,0.488,0.975,0.962,1.922
		c0.138-4.434,0.86-8.318,1.844-12.194c0.41-1.617-0.662-3.554-0.726-5.358c-0.127-3.576-0.021-7.161-0.012-10.742
		c0.286-0.004,0.572-0.007,0.859-0.01c-0.01,2.405-0.019,4.81-0.029,7.215c-0.438,0.335-0.399,0.644,0.052,0.929
		c0.579,4.474,1.796,8.946,0.06,13.43c-0.65,0.432-0.674,0.911-0.11,1.435c0.017,2.075,0.037,4.15,0.051,6.225
		c0.006,0.831,0.058,1.613,1.114,1.815c1.176,0.225,2.347,0.479,3.516,0.735c0.597,0.131,1.185,0.221,1.119-0.665
		c-0.125-1.681,1.052-1.245,1.936-1.195c8.296,0.468,16.593,0.93,24.886,1.463c1.2,0.077,2.178,0.139,2.474-1.653
		c0.371,2.438,1.895,2.441,3.608,2.619c4.026,0.419,7.811-1.098,11.755-1.179c0.337-0.001,0.673-0.002,1.01-0.004
		c6.991-0.41,13.982-0.837,20.976-1.205c0.736-0.039,2.044-0.702,2.117,0.598c0.092,1.645,0.932,1.31,1.868,1.11
		c1.166-0.249,2.312-0.653,3.489-0.772c1.468-0.148,1.725-0.928,1.769-2.23c0.135-4.004-0.272-7.944-1.061-11.857
		C108.262,69.322,108.624,69.31,108.985,69.298z M86.787,93.289c0-0.052,0.001-0.104,0.001-0.156c1.914,0,3.83,0.054,5.742-0.015
		c2.064-0.074,4.728,0.469,6.024-0.599c1.449-1.194,0.62-4.043,1.054-6.122c0.331-1.583-0.174-1.893-1.667-1.79
		c-5.731,0.394-11.466,0.727-17.204,0.994c-6.166,0.287-6.123,0.243-5.989,6.454c0.029,1.36,0.384,1.803,1.759,1.712
		C79.93,93.539,83.36,93.44,86.787,93.289z M47.258,85.213c-0.001,0.01-0.002,0.02-0.002,0.03c-2.629-0.173-5.256-0.364-7.886-0.516
		c-4.074-0.236-4.077-0.224-3.733,3.705c0.077,0.875,0.259,1.751,0.235,2.622c-0.04,1.456,0.602,1.854,2.013,1.895
		c6.223,0.182,12.442,0.49,18.663,0.743c3.596,0.146,3.596,0.138,3.596-3.566c0-0.719-0.09-1.451,0.018-2.153
		c0.267-1.739-0.575-2.158-2.141-2.205C54.43,85.661,50.845,85.407,47.258,85.213z M62.015,93.089
		c1.833-1.432,2.613-2.874,2.654-4.689c0.018-0.809-0.383-1.318-1.309-1.322c-0.848-0.004-1.368,0.224-1.351,1.188
		C62.034,89.731,62.015,91.196,62.015,93.089z"/>
	<path fill="#E6BE99" d="M109.995,97.604c-0.769-6.267,2.394-12.023,2.367-18.194c1.072-0.825,2.121-1.683,3.221-2.468
		c3.126-2.23,5.776-2.232,8.793-0.052c3.412,2.465,4.187,4.857,3.254,8.662c-1.224,4.996-3.456,9.378-6.962,13.155
		c-1.904,2.051-3.546,4.344-4.574,6.965c-0.628,1.602-1.582,2.489-3.306,2.509c-0.119-0.107-0.259-0.154-0.418-0.141
		C111.307,104.624,110.681,101.108,109.995,97.604z M119.355,91.196c0.196,0.084,0.392,0.169,0.589,0.253
		c1.111-2.27,2.34-4.513,2.329-7.19c-0.005-1.095-0.597-1.99-1.674-2.404c-1.072-0.413-2.07-0.179-2.838,0.663
		c-2.051,2.25-2.698,5.184-3.941,7.884c1.184-0.545,2.044-1.327,2.968-2.024c0.538-0.406,1.035-1.231,1.81-0.857
		c0.78,0.377,0.813,1.316,0.891,2.093C119.542,90.132,119.407,90.668,119.355,91.196z"/>
	<path fill="#E6BE99" d="M23.102,78.908c1.057,1.299,1.147,2.882,1.272,4.442c0.238,2.961,0.727,5.786,1.814,8.647
		c0.782,2.059,0.039,4.697-0.023,7.077c-0.727,2.999-1.453,5.997-2.18,8.996c-0.316,0.039-0.631,0.078-0.947,0.116
		c-1.076-0.263-2.048-0.495-2.556-1.773c-1.431-3.6-3.793-6.636-6.383-9.453c-3.383-3.68-4.737-8.236-5.82-12.899
		c-0.827-3.559,1.466-5.676,4.033-7.452c2.679-1.853,5.263-1.811,7.774-0.044C21.126,77.298,22.099,78.125,23.102,78.908z
		 M14.683,88.615c-0.267-0.919-0.701-2.113,0.169-2.644c1.002-0.611,1.88,0.443,2.64,1.092c1.519,1.297,2.259,3.057,2.736,4.942
		c0.365,1.442,0.695,2.892,1.124,4.686c0.348-0.573,0.57-0.806,0.644-1.079c1.779-6.625-0.136-9.841-4.8-12.278
		c-0.813-0.425-1.501-1.773-2.674-0.754c-1.057,0.918-1.821,2.072-1.483,3.573c0.191,0.847,0.569,1.651,0.863,2.474
		c0.081,0.778,0.288,1.464,1.313,1.809C15.314,89.623,15.069,89.101,14.683,88.615z"/>
	<path fill="#9C978E" d="M115.404,117.779c0,0,0.035-0.024,0.035-0.024c-0.203-0.167-0.406-0.333-0.609-0.5
		c1.302-1.053,1.429-2.523,1.421-4.034c-0.006-1.116-0.008-2.222,1.028-2.975c0.354,0.38,0.444,1.146,1.254,0.859
		c0,0-0.022-0.035-0.022-0.035c-0.385,0.332-0.173,0.644,0.031,0.957c0.519,2.196-0.545,3.786-2,5.228
		C116.084,117.257,115.674,117.364,115.404,117.779z"/>
	<path fill="#0F0D0B" d="M23.039,108.187c0.316-0.039,0.631-0.077,0.947-0.116c0.045,1.328,0.07,2.651-1.018,3.913
		C22.143,110.576,20.812,109.377,23.039,108.187z"/>
	<path fill="#E6BE99" d="M20.752,117.529c-2.473-0.809-2.96-3.406-0.975-5.201C20.102,114.061,20.427,115.795,20.752,117.529z"/>
	<path fill="#0F0D0B" d="M113.24,61.167c-0.582-1.768-0.581-3.536-0.001-5.305C114.064,57.63,114.062,59.398,113.24,61.167z"/>
	<path fill="#0F0D0B" d="M112.371,108.042c0.16-0.013,0.299,0.034,0.418,0.141c1.976,0.641,2.147,1.683,0.5,3.252
		C112.812,110.295,112.094,109.338,112.371,108.042z"/>
	<path fill="#0F0D0B" d="M22.986,64.055c0.698,0.936,0.618,1.898,0.094,2.875C22.289,65.997,22.342,65.036,22.986,64.055z"/>
	<path fill="#0F0D0B" d="M23.075,52.501c0.508,0.818,0.581,1.62-0.091,2.393C22.356,54.071,22.31,53.27,23.075,52.501z"/>
	<path fill="#0F0D0B" d="M19.63,110.689c-1.393-0.669-0.508-2.015-0.887-2.986C20.454,108.278,19.378,109.681,19.63,110.689z"/>
	<path fill="#0F0D0B" d="M8.899,92.72c-0.896-0.712-1.036-1.732-1.132-2.771C9.032,90.51,9.018,91.594,8.899,92.72z"/>
	<path fill="#0F0D0B" d="M114.298,46.614c1.147,0.358,0.755,1.29,0.773,2.069C113.82,48.364,114.328,47.388,114.298,46.614z"/>
	<path fill="#0F0D0B" d="M25.081,113.939c0.182,0.66,0.145,1.3-0.173,1.915C24.305,115.156,24.193,114.503,25.081,113.939z"/>
	<path fill="#0F0D0B" d="M111.38,114.9c-0.308-0.612-0.421-1.248-0.238-1.921C112.156,113.504,112.009,114.172,111.38,114.9z"/>
	<path fill="#0F0D0B" d="M110.91,110.097c-0.286-0.442-0.389-0.919-0.277-1.438C111.517,108.986,111.558,109.475,110.91,110.097z"/>
	<path fill="#0F0D0B" d="M109.473,102.897c-0.405-0.397-0.64-0.846-0.444-1.429C109.993,101.69,110.18,102.155,109.473,102.897z"/>
	<path fill="#0F0D0B" d="M111.121,122.12c-0.132-0.52-0.034-0.998,0.267-1.439C112.034,121.297,112,121.786,111.121,122.12z"/>
	<path fill="#0F0D0B" d="M23.469,71.252c0.571,0.446,0.541,0.928,0.087,1.435C22.927,72.245,22.888,71.767,23.469,71.252z"/>
	<path fill="#0F0D0B" d="M21.978,119.025c-0.349-0.349-1.529-0.229-0.698-1.241C22.066,117.888,22.083,118.422,21.978,119.025z"/>
	<path fill="#0F0D0B" d="M114.83,117.256c0.203,0.166,0.406,0.333,0.609,0.5c-0.175,0.199-0.349,0.397-0.523,0.596
		C114.28,118.035,114.14,117.679,114.83,117.256z"/>
	<path fill="#0F0D0B" d="M24.9,121.168c0.254,0.289,0.28,0.608,0.13,0.952C24.494,121.87,24.334,121.569,24.9,121.168z"/>
	<path fill="#0F0D0B" d="M22.916,124.075c-0.317-0.287-0.344-0.632-0.206-1.011C23.469,123.26,23.694,123.566,22.916,124.075z"/>
	<path fill="#0F0D0B" d="M110.096,125.957c0.12-0.316,0.241-0.632,0.361-0.948C111.092,125.613,110.672,125.815,110.096,125.957z"/>
	<path fill="#0F0D0B" d="M75.352,143.702c0.324-0.013,0.647-0.026,0.971-0.04C76.021,144.224,75.7,144.283,75.352,143.702z"/>
	<path fill="#0F0D0B" d="M24.244,45.303c0.167,0.402,0.068,0.72-0.302,0.952C23.346,45.717,23.679,45.473,24.244,45.303z"/>
	<path fill="#0F0D0B" d="M23.713,48.185c0.218,0.39,0.133,0.708-0.232,0.957C22.883,48.659,23.151,48.387,23.713,48.185z"/>
	<path fill="#0F0D0B" d="M112.824,50.103c-0.342-0.253-0.457-0.564-0.242-0.959C113.162,49.34,113.416,49.615,112.824,50.103z"/>
	<path fill="#0F0D0B" d="M112.757,69.325c-0.416-0.349-0.359-0.667,0.064-0.961C113.309,68.719,113.243,69.036,112.757,69.325z"/>
	<path fill="#0F0D0B" d="M112.13,74.123c-0.222-0.382-0.142-0.699,0.204-0.961C112.93,73.623,112.702,73.909,112.13,74.123z"/>
	<path fill="#0F0D0B" d="M23.951,76.05c0.442,0.282,0.475,0.6,0.084,0.956C23.556,76.727,23.469,76.414,23.951,76.05z"/>
	<path fill="#0F0D0B" d="M6.169,84.699c-0.341-0.266-0.399-0.603-0.251-0.993C6.617,83.882,6.918,84.157,6.169,84.699z"/>
	<path fill="#0F0D0B" d="M26.971,102.42c0.163,0.351,0.116,0.669-0.147,0.954C26.247,102.96,26.424,102.662,26.971,102.42z"/>
	<path fill="#0F0D0B" d="M109.915,105.309c-0.298-0.268-0.359-0.596-0.247-0.969C110.284,104.527,110.588,104.793,109.915,105.309z"
		/>
	<path fill="#0F0D0B" d="M26.547,104.82c0.161,0.362,0.077,0.678-0.182,0.961C25.753,105.333,25.963,105.041,26.547,104.82z"/>
	<path fill="#0F0D0B" d="M110.463,107.687c-0.262-0.268-0.382-0.575-0.262-0.949C110.77,106.922,111.062,107.182,110.463,107.687z"
		/>
	<path fill="#0F0D0B" d="M25.525,109.62c0.173,0.344,0.147,0.667-0.105,0.964C24.823,110.194,24.955,109.884,25.525,109.62z"/>
	<path fill="#0F0D0B" d="M118.534,111.106c-0.811,0.287-0.9-0.479-1.254-0.859c0.309-0.055,0.619-0.111,0.93-0.167
		C118.554,110.347,118.57,110.718,118.534,111.106z"/>
	<path fill="#3B3A39" d="M32.174,32.036c-0.08,0.135-0.192,0.232-0.334,0.29c-0.042-0.099-0.085-0.198-0.128-0.296
		C31.865,32.032,32.02,32.034,32.174,32.036z"/>
	<path fill="#211C16" d="M116.544,117.255c1.454-1.441,2.519-3.031,2-5.228c0.175-0.002,0.351-0.004,0.526-0.006
		c0.809,2.417,0.273,4.366-1.986,5.717C116.903,117.578,116.723,117.417,116.544,117.255z"/>
	<path fill="#0F0D0B" d="M116.544,117.255c0.18,0.161,0.36,0.323,0.539,0.484c-0.56,0.013-1.119,0.026-1.679,0.04
		C115.674,117.364,116.084,117.257,116.544,117.255z"/>
	<path fill="#0F0D0B" d="M119.069,112.022c-0.175,0.002-0.351,0.004-0.526,0.006c-0.204-0.313-0.416-0.625-0.031-0.957
		C118.999,111.212,119.06,111.602,119.069,112.022z"/>
	<path fill="#3B3A39" d="M39.352,26.798c-0.093,0.133-0.213,0.232-0.36,0.298c-0.027-0.136-0.054-0.272-0.079-0.407
		C39.071,26.683,39.217,26.719,39.352,26.798z"/>
	<path fill="#909AA1" d="M91.509,113.259c0.454,6.76-0.023,13.386-2.821,19.68c-0.469,1.056-1.085,1.937-2.252,2.337
		c-6.348,2.175-12.687,4.293-19.547,4.14c-6.907-0.154-13.3-2.395-19.731-4.54c-0.945-0.315-1.398-1.078-1.639-1.931
		c-1.789-6.314-2.609-12.761-2.558-19.321c1.164,0.76,2.476-0.697,3.628,0.242c-1.013,4.808-0.629,9.59,0.14,14.391
		c0.48,2.993,2.244,4.591,5.008,5.431c2.873,0.873,5.799,1.118,8.749,0.768c4.774-0.567,9.541-0.674,14.295,0.029
		c4.416,0.653,10.213-1.338,11.524-4.657c1.982-5.017,3.689-10.178,3.855-15.677C90.61,113.853,91.059,113.556,91.509,113.259z"/>
	<path fill="#8A959E" d="M44.473,110.818c3.659-0.57,6.644-2.635,9.765-4.397c3.012-0.027,5.774,0.8,8.486,2.115
		c3.573,1.732,7.259,1.395,10.978,0.2c2.03-0.652,2.868-2.768,4.788-3.46c4.796,0.64,8.706,3.282,12.739,5.643
		c-0.771,0.677-1.728,0.82-2.662,0.689c-2.174-0.305-4.065,0.496-5.966,1.325c-0.717,0.047-1.435,0.095-2.15,0.141
		c-1.553,0.179-3.107,0.36-4.662,0.54c-1.916,0.207-3.832,0.413-5.747,0.62c-2.064-0.03-4.129-0.061-6.193-0.091
		c-2.408-0.194-4.816-0.388-7.224-0.582c-2.827,0.13-5.493-0.758-8.194-1.192c-0.099-0.672,0.863-0.507,0.682-1.237
		C47.578,111.029,46.025,110.923,44.473,110.818z"/>
	<path fill="#0F0D0B" d="M78.491,105.276c-1.92,0.692-2.758,2.807-4.788,3.46c-3.719,1.195-7.405,1.532-10.978-0.2
		c-2.713-1.315-5.475-2.142-8.486-2.115c-2.507-1.065-2.544-1.603-0.037-3.539c-0.171,2.614,1.431,2.698,3.251,2.425
		c1.218-0.183,2.352,0.038,3.5,0.477c4.738,1.815,9.435,2.26,14.009-0.551c0.46-0.283,1.036-0.394,1.57-0.537
		c1.639-0.441,3.273-0.869,2.852-3.27c1.214,0.49,2.283,1.266,2.156,2.023C81.295,104.909,79.398,104.424,78.491,105.276z"/>
	<path fill="#0F0D0B" d="M44.473,110.818c1.552,0.106,3.105,0.211,4.641,0.316c0.181,0.729-0.782,0.565-0.682,1.237
		c2.701,0.434,5.366,1.322,8.194,1.192c0,0.251-0.001,0.502-0.001,0.753c-1.931,0.399-3.785-0.91-5.981-0.223
		c2.449,2.719,5.471,4.431,8.49,6.179c-3.129-0.22-5.715-1.475-8.061-3.261c-1.454-1.107-2.788-2.381-4.483-3.144
		c-1.152-0.939-2.464,0.519-3.628-0.241c-0.933-0.716-1.497-1.602-1.336-2.956C42.592,110.719,43.533,110.768,44.473,110.818z"/>
	<path fill="#0F0D0B" d="M82.602,112.933c1.902-0.829,3.793-1.629,5.966-1.325c0.934,0.131,1.891-0.012,2.662-0.689
		c2.147,0.535,0.257,1.551,0.278,2.339c-0.45,0.297-0.899,0.594-1.348,0.892c-0.389,0.04-0.966,0.267-1.139,0.092
		c-1.661-1.672-3.07-0.477-4.405,0.41c-1.184,0.786-2.215,1.802-3.318,2.712c-0.722,0.596-1.404,1.336-2.119,0.966
		c0.982-1.173,2.043-2.441,3.105-3.708C82.708,114.118,83.533,113.691,82.602,112.933z"/>
	<path fill="#ECC39E" d="M107.901,69.335c0.789,3.913,1.196,7.854,1.061,11.857c-0.044,1.303-0.301,2.083-1.769,2.23
		c-1.177,0.119-2.323,0.523-3.489,0.772c-0.936,0.2-1.776,0.534-1.868-1.11c-0.073-1.3-1.381-0.637-2.117-0.598
		c-6.994,0.368-13.984,0.795-20.976,1.205c0.503-0.833,1.416-0.988,2.218-1.276c2.946-1.057,5.93-1.754,9.128-1.541
		c2.292,0.153,4.642,0.218,6.885-0.556c0.443-0.153,0.942-0.382,0.882-0.971c-0.048-0.48-0.547-0.541-0.9-0.64
		c-1.46-0.407-2.918-0.842-4.402-1.133c-6.205-1.215-12.508,1.409-14.821,6.121c-3.945,0.081-7.729,1.598-11.755,1.179
		c-1.713-0.178-3.237-0.181-3.608-2.619c-0.295,1.792-1.273,1.73-2.474,1.653c-8.292-0.533-16.589-0.995-24.886-1.463
		c-0.884-0.05-2.061-0.486-1.936,1.195c0.066,0.886-0.522,0.796-1.119,0.665c-1.17-0.256-2.34-0.51-3.516-0.735
		c-1.056-0.202-1.108-0.983-1.114-1.815c-0.015-2.075-0.034-4.15-0.051-6.225c0.288-0.459,0.305-0.939,0.11-1.435
		c1.737-4.485,0.52-8.956-0.06-13.43c0.252-0.325,0.281-0.637-0.052-0.929c0.01-2.405,0.019-4.81,0.029-7.215
		c0.337-1.923,0.675-3.846,1.012-5.769c1.503-4.563,3.415-8.9,6.855-12.392c1.859-1.477,3.695-3,5.841-4.051
		c3.895-1.908,7.771-3.896,12.247-4.061c-0.165,0.693-0.147,1.343,0.434,1.862c0.473,1.689,1.933,2.381,3.339,2.752
		c7.247,1.91,14.533,2.005,21.753-0.139c1.093-0.325,2.547-0.599,2.785-2.194c0.657-0.747,1.313-1.494,1.97-2.241
		c7.735,1.229,14.359,4.56,19.662,10.391c1.584,2.543,3.075,5.128,3.966,8.02c0.149,0.484,0.158,1.413,1.174,1.003l0.134-0.046
		c0,0-0.031-0.138-0.031-0.138c-0.95-0.114-0.751,0.532-0.66,1.045c0.381,2.147,0.786,4.29,1.182,6.435
		c0.004,2.402,0.008,4.804,0.011,7.206c-0.256,0.305-0.246,0.633-0.081,0.973c-0.32,2.229-0.641,4.458-0.961,6.686
		C107.524,68.343,107.437,68.832,107.901,69.335z M57.323,82.768c-0.858-1.7-2.196-2.923-3.841-3.915
		c-4.859-2.93-9.908-2.348-15.015-0.873c-0.377,0.109-0.892,0.201-0.749,0.692c0.093,0.318,0.494,0.64,0.832,0.778
		c1.721,0.704,3.545,0.984,5.383,0.879c4.245-0.244,8.226,0.675,12.043,2.468C56.306,82.953,56.646,83.279,57.323,82.768z"/>
	<path fill="#211C16" d="M81.569,28.528c-0.238,1.595-1.693,1.87-2.785,2.194c-7.22,2.145-14.507,2.05-21.753,0.139
		c-1.407-0.371-2.866-1.063-3.339-2.752c0.855-0.692,1.046,0.342,1.488,0.616c1.803,1.119,3.774,1.587,5.857,1.783
		c6.655,0.626,13.303,1.271,19.596-1.884C80.895,28.494,81.255,28.556,81.569,28.528z"/>
	<path fill="#211C16" d="M103.201,36.678c-5.303-5.831-11.927-9.163-19.662-10.391c-0.08-1.239,0.774-1.29,1.576-1.081
		c6.527,1.698,12.511,4.447,17.409,9.225c0.634,0.619,1.029,1.399,1.279,2.248C103.601,36.679,103.401,36.678,103.201,36.678z"/>
	<path fill="#211C16" d="M53.257,26.248c-4.476,0.165-8.353,2.152-12.247,4.061c-2.146,1.052-3.981,2.574-5.841,4.051
		c-0.27-0.033-0.54-0.065-0.81-0.098c3.893-4.693,9.31-6.752,14.859-8.568c0.903-0.296,1.877-0.376,2.776-0.681
		C53.332,24.557,53.254,25.412,53.257,26.248z"/>
	<path fill="#3B3A39" d="M34.36,34.262c0.27,0.033,0.54,0.065,0.81,0.098c-3.441,3.491-5.352,7.829-6.855,12.392
		c-0.31,0.008-0.62,0.016-0.93,0.023C28.51,41.935,30.372,37.506,34.36,34.262z"/>
	<path fill="#0F0D0B" d="M107.936,67.862c0.32-2.229,0.641-4.458,0.961-6.686c0.546-0.281,0.65-0.599,0.081-0.973
		c-0.004-2.402-0.008-4.804-0.011-7.206c0.302,0.004,0.604,0.008,0.906,0.012c0.154,4.987,0.36,9.977-0.896,14.879
		C108.629,67.879,108.283,67.87,107.936,67.862z"/>
	<path fill="#3B3A39" d="M103.201,36.678c0.2,0,0.4,0,0.602,0.001c2.624,2.447,3.943,5.55,4.541,9.019
		c-1.019,0.414-1.028-0.516-1.177-0.999C106.276,41.806,104.785,39.221,103.201,36.678z"/>
	<path fill="#211C16" d="M109.872,53.009c-0.302-0.004-0.604-0.008-0.906-0.012c-0.396-2.144-0.801-4.287-1.182-6.435
		c-0.091-0.513-0.29-1.16,0.66-1.045C108.522,48.09,110.246,50.349,109.872,53.009z"/>
	<path fill="#211C16" d="M27.384,46.775c0.31-0.008,0.62-0.016,0.93-0.023c-0.337,1.923-0.675,3.846-1.012,5.769
		c-0.286,0.003-0.573,0.007-0.859,0.01C26.269,50.533,26.781,48.646,27.384,46.775z"/>
	<path fill="#211C16" d="M107.936,67.862c0.347,0.009,0.693,0.018,1.04,0.027c0.003,0.47,0.006,0.94,0.009,1.41
		c-0.361,0.012-0.723,0.024-1.085,0.036C107.437,68.832,107.524,68.343,107.936,67.862z"/>
	<path fill="#F8F8F8" d="M86.787,93.289c-3.427,0.151-6.858,0.25-10.28,0.477c-1.375,0.091-1.73-0.352-1.759-1.712
		c-0.133-6.211-0.177-6.167,5.989-6.454c5.738-0.267,11.474-0.6,17.204-0.994c1.492-0.103,1.997,0.208,1.667,1.79
		c-0.434,2.078,0.395,4.928-1.054,6.122c-1.296,1.068-3.96,0.525-6.024,0.599c-1.912,0.069-3.828,0.015-5.742,0.015
		C86.788,93.185,86.788,93.237,86.787,93.289z"/>
	<path fill="#F8F8F8" d="M47.258,85.213c3.587,0.194,7.172,0.448,10.762,0.555c1.567,0.046,2.409,0.466,2.141,2.205
		c-0.108,0.702-0.018,1.435-0.018,2.153c0,3.704,0,3.712-3.596,3.566c-6.221-0.253-12.44-0.561-18.663-0.743
		c-1.412-0.041-2.053-0.439-2.013-1.895c0.024-0.871-0.159-1.747-0.235-2.622c-0.344-3.929-0.342-3.94,3.733-3.705
		c2.63,0.152,5.258,0.342,7.886,0.516C47.256,85.233,47.257,85.223,47.258,85.213z"/>
	<path fill="#635541" d="M77.733,83.695c2.313-4.711,8.615-7.336,14.821-6.121c1.485,0.291,2.943,0.727,4.402,1.133
		c0.353,0.098,0.852,0.16,0.9,0.64c0.059,0.59-0.439,0.818-0.882,0.971c-2.242,0.774-4.592,0.709-6.885,0.556
		c-3.198-0.213-6.183,0.484-9.128,1.541c-0.802,0.288-1.715,0.443-2.218,1.276C78.406,83.692,78.07,83.694,77.733,83.695z"/>
	<path fill="#9C978E" d="M62.015,93.089c0-1.894,0.019-3.359-0.007-4.823c-0.017-0.964,0.503-1.192,1.351-1.188
		c0.926,0.004,1.328,0.513,1.309,1.322C64.628,90.215,63.848,91.657,62.015,93.089z"/>
	<path fill="#211C16" d="M27.385,74.095c0.195,0.496,0.178,0.976-0.11,1.435C26.711,75.006,26.735,74.527,27.385,74.095z"/>
	<path fill="#3B3A39" d="M27.273,59.735c0.333,0.292,0.304,0.605,0.052,0.929C26.874,60.379,26.835,60.071,27.273,59.735z"/>
	<path fill="#0F0D0B" d="M119.355,91.196c0.051-0.528,0.187-1.064,0.134-1.582c-0.078-0.777-0.111-1.716-0.891-2.093
		c-0.775-0.375-1.272,0.451-1.81,0.857c-0.924,0.697-1.784,1.478-2.968,2.024c1.243-2.701,1.89-5.635,3.941-7.884
		c0.768-0.843,1.766-1.076,2.838-0.663c1.077,0.414,1.669,1.309,1.674,2.404c0.011,2.677-1.219,4.921-2.329,7.19
		C119.748,91.365,119.552,91.28,119.355,91.196z"/>
	<path fill="#0F0D0B" d="M13.903,88.628c-0.294-0.823-0.672-1.628-0.863-2.474c-0.338-1.501,0.426-2.655,1.483-3.573
		c1.173-1.018,1.86,0.329,2.674,0.754c4.663,2.437,6.579,5.653,4.8,12.278c-0.073,0.273-0.296,0.507-0.644,1.079
		c-0.429-1.794-0.76-3.245-1.124-4.686c-0.477-1.885-1.217-3.646-2.736-4.942c-0.76-0.649-1.638-1.703-2.64-1.092
		c-0.87,0.53-0.436,1.724-0.169,2.643C14.423,88.619,14.163,88.623,13.903,88.628z"/>
	<path fill="#9C978E" d="M13.903,88.628c0.26-0.004,0.52-0.009,0.78-0.013c0.386,0.487,0.631,1.009,0.533,1.822
		C14.192,90.091,13.984,89.406,13.903,88.628z"/>
	<path fill="#EAC29D" d="M82.602,112.933c0.931,0.758,0.106,1.185-0.317,1.689c-1.062,1.267-2.123,2.535-3.105,3.708
		c0.714,0.37,1.396-0.37,2.119-0.966c1.103-0.91,2.134-1.926,3.318-2.712c1.335-0.886,2.744-2.082,4.405-0.41
		c0.173,0.174,0.75-0.052,1.139-0.092c-0.167,5.499-1.873,10.66-3.855,15.677c-1.311,3.319-7.108,5.31-11.524,4.657
		c-4.755-0.703-9.522-0.595-14.295-0.029c-2.95,0.35-5.876,0.106-8.749-0.768c-2.764-0.84-4.529-2.439-5.008-5.431
		c-0.769-4.801-1.153-9.583-0.14-14.391c1.694,0.762,3.029,2.036,4.483,3.144c2.346,1.786,4.932,3.042,8.061,3.261
		c-3.019-1.748-6.041-3.46-8.49-6.179c2.196-0.687,4.051,0.622,5.981,0.223c2.402,0.226,4.785,0.721,7.218,0.526
		c2.075,0.196,4.151,0.24,6.227,0.015c1.959,0.287,3.836-0.35,5.756-0.504c1.565-0.341,3.382,0.23,4.626-1.276
		C81.168,113.028,81.885,112.981,82.602,112.933z M78.829,123.067c-7.27,2.188-14.549,1.719-22.422-0.212
		C62.937,128.767,75.184,127.184,78.829,123.067z"/>
	<path fill="#211C16" d="M63.842,114.84c-2.433,0.195-4.815-0.3-7.218-0.526c0-0.251,0.001-0.502,0.001-0.753
		c2.408,0.194,4.816,0.388,7.224,0.582C63.847,114.376,63.844,114.608,63.842,114.84z"/>
	<path fill="#0F0D0B" d="M63.842,114.84c0.003-0.232,0.005-0.465,0.008-0.697c2.064,0.03,4.129,0.061,6.193,0.091
		c0.009,0.207,0.017,0.414,0.026,0.622C67.992,115.08,65.917,115.037,63.842,114.84z"/>
	<path fill="#211C16" d="M70.068,114.856c-0.009-0.207-0.017-0.415-0.026-0.622c1.916-0.206,3.832-0.413,5.747-0.62
		c0.012,0.246,0.023,0.492,0.035,0.738C73.905,114.506,72.027,115.142,70.068,114.856z"/>
	<path fill="#3B3A39" d="M75.825,114.352c-0.011-0.246-0.023-0.492-0.035-0.738c1.555-0.18,3.109-0.361,4.662-0.54
		C79.207,114.581,77.39,114.01,75.825,114.352z"/>
	<path fill="#635541" d="M57.323,82.768c-0.676,0.51-1.017,0.184-1.347,0.029c-3.817-1.793-7.798-2.712-12.043-2.468
		c-1.838,0.105-3.662-0.175-5.383-0.879c-0.338-0.138-0.739-0.46-0.832-0.778c-0.143-0.491,0.372-0.584,0.749-0.692
		c5.107-1.475,10.156-2.057,15.015,0.873C55.127,79.845,56.465,81.068,57.323,82.768z"/>
	<path fill="#211C16" d="M108.977,60.202c0.57,0.374,0.466,0.692-0.081,0.973C108.732,60.835,108.721,60.508,108.977,60.202z"/>
	<path fill="#909AA1" d="M78.829,123.067c-3.645,4.117-15.892,5.7-22.422-0.212C64.28,124.786,71.559,125.254,78.829,123.067z"/>
</g>
</svg>
